<svg xmlns="http://www.w3.org/2000/svg" viewBox="0 0 3000 3000" width="3000" height="3000"><g transform="translate(150.0 198.0) rotate(0.0 1356.6 1281.0) scale(1.6235040689325035 1.6233683943733366)"><svg width="1671.2" height="1578.2" viewBox="0 0 1671.2 1578.2"><path d="M389.4 1022.2c131.5-308.5 294.4-470 420.8-438.2h.1c9.2 1.3 9.9 217.3 3.5 254.2-25.2 145.7-89.4 603.6-399.2 602.5-130.8-.5-99.2-244.7-25.2-418.5z" fill="#b0dcf7"/><path d="M491 1100.9c.3 1.1 1.3 1.8 2.4 1.8.2 0 .5 0 .7-.1 1.3-.4 2.1-1.8 1.7-3.1-16.5-55.2-58.4-129.8-72.2-152.4-.8 1.9-1.6 3.7-2.5 5.6 15.3 25.4 54.2 95.7 69.9 148.2z" fill="#66b0f0"/><path d="m1067.9 502.5 47 71.2s146.5 591.8 11 762.6c-112.9 142.3-513.5 145-529.4 17.6-24.9-199.2 59.4-507 179.9-730l60-69.4z" fill="#fff"/><path d="M646.9 1216c15.3-168.7 67.5-326.5 144.6-511.2-6.7-20.9 22-79.4 75.5-85.4-4.4 24 3.8 46.2 3.8 46.2 0 23.3-2.5 48.5-18.2 57.9 0 0-71.2 283.6-65.2 472L700 1300.8z" fill="#f94f46"/><path d="M842.8 728.9c-20.9 0-48.9-8.3-57.6-25.4-.6-1.3 0-2.7 1.2-3.3 1.2-.5 2.6-.1 3.2 1 9.1 17.8 44.2 25.4 63.4 21.8 1.4-.3 2.7.6 2.9 2s-.6 2.7-2 2.9c-3.7.7-7.4 1-11.1 1z" fill="#fff"/><path d="M51.4 771c-13.3-79.4-25.9-136.1-47-212.8-11.7-42.5 1.3-64.9 23.6-60.4-11.3-21.2 11.1-41.5 27.5-34.9-13.5-48 16.9-96.4 28.7-108.2 21-20.9 22.9 12.3 17 31.7 9-23.5 17.6-35.9 28.2-42.6 9.3-5.9 16.7 15.2 12.2 34-2.4 9.9-4 34.9-1.2 49.2 5 25.3 16 47.8 31.3 70.3 5.8-15.9 11.1-25 16.9-38.5 6-13.9 13.1-33.6 29-42.9 19.5-11.5 13.2 33.5 13.3 53.5.1 23.3 11.1 54.6 17.1 75.9 9.9 34.9 56.4 147 70.8 194.6C336.9 790.1 70 881.5 51.4 771z" fill="#f4ada2"/><g fill="#9b3c82"><path d="M116.2 479.2c.7 1.2 2.3 1.6 3.4.8 1.1-.7 1.5-2.1.9-3.3-.1-.2-12.8-22.8-15.2-41.6-.7-5.5-3.8-34.8 5.1-68.8v-.3c-3.5 6.4-6.6 13.1-9.1 20-2.5 16.5-2.8 33.2-1 49.7 2.6 19.8 15.3 42.5 15.9 43.5zm-46.6 42.1c-1.1-.8-2.7-.6-3.5.5s-.6 2.7.5 3.5c17.8 13.2 34.3 20.4 45.3 20.4 4.7 0 8.4-1.3 10.9-4 7.9-8.6 0-27.7-21.8-52.5-14.3-16.3-26-24.4-47-32.2.4 2 .9 4 1.5 5.9 18.1 7.1 28.8 14.8 41.8 29.6 23.1 26.3 26.2 41.1 21.9 45.8-5.2 5.8-24.4 1.7-49.6-17z"/><path d="M86.1 567.6c4.6-4.4 8.7-16.3-16-45.8-13.4-16-24.2-23.3-44.4-30.1.5 2.1 1.3 4.2 2.3 6.1 16.9 6.1 26.3 12.9 38.2 27.2C85 547.4 87 559.8 82.7 564c-6.9 6.5-31.1-1.4-54.9-23.3-1-.9-2.6-.9-3.5.1s-.9 2.6.1 3.5c18.3 16.8 38.1 26.8 51.1 26.8 4.4.1 8.1-1.1 10.6-3.5zm70 22.4c1.4 0 2.5-1.1 2.5-2.5 0-.6.5-55.3 13.1-90.3-1.2-1.6-2.4-3.2-3.5-4.9-5.8 14.8-10.1 35.2-12.6 60.6-1.9 19.2-2 34.4-2 34.5 0 1.5 1.1 2.6 2.5 2.6-.1 0 0 0 0 0z"/></g><path d="M414.6 1440.7c-261.7 7.8-301.3-158.2-363.2-669.7 102.4 23.7 220-28.7 251.1-78.6 43.3 100.6 136.9 296.2 173.8 377.7 70.7 156.2 80.5 366.3-61.7 370.6z" fill="#b0dcf7"/><path d="M355.5 811.9c-.4.2-.8.5-1 .9-21.1 31.2-71.9 61.7-132.6 79.6-59.9 17.7-117 19.6-154.4 5.6l.8 5.6c16.6 5.8 36.6 8.7 58.7 8.7 29.3 0 62.4-5 96.4-15.1 61-18 112.4-48.8 134.5-80.4z" fill="#66b0f0"/><path d="M810.1 584.1c8.8-10 17.8-22.5 26.3-29.7 0 0-14.4 36.8-34.8 86.5-30.5 74.6-81.1 248.7-94.3 417.7-5.8 73.8-17.4 284-12 363.8-16.9 11.5-79.8-1.2-108.6-18.1-51.7-360.6 75.2-705 223.4-820.2z" fill="#b0dcf7"/><path d="M694.2 1434.2c5.9-94.2 16.8-189.6 38.9-287.1 45.9-203.2 139.7-415.6 334.8-644.7 8.4 8.4 15.8 17.7 22 27.8.9 1.9 67.5 18.2 102.8 79s142.9 827.4 69.1 858.1-567.6-33.1-567.6-33.1z" fill="#b0dcf7"/><path d="M578.1 1285c-1.4 0-2.5-1.1-2.5-2.5 2.1-160.7 16.8-284.1 46.5-388.2 36.7-129 97-231.4 184.4-313 1-1 2.5-1 3.5 0s1 2.5 0 3.5l-.2.2c-86.7 81-146.6 182.6-183 310.7-29.5 103.8-44.2 226.7-46.3 387 .2 1.3-1 2.3-2.4 2.3z" fill="#66b0f0"/><path d="M1187.8 1248.6s-25.6-79.4-96.2-291.2-26.5-378.2 1.2-416c18.3-25 133-31.8 255.3 67.1 116.1 93.9 216.8 212.2 299.3 507.4 38.1 136.3 33 272.9-33.1 359.9-110.3 145.2-327.8-19.8-426.5-227.2z" fill="#b0dcf7"/><path d="M718.7 1294c-9.2-9-27.2-22.4-39.6-43.9-5.9-10.2-23.9-40.9 25.8-16 38.9 19.6 115.9 45.8 142 46.3" fill="#f4ada2"/><path d="M536.1 1299.3c22.5 3.6 58.5 11.1 78.5 17.6-46.1-18.5-109.4-51.4-68.9-54 53-3.4 97 15.2 174.1 19.7 61.7 3.6 87.8-2.7 164.5-2.7 165.1 0 94.5 265.9 11.5 254.6-79.9-10.9-158.8-28-236.1-51.2-40.1-12-83.9-30.2-114.7-51.1-51.8-35.1-51.3-57 22.3-31.8-3.1-1.6-147.4-77.5-67.6-76.3 0 0-63.3-40.7 36.4-24.8z" fill="#f4ada2"/><path d="M665.9 1338.8c1.4 0 2.5-1.1 2.5-2.5 0-1.2-.8-2.2-1.9-2.4-15.6-3.7-31.5-7.9-52.4-17.3l.5.3c-7.1-2.1-15.6-4.4-24.7-6.6 33 17.6 54.5 23.4 75.4 28.4.2 0 .4.1.6.1zm.1 103.5c1.4.1 2.6-.9 2.7-2.3s-.9-2.6-2.3-2.7c-26.8-4.3-67.6-21.3-99-37-9.5-3.2-17.8-5.7-24.9-7.5 31.8 17.9 88.7 43.9 123.1 49.4.2.1.3.2.4.1zm.9-46c1.4.1 2.6-.9 2.7-2.3s-.9-2.6-2.3-2.7c-59.4-10.2-138.4-47.6-167.8-67.3-3.1 0-5.9 0-8.3.2 24.9 19.1 110 60.7 175.2 72 .2.1.4.1.5.1z" fill="#9b3c82"/><path d="M1614.3 1475.7c-51.2 67-98.3 91.2-206.2 99.7-162.1 12.7-379.8-19-512.3-40.9 54.5-72.5 36.2-207.4-11.5-254.6 129.4-4.4 253.6-36.3 392.9-47.6 208.4-12.8 434.2 116.5 337.1 243.4z" fill="#b0dcf7"/><path d="M978.6 1527.7c-8.9 0-16.1-7.2-16.1-16.1s7.2-16.1 16.1-16.1 16.1 7.2 16.1 16.1c0 8.9-7.2 16.1-16.1 16.1zm0-27.2c-6.1 0-11.1 5-11.1 11.1s5 11.1 11.1 11.1 11.1-5 11.1-11.1-4.9-11.1-11.1-11.1zm74.2-87.1c-3.2-62.8-23.8-114.7-56.9-143.1l-6.1.8c.1.5.4 1 .8 1.3 33.2 27.1 54 78.6 57.2 141.3 2.8 54.8-9.1 110-29.5 137.3-.4.6-.6 1.4-.4 2.1l4.6.6c21.3-28.7 33.2-83.7 30.3-140.3z" fill="#66b0f0"/><path d="M1351.8 1252.5c-71.2-25.4-146.4-13.6-241.5 1.5-36.7 5.8-76.2 12-120 17-35.2 4.4-70.3 7.7-105.9 8.9l-.1.1c1.3 1.3 2.7 2.7 3.9 4.2 87.7-3.8 159.4-15.2 222.8-25.2 94.4-14.9 169-26.7 239-1.7 1.3.5 2.7-.2 3.2-1.5.5-1.4-.2-2.9-1.4-3.3z" fill="#66b0f0"/><path d="M919.7 249.7c12.7 28.1 20.9 40.2 42.7 18.3s31.9-38.9 56.1-46.5c-8.1-35 8-77.4 17.5-97.6 26.5-55.8-47.8-126.3-110.3-80.4-10.6-49.3-92.5-63.8-118.7-6-1.7 3.9-3.2 7.6-3.2 7.6s-4.7-1.9-8.9-3.7C778 35.1 759.3 36 743 43.7c-41 20.7-55.7 94.8 8 115.5 5.8-.4 12.2-.6 18.8-.7 24.3-.1 79.6 6.2 107.1 31.3 17.1 16 30.9 35.2 40.6 56.5z" fill="#5b2448"/><path d="m803.8 45.1-1.4-.6c.1 0 .2.1.3.2 14.6 5.8 25.2 21.3 30.1 34 .4 1 1.3 1.6 2.3 1.6.3 0 .6-.1.9-.2 1.3-.5 1.9-1.9 1.4-3.2-6.8-17.1-18.6-30.5-31.8-36.3-1 2.6-1.8 4.5-1.8 4.5z" fill="#9b3c82"/><path d="M900.6 736.8c-.7 0-1.4-.3-1.9-.9-19-22.8-38.6-76.2-36.1-116.4.1-1.4 1.3-2.4 2.7-2.3s2.4 1.3 2.3 2.7c-2.3 37.9 16.6 90.9 35 112.9.9 1.1.7 2.6-.3 3.5-.5.3-1.1.5-1.7.5z" fill="#b0dcf7"/><path d="M1085.5 264.9c-7.8-46.4-59.2-59.3-92.9-29.1-27.5 18.8-47.1 75.3-71.6 11.6-10.7-27.8-31-53.4-56.6-69.6-5.8-3.4-13.7-7.2-18.5-8.5-23.8-8.6-51.9-11-76.2-10.9-7.3.1-18.7.8-18.7.8s-1.3 23.3-2.2 30.7c-1.7 18.8-4.2 37.7-7.4 56.4-8.7 50.6-41.5 72.1-46.8 115.2-9.7 80.9 145.1 71.2 151.8 65.5 6.4 26.7-5.2 115-12.8 138.8-3 13 1.8 34.3 28.9 54 105-5.3 173.2-68 205.4-117.2-22.5-31.6-64.2-106.2-68.9-150.2 36-3.4 93.1-38.6 86.5-87.5z" fill="#f4ada2"/><path d="m999 352.3 2.2-.2c-.4-.3-1-.4-1.5-.3-7.1.7-22.3-1.4-28-3.4-1.3-.5-2.7.2-3.2 1.5s.2 2.7 1.5 3.2c5.5 1.9 18.2 3.8 26.6 3.8 1.1 0 2 0 2.9-.1-.1-1.6-.3-3.1-.5-4.5z" fill="#9b3c82"/><path d="M882.2 209c-.6-5.3-2.1-10.4-4.5-15.2-9.3-20.7-41.9-36.1-59.8-17-5.5 8.6 5.2 14.4 11.4 17.4 5.5 3.2 10.2 6.2 15.4 9.3 4.7 3 11.5 8.1 16.5 11.9 3.5 2.8 7.4 5.6 12 6.1 8 1.4 10.2-5.9 9-12.5zm-15.8 30.5c-15-5.1-29.4-7.5-46.7-16.9-2.6-1.4-5.8-.6-7.2 2-13.7 23.2 12.2 27.8 33.2 26.8 8.5-.4 15.6-2.6 19.6-5s5-5.5 1.1-6.9zm-78.5-68.4c-9.2-15.1-24.5-13.2-36.9-12-.5 10.2-1.3 20.5-2.2 30.7 8.2-2.2 16.6-4 25-5.2 4.2-.9 10.9-.7 13.9-4.9l-.1-.1c1.8-2.6 1.8-5.9.3-8.5zM846.4 427c4.2-1.4 9.8-3.3 15.9-5.8 13.8-5.6 30.6-14 42.3-25 8.3 5.4 7.8 62.2-56.6 82 0-29.3-1.6-50.2-1.6-51.2z" fill="#5b2448"/><path d="M916.2 297.7c-.4-2-.9-3.9-1.5-5.8-6.2-6.1-14-13.7-22.8-22.2-18.7-5.9-38.7 4.4-44.6 23.1s4.4 38.7 23.1 44.6 38.7-4.4 44.6-23.1c1.7-5.4 2.1-11.1 1.2-16.6zm-24.3-28.1c8.8 8.3 16.5 16 22.8 22.2-3.7-10.6-12.2-18.7-22.8-22.2z" fill="#f4ada2"/><path d="M916.2 297.7c-.4-2-.9-3.9-1.5-5.8-3.7-10.5-12.2-18.7-22.8-22.2-18.7-5.9-38.7 4.4-44.6 23.1s4.4 38.7 23.1 44.6 38.7-4.4 44.6-23.1c1.7-5.4 2.1-11.1 1.2-16.6z" fill="#e57281" opacity=".52"/><path d="M788.4 221.9c-.1-.4-.3-.8-.6-1.1-1-1.8-3-2.9-5.1-2.7-15.6 1.2-21.9 1.6-30.4.1-.4 0-.8 0-1.2.1-1.4.3-2.3 1.8-2 3.2v.1c2.2 7.6 10.2 18 23.8 17.1 1.3-.1 4-.5 4-.5 7.9-1.7 11.4-6.8 11.9-12.4.1-1.5 0-2.7-.4-3.9z" fill="#5b2448"/><path d="M126.9 849.6c-8.9 0-16.1-7.2-16.1-16.1s7.2-16.1 16.1-16.1 16.1 7.2 16.1 16.1-7.2 16.1-16.1 16.1zm0-27.3c-6.1 0-11.1 5-11.1 11.1s5 11.1 11.1 11.1 11.1-5 11.1-11.1c.1-6.1-4.9-11.1-11.1-11.1zm1085.7 422.3c-.8 0-1.6-.4-2.1-1.1-38-56.7-97.6-197.2-133.1-345.8-19.2-80.2-28.6-151.1-28-210.9.7-70.1 15.3-122.7 43.5-156.2 1-1 2.6-1.1 3.6-.1.9.9 1.1 2.3.3 3.3-27.4 32.6-41.7 84.1-42.3 153-.6 59.4 8.8 129.9 27.9 209.7 35.4 148 94.6 287.8 132.4 344.1.8 1.2.4 2.7-.7 3.5-.5.3-1 .5-1.5.5z" fill="#66b0f0"/><path d="M984.1 308.3c-.2 0-.5 0-.7-.1-1.3-.4-2.1-1.8-1.7-3.1 9.3-31.3 33.1-49.1 63.8-47.8 1.4.1 2.5 1.2 2.4 2.6s-1.2 2.5-2.6 2.4c-28.7-1.3-50.1 14.8-58.8 44.2-.3 1-1.3 1.8-2.4 1.8z" fill="#9b3c82"/><path d="M773.8 280.1c-.5 0-1-.2-1.4-.4-8.2-5.6-12.4-11.1-12.4-16.4 0-5.7 4.8-10.7 10.5-16.5 6.4-6.6 13.6-14.1 13.6-23.1 0-1.4 1.1-2.5 2.5-2.5s2.5 1.1 2.5 2.5c0 11-8 19.2-15 26.6-4.7 4.8-9.1 9.4-9.1 13 0 3.4 3.7 7.8 10.2 12.3 1.1.8 1.4 2.3.7 3.5-.5.5-1.3.9-2.1 1z" fill="#5b2448"/><path d="M769.1 319.3c3.9 2.8 8.5 4.5 13.3 4.7 4.8.4 9.6-.4 14-2.3 4.3-2 8.1-5 10.9-8.9s4.5-8.5 4.8-13.3v-.1c.1-1.2 1.1-2.2 2.3-2.1 1.1 0 2 .9 2.1 1.9.7 6-.6 12.1-3.9 17.1-1.6 2.6-3.5 4.9-5.8 6.8-6.9 6-16.1 8.6-25.1 7.1-3-.4-5.8-1.2-8.5-2.5-2.8-1.3-5.2-3.1-7.2-5.4-.8-.9-.7-2.3.2-3.1.8-.6 2-.6 2.9.1z" fill="#9b3c82"/><path d="M683.8 864.7c-.5 0-1 0-1.5-.1-4.3-.8-7.2-5-6.3-9.3 7.9-42.2 32.2-111.2 60.3-171.5 23.9-51.1 58.5-113.3 87.9-119.8 4.3-1 8.6 1.7 9.6 6s-1.7 8.6-6 9.6h-.2c-13.5 3-40.7 33.7-76.8 111-27.3 58.3-51.6 127.2-59.1 167.6-.7 3.7-4 6.5-7.9 6.5z" fill="#21a0aa"/><ellipse cx="683.8" cy="856.6" fill="#21a0aa" rx="35.3" ry="29.6" transform="matrix(.3336 -.9427 .9427 .3336 -351.8816 1215.4399)"/><path d="M973 801.2h-.8c-4.4-.4-7.6-4.3-7.2-8.7v-.1c4-39.3 20-91.2 45.1-145.9 23-50.1 50.5-95.6 73.7-121.6 2.9-3.3 8-3.6 11.3-.7s3.6 8 .7 11.3C1050.5 586.4 989.2 713 981 794c-.4 4.1-3.9 7.2-8 7.2z" fill="#21a0aa"/><path d="M969.9 1117.3c-.4 0-.8 0-1.2-.1-22.8-5.5-41.8-21-56.7-46.1-33.7-56.9-35.3-144.6-28.5-169.5.7-2.7 3.4-4.3 6-3.7 2.7.7 4.3 3.4 3.7 6 0 .1 0 .2-.1.2-6.2 23-4.3 108.1 27.5 161.8 13.4 22.7 30.4 36.7 50.5 41.5 2.7.6 4.3 3.4 3.7 6-.6 2.3-2.6 3.9-4.9 3.9z" fill="#fff"/><path d="M909.3 1110.6c-3.4 0-6.9-.3-10.3-.9-2.7-.5-4.6-3.1-4.1-5.8s3.1-4.6 5.8-4.1c31 5.3 58.4-18.7 81.5-71.4 13.2-30 24.4-68.3 33.3-113.8.5-2.7 3.1-4.5 5.8-4.1 2.7.5 4.5 3.1 4.1 5.8v.2c-9.1 46.2-20.5 85.2-34 115.9-22.8 52-50.3 78.2-82.1 78.2z" fill="#fff"/><path d="M1020.5 923.6c-4.4 0-8-3.6-8-8 0-.5 0-.9.1-1.4 5.2-30.1 5-73.6-12.5-97-6.6-9.2-16.8-15.1-28-16.2-13.3-1.7-26.7 2.1-37.1 10.6-20.3 16.2-34.1 48.8-38.7 92-.5 4.4-4.4 7.6-8.8 7.1s-7.6-4.4-7.1-8.8c5.1-47.4 21-83.9 44.7-102.8 13.7-11.2 31.4-16.2 48.9-14 15.6 1.6 29.8 9.8 39 22.5 20.5 27.5 21.4 74.4 15.4 109.3-.7 3.9-4 6.7-7.9 6.7zm-139.2 167.1 13.5 2.2c5.5.9 9.2 6 8.3 11.5l-.3 1.8c-.9 5.5-6 9.2-11.5 8.3l-13.5-2.2c-5.5-.9-9.2-6-8.3-11.5l.3-1.8c.8-5.4 6-9.2 11.5-8.3zm93.3 8.9 13.6 1.5c5.5.6 9.5 5.6 8.8 11.1l-.2 1.8c-.6 5.5-5.6 9.5-11.1 8.8l-13.6-1.5c-5.5-.6-9.5-5.6-8.8-11.1l.2-1.8c.6-5.4 5.6-9.4 11.1-8.8z" fill="#21a0aa"/><ellipse cx="683.8" cy="856.6" fill="#fff" rx="15.3" ry="12.8" transform="matrix(.3336 -.9427 .9427 .3336 -351.8816 1215.4399)"/><path d="M836.4 554.4c-14.7 13.6-37.6 42.3-62.5 92.9-23.7 47.9 24.5 1.7 24.5 1.7z" fill="#b0dcf7"/><path d="m836.4 554.4-21.5 54 29.3-6.1c-.1 0-14.2-19.3-7.8-47.9z" fill="#fff"/></svg></g><g transform="translate(284.4 571.1999999999999) rotate(0.0 145.2 193.2) scale(1.6303615540085334 1.620941354140448)"><svg width="178.12" height="238.38" viewBox="0 0 178.12 238.38"><rect fill="#66b0f0" height="193.66" rx="6.56" transform="matrix(.96437297 .26454637 -.26454637 .96437297 37.46 -17.24)" width="121.53" x="21.95" y="33.59"/><path d="m43.028 81.57 98.761 27.092-20.177 73.553-98.761-27.093z" fill="#fff"/><rect fill="#f94f46" height="41.61" rx="3.18" transform="matrix(.96437297 .26454637 -.26454637 .96437297 13.7 -27.33)" width="134.88" x="40.86" y="16.38"/><path d="m91.22 126.82 4.84-17.63-13.98-3.84-4.84 17.64-17.63-4.84-3.84 13.98 17.64 4.84-4.84 17.63 13.98 3.84 4.84-17.64 17.63 4.84 3.84-13.98z" fill="#f94f46"/><g fill="#fff"><path d="m77.81 50.392 11-40.13 4.823 1.322-11.001 40.13zm69.428 19.047 11-40.13 4.823 1.322-11.001 40.13zM48.442 42.326l11-40.13 4.823 1.323-11.001 40.129zm68.087 18.681 11-40.13 4.822 1.323-11 40.13z"/></g></svg></g><g transform="translate(451.2 1812.0) rotate(0.0 479.4 474.5999999999999) scale(1.6205800824825907 1.6205972238821256)"><svg width="591.64" height="585.71" viewBox="0 0 591.64 585.71"><path d="M316.31 103h-24.48a9 9 0 0 0 8.74-11.25L280.92 13c-1.47-6.62.74-13 9.58-13 7.89 0 12.58 5.35 14.52 13l20 78.73a9 9 0 0 1-8.71 11.27z" fill="#9b3c82"/><path d="M443.11 44.47h-398a22 22 0 0 0-21.29 27.45l126.5 497.2a22 22 0 0 0 21.34 16.59h398A22 22 0 0 0 591 558.26L464.45 61.06a22 22 0 0 0-21.34-16.59z" fill="#9b3c82"/><path d="M420 44.47H22A22 22 0 0 0 .69 71.92l126.5 497.2a22 22 0 0 0 21.34 16.59h398a22 22 0 0 0 21.34-27.45L441.32 61.06A22 22 0 0 0 420 44.47z" fill="#21a0aa"/><path d="M261.85 0H143a19.79 19.79 0 0 0-19.2 24.67L142 96.18a9 9 0 0 0 8.74 6.8h141.1a9 9 0 0 0 8.75-11.25L280.92 13c-1.46-6.62.75-13 9.58-13z" fill="#ffcf2d"/></svg></g><g transform="translate(920.4 2248.7999999999997) rotate(0.0 265.8 201.60000000000014) scale(1.6160510715914274 1.6144790582205504)"><svg width="328.95" height="249.74" viewBox="0 0 328.95 249.74"><path d="M60.37 36.84c22.46 3.57 58.54 11.08 78.5 17.57C92.81 35.91 29.44 3 70 .42 123-3 167 15.66 244 20.1a650.11 650.11 0 0 0 70.14.3c25.72-1.1 17.18 237.38-20.07 229.13-44-9.75-81.06-20-110.06-28.68-40.14-12-83.85-30.2-114.73-51.11-51.8-35.1-51.3-57 22.34-31.82-3.07-1.63-147.38-77.51-67.62-76.3 0 0-63.34-40.66 36.32-24.78Z" style="fill:#f4ada2"/><path d="M190.21 76.33a2.5 2.5 0 0 0 .57-4.93c-15.57-3.69-31.49-7.92-52.42-17.26l.51.27c-7.07-2.11-15.59-4.36-24.65-6.55 33 17.55 54.52 23.46 75.41 28.4a2.3 2.3 0 0 0 .58.07Zm.04 103.59a2.5 2.5 0 0 0 .39-5c-26.75-4.28-67.57-21.34-99-37-9.49-3.24-17.75-5.7-24.86-7.46 31.79 17.86 88.71 43.94 123.09 49.44a2.69 2.69 0 0 0 .38.02Zm.94-46.05a2.5 2.5 0 0 0 .42-5C132.2 118.66 53.24 81.36 23.83 61.62c-3.1 0-5.87 0-8.31.22 24.88 19.06 110 60.75 175.24 72a2.09 2.09 0 0 0 .43.03Z" style="fill:#9b3c82"/></svg></g><g transform="translate(427.2 873.6) rotate(0.0 61.20000000000002 103.19999999999999) scale(1.6023039664877605 1.5735305328962415)"><svg width="76.39" height="131.17" viewBox="0 0 76.39 131.17"><path d="M0 83.27c5.74-15.91 11.05-25 16.88-38.49C22.91 30.86 30 11.22 45.93 1.85 65.4-9.64 59.14 35.33 59.26 55.29c.13 23.35 11.1 54.61 17.13 75.88" style="fill:#f4ada2"/></svg></g></svg>