<svg xmlns="http://www.w3.org/2000/svg" viewBox="0 0 3000 3000" width="3000" height="3000"><g transform="translate(1303.0 448.0) rotate(0.0 700.5 598.0) scale(1.9805619367379395 1.977987447387353)"><svg width="707.375" height="604.655" viewBox="0 0 707.375 604.655"><path d="M405.048 0C238.077 0 102.72 135.357 102.72 302.328a303.781 303.781 0 0 0 5.819 59.3L0 435.484 127.9 423.3c46.662 106.752 153.2 181.352 277.151 181.352 166.971 0 302.327-135.357 302.327-302.327S572.019 0 405.048 0z" fill="#e7edec"/></svg></g><g transform="translate(292.0 861.0) rotate(0.0 577.0 897.0) scale(1.5194846919159202 1.52022818675927)"><svg width="759.468" height="1180.086" viewBox="0 0 759.468 1180.086"><linearGradient id="a" gradientUnits="userSpaceOnUse" x1="441.07" x2="535.407" y1="633.688" y2="633.688"><stop offset=".025" stop-color="#94dbef"/><stop offset=".548" stop-color="#72bee0"/></linearGradient><linearGradient xmlns:xlink="http://www.w3.org/1999/xlink" id="f" x1="437.006" x2="542.596" xlink:href="#a" y1="700.543" y2="700.543"/><linearGradient xmlns:xlink="http://www.w3.org/1999/xlink" id="g" x1="428.085" x2="544.375" xlink:href="#a" y1="793.899" y2="793.899"/><linearGradient id="h" gradientUnits="userSpaceOnUse" x1="419.64" x2="542.697" y1="864.433" y2="864.433"><stop offset=".025" stop-color="#94dbef"/><stop offset=".296" stop-color="#72bee0"/></linearGradient><linearGradient id="i" gradientUnits="userSpaceOnUse" x1="407.017" x2="538.58" y1="917.676" y2="917.676"><stop offset=".037" stop-color="#94dbef"/><stop offset=".352" stop-color="#72bee0"/></linearGradient><linearGradient id="j" gradientUnits="userSpaceOnUse" x1="392.45" x2="532.755" y1="965.746" y2="965.746"><stop offset=".296" stop-color="#72bee0"/><stop offset="1" stop-color="#94dbef"/></linearGradient><linearGradient id="k" gradientUnits="userSpaceOnUse" x1="369.621" x2="522.577" y1="1016.497" y2="1016.497"><stop offset=".296" stop-color="#72bee0"/><stop offset=".768" stop-color="#94dbef"/></linearGradient><linearGradient id="l" gradientUnits="userSpaceOnUse" x1="341.749" x2="511.865" y1="1108.162" y2="1108.162"><stop offset=".454" stop-color="#72bee0"/><stop offset=".768" stop-color="#94dbef"/></linearGradient><linearGradient xmlns:xlink="http://www.w3.org/1999/xlink" id="m" x1="218.776" x2="311.603" xlink:href="#a" y1="665.618" y2="563.09"/><linearGradient id="b" gradientUnits="userSpaceOnUse" x1="296.647" x2="248.71" y1="766.793" y2="649.663"><stop offset=".267" stop-color="#94dbef"/><stop offset=".701" stop-color="#72bee0"/></linearGradient><linearGradient xmlns:xlink="http://www.w3.org/1999/xlink" id="n" x1="320.399" x2="209.022" xlink:href="#b" y1="831.395" y2="745.814"/><linearGradient id="c" gradientUnits="userSpaceOnUse" x1="369.622" x2="226.666" y1="860.255" y2="887.901"><stop offset=".553" stop-color="#94dbef"/><stop offset="1" stop-color="#72bee0"/></linearGradient><linearGradient xmlns:xlink="http://www.w3.org/1999/xlink" id="o" x1="354.722" x2="213.135" xlink:href="#c" y1="927.704" y2="977.933"/><linearGradient xmlns:xlink="http://www.w3.org/1999/xlink" id="p" x1="366.967" x2="215.96" xlink:href="#c" y1="1009.684" y2="1062.988"/><linearGradient id="q" gradientUnits="userSpaceOnUse" x1="236.801" x2="398.448" y1="1121.707" y2="1121.707"><stop offset=".208" stop-color="#72bee0"/><stop offset=".9" stop-color="#94dbef"/></linearGradient><linearGradient id="d" gradientUnits="userSpaceOnUse" x1="248.32" x2="275.156" y1="555.261" y2="505.828"><stop offset=".14" stop-color="#94dbef"/><stop offset=".701" stop-color="#72bee0"/></linearGradient><linearGradient xmlns:xlink="http://www.w3.org/1999/xlink" id="r" x1="328.196" x2="333.516" xlink:href="#d" y1="610.689" y2="566.506"/><linearGradient xmlns:xlink="http://www.w3.org/1999/xlink" id="s" x1="388.049" x2="386.719" xlink:href="#d" y1="623.928" y2="578.702"/><linearGradient xmlns:xlink="http://www.w3.org/1999/xlink" id="t" x1="491.608" x2="454.877" xlink:href="#d" y1="617.916" y2="559.829"/><linearGradient id="u" gradientUnits="userSpaceOnUse" x1="217.496" x2="293.605" y1="461.585" y2="392.753"><stop offset=".425" stop-color="#94dbef"/><stop offset=".701" stop-color="#72bee0"/></linearGradient><linearGradient id="e" gradientUnits="userSpaceOnUse" x1="303.426" x2="324.149" y1="498.985" y2="466.246"><stop offset="0" stop-color="#94dbef"/><stop offset=".701" stop-color="#72bee0"/></linearGradient><linearGradient xmlns:xlink="http://www.w3.org/1999/xlink" id="v" x1="372.098" x2="364.152" xlink:href="#e" y1="514.995" y2="472.758"/><linearGradient xmlns:xlink="http://www.w3.org/1999/xlink" id="w" x1="440.855" x2="414.054" xlink:href="#e" y1="516.98" y2="447.736"/><linearGradient id="x" gradientUnits="userSpaceOnUse" x1="523.247" x2="404.631" y1="469.644" y2="427.596"><stop offset="0" stop-color="#94dbef"/><stop offset=".44" stop-color="#72bee0"/></linearGradient><linearGradient id="y" gradientUnits="userSpaceOnUse" x1="313.066" x2="386.256" y1="278.736" y2="278.736"><stop offset=".382" stop-color="#f89578"/><stop offset=".994" stop-color="#fdb899"/></linearGradient><linearGradient id="z" gradientUnits="userSpaceOnUse" x1="460.749" x2="509.423" y1="282.769" y2="282.769"><stop offset=".197" stop-color="#fdb899"/><stop offset=".724" stop-color="#f89578"/></linearGradient><path d="m600.219 195.657-33.628 265.064 32.17 5.307 34.947-266.383z"/><path d="m599.19 466.605-33.155-5.47 33.75-266.035 34.484 4.107-.065.5zm-32.042-6.3 31.185 5.146 34.813-265.369-32.494-3.87z"/><path d="M311.241 442.639C300.593 444.175 31.348 569.706 5.956 665.5-8.55 720.231-2.183 1087.428 89.7 1154.752c33.254 24.367 70.912 30.387 101.441 16.653 25.441-11.445 50.363-60.339 73.95-81.93 64-58.587 135.738-58.994 261.767-38.9 90.992 14.506 134.973 10.933 213.634-148.356 52.744-106.819-21.83-182.169-36.93-222.209-46.498-123.31-39.089-112.351-62.639-131.21-95.63-76.6-221.837-121.711-329.682-106.161z" fill="#e8eeed"/><path d="M26.243 654.244c4.036.527 112.96 67.964 141.1 116.707-8.225 2.445-15.111 5.907-20.44 10.55-15.477-39.277-122.727-127.527-120.66-127.257zM228.008 482.15c-42.865 19.7-12.955 52.4-5.934 48.793-22.455 14.714-39.494 173.4-1.978 241.986z" fill="#cfd9da"/><path d="M459.445 666.772c-20.779 35.269-66.718 123.13-78.464 197.809-7.883 50.118.863 98.3 4.615 131.213 36.265-86.376 52.969-231.217 73.849-329.022z" fill="#bbc2c3"/><path d="M506.919 503.25c67.922 121.334 62.269 221.352 54.068 234.733-.027.045-.18.594.009.733.708.52 5.312-4.635 7.244-7.327 6.412-8.931 117.49-76.814 148.357-26.374 79.037 129.155 33.627 182.644-15.166 268.361-15.824 22.418-52.26 86.1-119.344 82.42-29.012 1.319-90.993-10.549-90.993-10.549 23.737.659-19.939-253.025 15.825-541.997z" fill="#dde4e4"/><path d="M134.379 931.177c-26.413-2.418-63.959 13.846-79.124 30.99-23.582 26.657-29.807 58.721-25.715 72.53 10.55 35.605 24.4 91.651 59.343 119.344 11.445 9.071 46.607 32.88 92.97 20.441 27.034-7.253 57.589-51.488 59.343-59.343 32.968-147.697-34.256-177.32-106.817-183.962z" fill="#cfd9da"/><path d="m538.569 815.788 5.934-36.265s-2.587 95.562 26.374 142.423c19.91 32.213 53.116 55.059 88.355 47.474 44.985-9.684 71.211-48.134 71.211-48.134-82.42 183.3-172.753 128.576-237.929 124.721l.559-.1z" fill="#bbc2c3"/><path d="M135.038 1175.8s35.886 10.043 61.321-7.253c16.484-11.209 46.675-49.658 50.771-60.661 18.421-49.48-13.578-100.062-14.506-100.223-10.722 90.844-33.966 125.1-54.068 139.125-5.503 3.84-43.478 28.986-43.518 29.012z" fill="#bac2c3"/><path d="M442.631 661.167s-.841 169.954-52.749 305.286c-16.791 43.776-48.133 141.763-48.133 141.763l10.549 1.978a85.418 85.418 0 0 0 3.3 28.352c6.594-.659 9.231 3.957 13.187 5.935 3.008 1.5-6.489-20.092-3.3-34.287 11.05.142 21.585.784 32.968 6.593a57.948 57.948 0 0 0-1.978 24.4c3.486-1.127 7.934 2.945 11.868 6.594-1.764-6.279-1.37-17.531 4.616-30.331 6.823-3.717 14.547-4.721 23.078-3.3 2.707 15.465-2.554 23.99-5.275 36.265 4.631-.062 7.924 7.2 11.209 9.89 7.281-13.678 10.357-29.339 11.868-44.836 7.462-2.513 15.7-3.141 24.4-2.638-3.282 12.446-2.605 34.718-.66 43.518 2.3-3.292 4.047-5.5 11.21-3.956-1.5-15.686-1.574-29.728 3.3-40.88l11.869-2.638a1358.423 1358.423 0 0 0 40.221-320.451 1354.815 1354.815 0 0 0-17.143-222.2z" fill="#c3ebf6"/><path d="m535.407 627.163-8.377-60.944-84.4 94.948-1.561 39.991c39.331-9.736 60.9-30.17 94.338-73.995z" fill="url(#a)"/><path d="M537.82 649.947c-48.321 60.4-73.6 77.811-97.882 68.054l-2.932 33.137c32.5-.5 55.446-9.428 105.59-35.744-1.241-23.175-2.789-45.163-4.776-65.447z" fill="url(#f)"/><path d="m433.747 779.523-5.662 39.17c37.584 20.44 65.92 14.782 115.63-1.655.757-21.076.9-41.493.245-61.068-48.225 28.162-80.834 44.111-110.213 23.553z" fill="url(#g)"/><path d="m423.264 845.586-3.624 17.879c34.953 19.3 66.928 26.558 121 15.632.944-9.159 1.558-22.957 2.062-34.431-40.945 14.788-75.636 16.02-119.438.92z" fill="url(#h)"/><path d="m412.792 893-5.775 21.6c67.466 32.19 101.192 34.464 128.816 16.617.962-7.739 1.868-17.04 2.747-27.069-29.899 16.644-68.004 11.209-125.788-11.148z" fill="url(#i)"/><path d="m400.383 936.511-7.933 23.107c78.717 29.3 114.853 38.65 134.886 34.382q2.958-18.577 5.419-37.385c-28.64 14.535-69.244 5.594-132.372-20.104z" fill="url(#j)"/><path d="M369.621 1023.661c23.124 1.085 103.634 34.479 149.13 18.655 1.368-6.436 2.639-13.218 3.826-20.3-36.368-2.042-98.326-6.086-140.056-35.586z" fill="url(#k)"/><path d="M503.952 1108.846q4.036-16.238 7.913-33.642c-58.282 5.77-109.826 2.241-153.117-19.157-9.565 28.9-17 52.14-17 52.14l10.549 1.978a85.418 85.418 0 0 0 3.3 28.352c6.594-.659 9.231 3.957 13.187 5.935 3.008 1.5-6.489-20.092-3.3-34.287 11.05.142 21.585.784 32.968 6.593a57.948 57.948 0 0 0-1.978 24.4c3.486-1.127 7.934 2.945 11.868 6.594-1.764-6.279-1.37-17.531 4.616-30.331 6.823-3.717 14.547-4.721 23.078-3.3 2.707 15.465-2.554 23.99-5.275 36.265 4.631-.062 7.924 7.2 11.209 9.89 7.281-13.678 10.357-29.339 11.868-44.836 7.462-2.513 15.7-3.141 24.4-2.638-3.282 12.446-2.605 34.718-.66 43.518 2.3-3.292 4.047-5.5 11.21-3.956-1.5-15.686-1.574-29.728 3.3-40.88z" fill="url(#l)"/><path d="M229.327 508.525a1263.841 1263.841 0 0 0-15.295 182.4c-1 87.562 7.542 136.928 14.965 243.221 3.795 54.334 8.052 134.327 8.242 233.085l12.528-8.572a44.564 44.564 0 0 0 6.264 21.429c1.7-1.44 6.895-1.872 7.583-.329 0 0-4.6-17.38-2.638-27.694l14.506-6.593c1.948 7.307 11.539 16.154 11.539 16.154.762.623 6-1.47 8.572-1.319a33.589 33.589 0 0 1-6.141-10.764 26.974 26.974 0 0 1-1.442-10.665l14.506-8.572c-.927.585 5.063 18.087 12.528 23.737.849-.888 10.22-2.307 10.88-1.648-3.859-3.859-9.675-25.736-8.242-27.364l10.55-5.274c2.673 13.585 14.835 22.088 18.462 23.077.007-1.421 1.957-2.38 4.615-3.3-7.3-6.369-11.8-14.3-11.209-25.055l58.024-18.463c-3.789-122.841-22.431-201-39.891-250.887-7.588-21.679-16.745-58.962-21.1-108.795-3.91-44.746-4.988-100.742-4.945-103.85z" fill="#c3ebf6"/><path d="m333.81 684-1.622-51.517-102.861-123.958A1008.122 1008.122 0 0 0 216.959 618.9c27.694 40.877 55.06 35.06 116.851 65.1z" fill="url(#m)"/><path d="M335.147 709.2c-46.944-2.75-82.225-16.334-120.5-45.858-.695 17-.782 34.71-.695 53.064 30.99 30.331 73.345 22.648 123.736 25.95z" fill="url(#b)"/><path d="m352.262 825.678-10.678-51.29c-45.661 17.982-79.789 1.063-126.551-20.518l5.192 73.837c40.387-9.745 59.723-16.681 132.037-2.029z" fill="url(#n)"/><path d="M369.3 880.656q-4.475-16.72-10.594-34.174c-31.306 17.709-73.164 17.46-135.252 17.158l3.793 46.61C294.5 906.294 348.2 876.04 369.3 880.656z" fill="url(#c)"/><path d="M378.17 917c-77.405 25-125.487 35.951-148.657 24.651l3.117 52.236c22.926 2.6 124.545-36.1 150.919-49.292-.92-6.681-3.033-16.801-5.379-27.595z" fill="url(#o)"/><path d="M394 1025.337c-1.572-18.024-3.174-35.293-5.041-45.7-75.459 34.8-125.256 54.06-154.6 51.656l1.557 45.68c43.352-6.393 118.784-55.181 158.084-51.636z" fill="url(#p)"/><path d="m237.239 1167.229 12.528-8.572a44.564 44.564 0 0 0 6.264 21.429c1.7-1.44 6.895-1.872 7.583-.329 0 0-4.6-17.38-2.638-27.694l14.506-6.593c1.948 7.307 11.539 16.154 11.539 16.154.762.623 6-1.47 8.572-1.319a33.589 33.589 0 0 1-6.141-10.764 26.974 26.974 0 0 1-1.442-10.665l14.506-8.572c-.927.585 5.063 18.087 12.528 23.737.849-.888 10.22-2.307 10.88-1.648-3.859-3.859-9.675-25.736-8.242-27.364l10.55-5.274c2.673 13.585 14.835 22.088 18.462 23.077.007-1.421 1.957-2.38 4.615-3.3-7.3-6.369-11.8-14.3-11.209-25.055 19.341-6.154 39.007-12.14 58.348-18.294-.347-11.269-1.145-22.327-1.73-32.857-118.69 27.39-157.272 49.675-159.917 54.486q.377 23.836.438 49.417z" fill="url(#q)"/><path d="M233.283 474.9c-19.91-18.316-21.759 34.946-5.275 71.871 44.579 99.856 149.462 185.1 215.612 149.016 14.506-7.913 29.672-21.759 46.156-43.518 22.953-30.3 44.177-60 44.177-112.092 0-21.151-16.484-70.552-20.44-52.09-19.434 90.686-182.633 76.593-280.23-13.187z" fill="#c3ebf6"/><path d="M234.362 560.107c4.77 10.2 12.988 24.214 22.84 38.3 5.188-52.789 7.047-76.939 31.186-84.059l-30.4-19.283c-19.536-1.949-12.602 18.486-23.626 65.042z" fill="url(#d)"/><path d="M328.124 532.641c-26.616 47.255-29.485 81.143-16.772 126.432 7.293 7.56 19.716 15.845 33 24.25-17.549-52.316-23.742-71.332 6.589-143.2z" fill="url(#r)"/><path d="M371.726 545.105c11.191 69.341 16.14 116.724-7.427 148.608 10 4.773 26.444 9.673 39.1 10.3 15.805-41.933 12.678-87.557.721-154.769a252.726 252.726 0 0 1-32.394-4.139z" fill="url(#s)"/><path d="M482.722 532.6c-11.382 6-23.321 11.485-38.065 14.382 40.932 35.627 43.379 69.809 31.58 121.732 13.15-15.011 25.03-30.237 34.315-45.9 10.776-42.506-7.594-63.991-27.83-90.214z" fill="url(#t)"/><path d="M457.467 404.345c-109.556 0-151.654-36.924-189.9-25.715-36.331 10.649-72.53 69.233-34.287 104.179 8.667 7.92 42.488 27.614 71.211 47.475 39.131 27.056 87.7 65.277 110.114 61.98 60.6-8.912 103.52-75.055 103.52-127.257.003-29.672-27.69-60.662-60.658-60.662z" fill="#c3ebf6"/><path d="M308.077 391.4s10.594-21.672-31.605-21.013c-42.848.669-80.575 70.349-59.343 102.2 1.575 2.363 27.307 18.462 27.307 18.462-7.731-63 2.725-102.049 63.641-99.649z" fill="url(#u)"/><path d="M310.881 439.061c-33.007 28.215-24.437 45.006-23.864 79.5l27.876 19c-8.479-33.345-15.851-47.7 10.976-80.175-8.569-4.949-14.648-10.708-14.988-18.325z" fill="url(#e)"/><path d="M357.923 464.8c15.961 48.722 12.3 71.18-7.1 97.991 6.062 4.256 13.114 8.752 20.656 13.367 24.435-36 28.445-66.132 20.782-114.858a113.737 113.737 0 0 1-34.338 3.5z" fill="url(#v)"/><path d="m407.726 441.531-.371 10.948c50.73 38.277 55.377 70.759 17.474 137.707 10.193-2.074 31.807-12.33 39.062-19.7 31.453-96.424-.491-113.224-56.165-128.955z" fill="url(#w)"/><path d="M462.412 396.1c-18.971-3-58.683 17.8-58.683 17.8 52.978 8.095 114.545 4.3 102.2 102.861 0 0 22.65-34.589 23.078-37.584 5.301-37.139-27.138-76.834-66.595-83.077z" fill="url(#x)"/><path d="M289 763.369c-2.637 4.615 1.979 22.418 11.21 27.693 4.615 2.637 72.147-28.277 100.553-46.485 12.857-8.242 12.335-10.037 19.451-15.5 48.133-36.925 90.306-59.3 91.028-60.082 1.347-1.452.141-4.435-2.344-3.547-3.166 1.131-40.7 23.715-101.212 41.87-6.594 1.978-7.912 0-24.067 6.923-80.919 34.684-93.463 47.104-94.619 49.128z" fill="#fffbf8"/><path d="M496.069 672.08a6.142 6.142 0 0 0 1.982 4.617l13.441-7.706c1.584-1.619-.588-4.726-2.721-3.768zM306.8 750.827c4.616 11.842 9.287 20.28 16.446 32.892 0 0-18.447 10.96-22.373 8.662s-15.075-24.617-12.886-30.283c.276-3.182 18.813-11.271 18.813-11.271z" fill="#50808d"/><rect fill="#c8bbb2" height="12.528" rx="4.91" transform="matrix(.88420625 -.46709668 .46709668 .88420625 -307.044 254.897)" width="29.354" x="345.914" y="740.476"/><path d="M326.006 770.169c-3.051 0-5.631-1.266-6.76-3.621-1.8-3.752.864-8.648 6.067-11.144s10.688-1.511 12.49 2.242c1.8 3.752-.865 8.648-6.067 11.145a13.394 13.394 0 0 1-5.73 1.378zm5.048-13.129a10.463 10.463 0 0 0-4.444 1.069c-3.562 1.71-5.7 4.981-4.659 7.143s4.922 2.545 8.487.835 5.7-4.981 4.66-7.143c-.598-1.244-2.153-1.904-4.044-1.904z" fill="#c8bcb2"/><path d="M640.77 207.2c-5.613-1.116-15.486 8.85-19.515 19.139-2.9 9.214-.948 23.52.393 27.017-1.264-2.073-7.567 47.855-3.956 62.639 0 0-16.484 1.319-41.54 3.957-7.253 1.318-19.083 10.944-20.44 12.527-7.912 9.232-11.443 19.34-8.572 21.759 7.91 5.274 23.734-9.891 23.734-9.891s-29.976 27.474-27.693 32.968c3.271 7.873 20.44 3.3 20.44 3.3s-13.747 16.214-13.187 19.781c9.231 12.528 34.287-4.616 36.924-6.594l17.8 3.956c2.623 6.035-21.757 41.2-28.352 69.234-4.951 21.045 9.89 42.858 9.89 42.858-2.271 70.169-6.667 126.562-10.055 163.6-15.351 167.88-18.216 234.905 17.314 261.683 13.847 11.209 60.662 16.484 83.08-2.638 81.934-69.813-30.99-376.5-29.671-405.508 1.572-34.588 12.178-93.014 16.914-107.557.5-1.523.872-2.518 1.548-4.535 7.807-23.29 7.946-30.178 7.744-34.076a46.852 46.852 0 0 0-1.151-8.123s6.7-11.717 5.275-17.8c-1.062-4.543-5.934-9.231-5.934-9.231 1.918-4.754 4.038-12.05.659-17.144-4.249-6.406-19.781-6.593-19.781-6.593S646.7 209.833 640.77 207.2z" fill="#ffb493"/><g fill="#f79173"><path d="M547.8 353.574c-.046-1.711 27.175-23.889 28.352-22.418 58.737 1.388 85.7 8.227 85.718 9.89s-29.589-1.653-88.355.66c-8.055 8.947-15.407 11.839-19.122 13.187-1.954.707-6.533.929-6.593-1.319zm15.824 27.034c0-2.307 21.1-21.1 21.1-21.1s74.31 2.408 73.849 5.275c-.4 2.483-75.827 5.275-75.827 5.275-3.877.533-19.122 11.869-19.122 10.55zm24.233 13.297a.124.124 0 0 1-.008-.242c3.346-.891 22.973-5.844 29.184-1.186 2.637 1.978-25.6 37.645-25.6 37.645s13.624-27.6 13.726-32.371zm29.835-77.915 34.946 5.935S648.023 207.2 640.77 207.2c-7.392-.859-16.414 10.3-19.781 19.781-3.379 9.517.659 26.375.659 26.375-1.218.017-7.968 34.954-3.956 62.634zm35.881 156.266s-22.034 21.861-22.034 48.8c0 9.232 23.078 40.881 23.078 40.881l-7.253-33.637s4.076-36.827 6.209-56.044zm-38.918 386.823c26.4 31.79 57.826 47.445 76.886 54.954 0 0-9.577 24-32.309 29.012-44.837 9.891-66.767-6.942-72.53-14.506-10.55-13.846-22.689-32.378-21.1-100.223 1.626-69.391 9.629-139.271 9.629-139.271s-9.77 93.823 39.424 170.034z"/></g><path d="M138.357 794.079c-.708 5.809 2.2 11.136 5.253 15.115-10.089 11.517-12.073 23.562-3.956 36.265-7.635 10.125-7.787 19.608.659 28.353-5.519 3.5-7.253 26.375 6.594 31.649 6.593 21.1-48.138 51.31-58.684 77.146-9.89 32.968 24.794 51.126 27.693 53.408 33.019 25.988 85.554 19.154 102.2-4.615 15.314-21.864 10.55-75.827 10.55-75.827s22.894-20.218 25.055-37.584c1.975-15.868-4.615-30.33-4.615-30.33 55.386-25.716 73.189-44.837 65.936-61.981 1.8-.876 18.462-14.506 7.913-28.352 4.546-17.963-2.308-26.436-29.012-28.353-1.762-.126 1.978-5.934-1.319-9.89-14.108-16.93-87.736.805-96.927 3.3-26.108 7.076-55.344 15.326-57.34 31.696z" fill="#ffb493"/><path d="m293.945 768.974-118.026 32.308s126.569-29.539 130.611-30.609c0-.687-13.452-1.938-12.585-1.699zm30.243 21.138c0-1.319-148.269 42.819-148.269 42.819l147.038-35.605s1.231-5.896 1.231-7.214zm-9.144 35.566-142.422 34.947S316 832.906 316.363 830.294a20.167 20.167 0 0 0-1.319-4.616zm-168.137 79.783 12.527 28.353s-28.68 9.308-40.221 24.4c-19.326 25.268 15.166 88.354 15.166 88.354-39.838-16.575-50.855-40.92-47.475-58.683 2.007-10.544 8.523-19.522 30.331-39.562 24.397-22.423 31.865-33.223 29.672-42.862zm102.201-17.802c-12.509 7.256-31.17 12.364-50.771 17.143 20.863 6.073 40.039 10.466 55.694 9.563 0-9.231-1.508-20.119-4.923-26.706zm-11.74 58.826c-16.208 4.291-33.95 2.742-51.559-2.121 12.717 11.28 27.2 14.052 42.859 11.209a54.879 54.879 0 0 0 8.841-8.837c1.02-1.262.008-.291-.141-.251z" fill="#f79173"/><path d="m307.791 386.542 3.3 56.046c10.55 29.012 84.4 27.034 96.267 9.891l1.319-38.9c-37.508 6.679-70.372-5.422-100.886-27.037z" fill="#ffb493"/><path d="M307.791 386.542s1.243 41.187 2.638 42.2c69.892 50.771 96.926 23.737 96.926 23.737l1.319-38.9c-30.99 3.294-63.036.104-100.883-27.037z" fill="#f89578"/><path d="M189.436 262.252c-6.924 18.792 12.813 53.714 33.627 60.662 14.78 4.934 28.058-1.961 27.034-3.3 7.223 14.715 23.961 45.552 57.694 68.244 15.033 10.116 48.968 32.342 95.609 27.042 8.908-1.013 55.907-6.933 85.388-47.8 36.312-50.35 14.482-110.294 12.527-115.4 4.071-11.364 19.756-59.138-3.627-107.146C461.078 69.39 365.7 69.616 360.211 69.718c-9.655.18-100.43 3.309-130.554 74.508C207.641 196.261 244.916 261.1 238.228 255c-17.191-15.689-40.55-12.858-48.792 7.252z" fill="#ffb493"/><path d="M415.268 281.044c-3.822-6.7 16.78-30.685 28.352-27.034a11.359 11.359 0 0 1 7.253 9.231c.537 5.566-4.336 9.874-6.593 11.869-9.614 8.497-26.248 10.783-29.012 5.934zm-31.65 42.199c4.766-3.812 47.474-19.781 59.343-15.165 1.85.72 3.459 7.094 1.319 7.253-35.606 2.637-63.959 10.55-60.662 7.912zm-144.194-67.635c36.265-58.683 117.16-97.206 251.011-124.239-2.665.538-39.562-75.168-159.566-58.684-54.062 7.678-108.136 49.449-108.136 105.5 0 44.176 16.691 77.423 16.691 77.423z" fill="#f79173"/><circle cx="349.661" cy="278.736" fill="url(#y)" r="36.595"/><path d="M509.263 301.6s-8.082 10.383-19.616 10.8c-13.922.506-27.991-12.462-28.849-28.136-.9-16.362 10.567-30.294 25.6-31.118 8.794-.482 17.372 5.565 17.372 5.565 4.062 15.357 6.288 29.841 5.493 42.889z" fill="url(#z)"/><circle cx="367.464" cy="220.712" fill="#020202" r="13.517"/><circle cx="473.621" cy="222.69" fill="#020202" r="11.539"/><path d="M334 201.689c-.422 2.041 2.584 5.006 5.858 4.619 11.805-1.395 43.289-15.739 45.021-17.935 5.83-7.395-48.734 2.948-50.879 13.316zm128.524-14.834c-3.94-.357-7.977 1.7-2.163 5.2 14.779 8.91 32.27 20.278 34.905 20.371 4.643.165 4.211-7.108 1.692-10.5-6.12-8.226-26.078-14.315-34.434-15.071z" fill="#bc7f63"/><path d="M530 99.06c12.356-22.919.921-38.7-31.65-48.134-10.006-20.85-31.925-24.921-61.32-18.462-17.8-24.473-47.491-30.407-90.333-15.825C313.066-15.669 265.8 1.187 245.811 48.948c-32.572 10.886-44.144 27.626-42.2 48.134-31.521-.651-44.261 19.825-38.9 60.661-29.012 5.275-23.077 40.221-15.824 42.859-2.159 12.938 2.108 21.657 16.484 23.737-13.464 25.277-5.9 41.924 22.418 45.5 1.319-12.528 17.347-32.83 40.8-21.6a27.843 27.843 0 0 1 13.318 13.688c10.1 22.4 13.135 34.287 13.135 34.287s21.705-56.558.66-75.167c16.886-9.676 23.929-31.782 25.715-61.98 26.137 7.365 46.427 2.123 58.683-20.44 18.913 9.819 39.914 4.8 63.3-17.144 15.275 39.442 37.732 55.049 70.552 36.265C508.437 189.684 565.6 155.106 530 99.06zm-373.2 98.9s-8.455-12.8-3.3-23.077c2.9-5.77 11.869-9.891 11.869-9.891-9.069 9.332-11.06 20.553-8.569 32.972zm11.206 48.14a20.1 20.1 0 0 1 6.594-21.759c-1.359 15.153 1.373 28.489 7.253 34.287 0-.002-11.125-4.413-13.847-12.528zM275.482 23.892c6.645-11.716 18.962-18.628 31.65-17.8 12.11.787 23.737 13.187 23.737 13.187-9.069-6.901-38.332-12.223-55.387 4.613zM484.5 61.476c.067-11.5-11.939-18.13-36.265-19.781 0 0 38.071-1.794 40.88 9.891.885 3.658-4.615 9.89-4.615 9.89zm30.33 96.267c15.269-9.7 19.811-24.792 9.232-47.474 0 0 12.744 13.59 9.89 27.034-2.738 12.897-19.121 20.44-19.121 20.44zM231.305 324.562c5.415 14.789 16.432 23.693 32.968 19.781-5.047-8.5-10.607-17.777-13.846-25.056-5.315 4.602-11.969 5.613-19.122 5.275z" fill="#bc7f63"/></svg></g><g transform="translate(1534.0 467.0) rotate(0.0 136.0 136.0) scale(1.0074074074074073 1.0074074074074073)"><svg width="270" height="270" viewBox="0 0 270 270"><path d="M270 103H167V0h-64v103H0v64h103v103h64V167h103z" fill="#ff5454"/></svg></g><g transform="translate(1017.0 601.0) rotate(0.0 203.0 123.0) scale(1.015 1.0123456790123457)"><svg width="400" height="243" viewBox="0 0 400 243"><g fill="#bbc3c4"><path d="M200.008 118.251a19.5 19.5 0 0 1-9.422-2.437C172.758 105.994 126.78 80.621 85 57.192 5.154 12.416 3.906 10.322 3 8.792l6.007-3.583a2.406 2.406 0 0 0-.36-.477C13.041 8.9 85.783 50.091 193.964 109.683a12.476 12.476 0 0 0 12.079.006C312.93 50.949 384.865 10.165 389.3 5.789a2.243 2.243 0 0 0-.3.405l6 3.613c-.946 1.569-2.375 3.941-81.221 48.152-41.285 23.15-86.737 48.178-104.362 57.865a19.513 19.513 0 0 1-9.409 2.427z"/><path d="M382.341 243H17.659A17.679 17.679 0 0 1 0 225.341V17.659A17.679 17.679 0 0 1 17.659 0h364.682A17.679 17.679 0 0 1 400 17.659v207.682A17.678 17.678 0 0 1 382.341 243zM17.659 7A10.672 10.672 0 0 0 7 17.659v207.682A10.671 10.671 0 0 0 17.659 236h364.682A10.67 10.67 0 0 0 393 225.341V17.659A10.671 10.671 0 0 0 382.341 7z"/></g></svg></g><g transform="translate(1645.0 524.0) rotate(0.0 377.0 560.0) scale(0.9994644779189931 0.9992229257425698)"><svg width="754.404" height="1120.871" viewBox="0 0 754.404 1120.871"><linearGradient id="A" gradientUnits="userSpaceOnUse" x1="322.132" x2="522.132" y1="191.159" y2="191.159"><stop offset=".465" stop-color="#fff"/><stop offset=".935" stop-color="#4dc5bf"/><stop offset=".964" stop-color="#41c1bb"/></linearGradient><linearGradient xmlns:xlink="http://www.w3.org/1999/xlink" id="B" x1="321.006" x2="520.168" xlink:href="#A" y1="203.111" y2="203.111"/><linearGradient xmlns:xlink="http://www.w3.org/1999/xlink" id="C" x1="322.132" x2="522.773" xlink:href="#A" y1="221.064" y2="221.064"/><linearGradient xmlns:xlink="http://www.w3.org/1999/xlink" id="D" gradientTransform="matrix(.884 .079 .079 1.339 451.57 2601.734)" x1="19.623" x2="220.264" xlink:href="#A" y1="-1762.521" y2="-1762.521"/><linearGradient xmlns:xlink="http://www.w3.org/1999/xlink" id="E" gradientTransform="matrix(.794 .094 .094 1.337 460.435 2600.242)" x1="56.217" x2="256.857" xlink:href="#A" y1="-1746.563" y2="-1746.563"/><path d="M399.632 371.574c-84.69 12.178-158.5 38.5-168 48-58.713 58.713-88.5 216.5-110 255-58.153 104.134 64 276 64 276l-24.957 91.508c189 105 399.257 97.351 553.257 22.351l-41.3-324.859s37.5-2.5 67.5-48.5c5.967-9.15 19-31 12.5-56.5-4.89-19.184-51.5-191.5-58-198-22.948-22.948-44.931-35.177-60-43-82.479-42.816-165.921-31.933-235-22z" fill="#42c1bb"/><path d="M237.755 415.474c28.571 99.35 32.355 197.757 5.377 300.6l-15-11c24.068-85.384 28.327-180.335 9.623-289.6zm375.377 300.6q17.8 90.987 37.062 181.681c13.141 61.886 23.051 116.772 37.2 178.432l26.536-11.754-41.3-324.859s-21.465 7.972-37.5.5c-16.43-7.655-21.998-24-21.998-24zm20-4c.193 1.782.74 6.145 4 9 9.678 8.477 26.188-2.545 41-16 25.91-23.535 28.475-69.188 28-82-1.939-52.229-52-100-52-100-38.705 5.376-22.039 179.404-21 189zm11-213s21.8-43.056 34-50c0 0-34.475 11.142-37 35-.121 1.145 3 15 3 15z" fill="#30aea9"/><circle cx="346.132" cy="566.074" r="26"/><path d="M346.132 592.574a26.5 26.5 0 1 1 26.5-26.5 26.53 26.53 0 0 1-26.5 26.5zm0-52a25.5 25.5 0 1 0 25.5 25.5 25.529 25.529 0 0 0-25.5-25.5z"/><circle cx="334.132" cy="565.074" r="23"/><path d="M334.132 589.074a24 24 0 1 1 24-24 24.027 24.027 0 0 1-24 24zm0-46a22 22 0 1 0 22 22 22.025 22.025 0 0 0-22-22z" fill="#fff"/><path d="M522.132 508.659c25-49 43.5-117.5-19-165-26.532-20.163-82.055-21.377-119 8-83 66-44 190-44 190l9-1s-39-106 37-180c19.358-18.848 67.177-38.548 113-8 75 50 15 154 15 154s-22.867-5.818-42 8c-54 39-11 169-9 168-7.012 3.506-17.219 1.97-29-2l-2 6c11.437 5.514 24.583 6.456 39 4a80.169 80.169 0 0 0 45 16l-2-8c-13.479-.973-24.406-4.693-32-12 0 0 52-32.214 68-74 18-47 14-89-28-104zm9.779 118.741c-17.523 28.526-41.319 45.567-58.779 55.258-8.862-21.8-11.55-30.779-14-44-4.206-22.688-9.629-53.2-3.223-78.072 3.593-13.95 8.335-32.318 25-41.437 9.1-4.981 19.781-5.761 31.085-3.682 24.54 4.512 36.845 22.092 39.138 41.191 2.92 24.329-9.498 54.916-19.221 70.742z"/><path d="m445.272 596.528 8.126 1.412c3.962 30.052 8.594 59.5 20.234 82.634 0 0 40.048-16.724 66.679-70.052l10.713-.824c-11.636 34.291-40.755 64.717-67.865 77.241 3.042 2.65 6.094 4.614 12.945 7.27a50.256 50.256 0 0 0 19.528 3.365c.333 4.333 1.109 10.1 1.109 10.1-12.719.563-42.616-11.09-45.609-16.6.153 1.249-25.481 2.51-38.5-3.5l5-8c8.154 2.252 24.488 3.085 24.488 3.085-7.305-13.5-16.611-59.527-16.848-86.131z" fill="#fff"/><path d="M405.132 663.074c-4.943.989-10 11-7 14 7.071 7.071 25 12 33 11 5.019-.627 8.162-9.838 5-13-6-6-26-13-31-12z"/><path d="M428.818 688.705c-9.1 0-24.745-4.983-31.04-11.278-1.161-1.161-1.365-3.235-.576-5.84 1.178-3.892 4.43-8.323 7.832-9 5.4-1.084 25.427 6.112 31.451 12.136 1.549 1.549 1.852 4.581.773 7.726-1.168 3.406-3.549 5.81-6.065 6.124a19.2 19.2 0 0 1-2.375.132zm-23.589-25.141c-2.994.6-6 4.781-7.07 8.313-.668 2.2-.549 3.968.326 4.843 6.71 6.71 24.339 11.895 32.584 10.858 2.14-.268 4.2-2.409 5.243-5.456.956-2.786.746-5.414-.534-6.695-6.114-6.115-25.911-12.786-30.549-11.863zm111.806 30.181c7.825-3.282 28.987-2.188 33.236.631 4.2 2.786 5.09 13.968 1.178 15.608-9.222 3.867-27.683 1.641-34.708-2.314-4.408-2.481-3.83-12.2.294-13.925"/><path d="M538.618 712.463c-8.357 0-17.462-1.735-22.122-4.358-2.209-1.243-3.5-4.369-3.295-7.964.192-3.318 1.621-6.01 3.641-6.857 7.857-3.3 29.114-2.37 33.706.676 2.89 1.918 4.222 7.25 3.839 11.3-.256 2.711-1.231 4.553-2.745 5.188-3.348 1.401-8.054 2.015-13.024 2.015zm-21.39-18.257c-1.67.7-2.858 3.052-3.028 5.993-.187 3.217.907 5.977 2.786 7.035 7.25 4.08 25.52 5.959 34.27 2.289 1.14-.478 1.919-2.067 2.135-4.359.348-3.674-.852-8.683-3.4-10.37-3.942-2.616-24.791-3.932-32.767-.588z"/><path d="M427.632 311.574s13.781 43.27 0 62c-6.093 8.281-20 13-20 13 3.1 31.559 9.29 63.649 17 96 25.708-11.406 47.58-33.816 65-69-15.207-11.791-15.261-60.073-13-119-11.498 7.961-29.397 14.593-49 17z" fill="#f79173"/><path d="M578.632 160.574c5 19-11.706 45.027-28 51-10.617 3.892-22.645 2.45-23.923 1.3-.073-.065-.179-.067-.219.023-5.753 13.013-7.858 40.68-43.858 76.68-10.346 10.346-40.524 26.569-77 22-6.967-.873-44.9-7.56-67.221-43.228-31.779-50.772-13.624-85.356-8.779-102.772 1.184-4.256 3.289-8.775 2-13-5.257-17.226-11.388-41.159 4-74 28.632-64.734 99.044-66.42 103.336-66.332 7.551.154 59.1 3.014 82.664 64.332 17.218 44.813 7.86 96.1 10 89 8.468-28.084 38.883-35.848 47-5.003z" fill="#ffb493"/><path d="M327.132 136.074c16.313-25.269 73.453-60.987 163-105 2.069-1.254-27-19-51-19-92.132 0-123 88-112 124z" fill="#f79173"/><path d="m340.114 837.943-178.982-13.869L1.292 653.711a4.744 4.744 0 0 1 3.3-7.987l167.476-3.542a22.62 22.62 0 0 1 16.879 7.293l157.7 175.209a8.018 8.018 0 0 1-6.533 13.259z"/><ellipse cx="162.717" cy="668.511" fill="#fff" rx="7.565" ry="10.532" transform="matrix(.14919019 -.98880852 .98880852 .14919019 -522.589 729.674)"/><path d="M163.774 676.658a15.1 15.1 0 0 1-2.26-.172 13.322 13.322 0 0 1-7.308-3.438 7.141 7.141 0 0 1-2.4-6.182c.664-4.4 6.1-7.24 12.112-6.329s10.368 5.223 9.705 9.62a7.138 7.138 0 0 1-4.114 5.2 12.615 12.615 0 0 1-5.735 1.301zm-2.107-15.292c-4.576 0-8.364 2.3-8.87 5.648a6.171 6.171 0 0 0 2.107 5.318 13.123 13.123 0 0 0 14.15 2.135 6.172 6.172 0 0 0 3.582-4.459c.581-3.852-3.4-7.657-8.865-8.483a14.207 14.207 0 0 0-2.104-.159zm19.092-7.956.744-.669 161.999 180-.744.67z" fill="#fff"/><path d="m529.632 169.574-15.5 2.5c3.458-13.23-18.6-113.054-36.5-140.5 0 0-130.54 36.778-143 66-6.776 15.891-6 27-6 27 .721 10.328 4.665 14.57 5 26a55.381 55.381 0 0 1-4 22c-8.982 23.979-11.463 72.425 12.5 101.5 37.5 45.5 87.5 37.5 87.5 37.5s11.542 52.429-4.5 65.5c-27 22-58.5 7.5-58.5 7.5-42.5 28.5-75.167 3.832-84.5-9.5-26.736-38.193 9.633-88.4 20.227-194.463 8.286-82.949-.227-105.537 7.773-126.537 12-27 159-67 204-50 60.806 22.971 100.955 117.607 101.5 130.5 1.5 35.5-18.519 90.206 6.5 154.5 19.654 50.507 57.553 77.449 45.912 109.77-5.194 14.419-17.769 23.032-26.412 27.73-7.5 33.5-66.5 52.5-90 10 .805 9.834-63.212 11.565-72-39-6.752-38.845-5-102-5-102 29-47.311 52-82.995 52-83 5.808.988 13.319 3.046 22.342-1.027 27.467-12.4 34.2-53.6 22.658-62.973-9.023-7.32-29-9-42 21z"/><path d="M341.132 129.074c-2-4 21.243-18.756 36-6 1.97 1.7 6 9-4 6-15.145-4.543-32 0-32 0zm139-8s-13.146-19.527-30-20c-7.134-.2-14.607 2.678-16 5-3 5 11.726 5.23 16 6 20.646 3.726 30 9 30 9z"/><circle cx="358.632" cy="157.574" r="11.5"/><circle cx="444.632" cy="149.574" r="12.5"/><path d="M322.132 203.074c-5 29 7 60 29 83 26.5 26.5 65.425 27.02 72.5 26.5 3.071-.226 27.8-.917 51-16 60-39 56.214-120.649 56-127-123.5 22.5-194.544-.149-208.5 33.5z" fill="#42c1bb"/><path d="M322.132 205.4c22.036-25.561 75.493-2.717 200-28.487-126.104 25.721-176.988-.973-200 28.487z" fill="url(#A)" opacity=".3"/><path d="M321.006 215.062c24.723-25.659 152.333 4.195 199.162-23.9-67.121 28.912-176.15-5.562-199.162 23.9z" fill="url(#B)" opacity=".3"/><path d="M322.132 221.814s48 12.663 91.281 10.729c41.981-1.876 80.518-13.616 109.36-23.158-121.434 38.555-200.641 12.429-200.641 12.429z" fill="url(#C)" opacity=".3"/><path d="M329.849 243.062s26.284 19.11 62.71 21.572c50.341 3.4 88.889-11.882 113.625-22.385-119.869 49.203-176.335.813-176.335.813z" fill="url(#D)" opacity=".3"/><path d="M341.011 271.1s23.915 19.509 56.642 22.594c45.23 4.263 79.555-10.311 101.569-20.356-106.708 46.986-158.211-2.238-158.211-2.238z" fill="url(#E)" opacity=".3"/><path d="m597.628 373.784-59.536-20.963a5.558 5.558 0 0 1-3.49-6.8l50.107-172.063a4.4 4.4 0 0 1 6.055-2.776l57.757 26.33a7.176 7.176 0 0 1 3.926 8.49l-46.431 163.439a6.482 6.482 0 0 1-8.388 4.343z" fill="#75918f"/><path d="M545.77 307.674 648.763 197.64c-.081-.041-.159-.086-.242-.124l-57.757-26.33a4.4 4.4 0 0 0-6.055 2.776z" fill="#8ba6a4"/><path d="M646.632 282.574c1.047-6.582 2.653-16.221-7-24-20.761-16.731-57.693-42.936-70-48-7.318-3.011-9 12-9 16 0 0-7.444.387-10 3-5.3 5.42-1 26-1 26s-5.673 2.068-8 6c-3.807 6.432 0 22 0 22a37.006 37.006 0 0 0-6 9c-5.195 11.675 5 27 5 27l6-13 16 19c-3.51 23.307 3 50 13 57-.836 2.394-37.206 293.206 17 327 21.268 13.26 41.864 2.36 47-1 31.345-20.5 52.727-62.72 56-90 4.068-33.906-28-65-39-90-13.865-31.512-23-143-23-143s6.062-59.374 13-103z" fill="#ffb493"/><path d="M657.632 531.574c21.07 58.431 21.345 107.369 10 151 0 0 27.377-38.047 28.5-69.5 1-28-38.5-81.5-38.5-81.5z" fill="#f79173"/><path d="M575.132 382.074s1.562.076 2 1c9 19-8 61-8 61z" fill="#f7987b"/><path d="M546.632 306.574s-2.228-10.228-.5-8.5c.5.5 19.5 17.5 23 25 5.969 12.792-7 26-7 26-.811-11.122-2.856-23.108-15.5-42.5zm-6.048-28.564s2.427-6.595 7.548-8.936c12.4-5.668 37 37 37 37-19.469-14.9-34-31-44-22zm9.048-22.436-1.359-9.4c16.433-5.273 29.745 14.221 43.859 36.9-3.39-6.143-26.56-31.668-42.5-27.5zm11-29s-.042-4.626.5-5.5c5.736-9.259 48.634 38.156 48 40-19.959-14.709-38.379-31.874-48.5-34.5z" fill="#f79173"/><path d="M93.632 656.574c-9.512 4.756-37.728 32.507-53 51-7.722 9.351 4 22 9 23-2.54 8.613-.306 15.473 11 19 .378 10.551 5.1 15.732 13 17 2.093 11.924 9.517 17.331 20 19 5.969-1.066 29 131 64 161 6 5 18.893 11.285 28 4 20-16 29-122.354 29-122.354l-46.5-3.6-54.5-57.043s20.195-25.834 27-34c5-6 2-12-4-10-11.64 3.88-33 20-33 20s25-27 27-33c.39-1.17.831-4.6-1.1-6.512a6.474 6.474 0 0 0-5.9-1.488c-5.91 1.039-34 23-34 23s29.82-34.72 32-40c1.939-4.695-1-10-8-8-11.361 3.246-42 32-44 34 0 0 31-40 32-48s-6-8.003-8-7.003z" fill="#ffb493"/><g fill="#f79173"><path d="m214.632 828.22-46.5-3.6c21.109 29.332 30.1 65.639 28 107.457 6.083-13.533 18.5-79.857 18.5-103.857zm-88.5-47.146c-2.17 20.128-14 22-29 10 0 0 14.664 13.8 24 7 5.868-4.274 5-17 5-17zM98.6 670.464C75.62 691.306 56.828 709.6 56.13 713.15c-1.066 5.422 12.073.362 14.489-2.907A258.336 258.336 0 0 0 98.6 670.464zm-7.468 53.61c-3.222 3.1-8.548 9.442-8 10s9.1-5.323 34.87-28.813c-.002 0-18.202 10.485-26.87 18.813zm14 18q-8.646 9.3-8 10c.77.831 10.776-7.292 31.34-24.791a153.392 153.392 0 0 0-23.34 14.791z"/></g></svg></g><g transform="translate(1423.0 1456.0) rotate(0.0 424.0 395.5) scale(1.6402003829713159 1.6380949225270152)"><svg width="517.01" height="482.878" viewBox="0 0 517.01 482.878"><path d="M256.418 78.505S182.232-8.451 91.02.67C22.517 7.521-44.657 73.507 38.725 230.525c93.644 176.343 221.949 252.353 221.949 252.353S392.628 412.949 483.84 228.7c55.289-111.685 42.237-196.055-45-220.734-92.427-26.146-176.866 60.399-182.422 70.539z" fill="#fc5656"/><path d="m47.335 246.291 83.818-1.172 7.3-11.554 18.847 17.026 21.89-65.672 6.081.608 21.283 99.725 11.246-40.437h74.8l7.9-12.77 18.851 20.067 21.587-67.8h7.3s16.878 102.12 19.458 102.157l7.9-40.133 98.075 2.125a32.443 32.443 0 0 1-1.635 3.045l-90.967-1.522-9.729 54.728h-7.9l-19.459-103.375-18.242 56.551h-8.513l-16.115-17.938-5.472 8.513h-74.186L209.6 301.67l-7.3.608-20.068-105.806-18.851 60.808-6.993.028-17.33-15.838-4.865 7.3-85.177.507q-.79-1.338-1.681-2.986z" fill="#fff"/></svg></g></svg>