<svg xmlns="http://www.w3.org/2000/svg" viewBox="0 0 1200 800" width="1200" height="800"><g transform="translate(676.0 382.0) rotate(0.0 244.0 189.0) scale(0.5421228330361656 0.5424542178685567)"><svg width="900.165" height="696.833" viewBox="0 0 900.165 696.833"><path d="M847.993 696.758a2 2 0 0 1-1.807-1.142L698.667 385.242a2 2 0 1 1 3.612-1.717L849.8 693.9a2 2 0 0 1-1.8 2.859zm-845.944 0a2 2 0 0 1-1.8-2.859l147.514-310.374a2 2 0 1 1 3.612 1.717L3.857 695.616a2 2 0 0 1-1.808 1.142z" fill="#231e40"/><g fill="#7B60C4"><path d="M83.81 306.074v45.619a32.682 32.682 0 0 0 32.69 32.69h624.755a32.69 32.69 0 0 0 30.33-20.5c.01-.03.02-.05.03-.08l36.06-90.42H116.5a32.683 32.683 0 0 0-32.69 32.691z"/><path d="m807.673 2.574-107.2 268.809-.8 2h-392l99.793-250.229a32.689 32.689 0 0 1 30.364-20.58z"/><path d="M807.673 2.574h59.77a32.69 32.69 0 0 1 30.364 44.8l-90.134 226.01-36.06 90.42c-.01.03-.02.05-.03.08a32.69 32.69 0 0 1-30.33 20.5H655.4l44.27-111 .8-2z"/></g><path d="M700.473 273.383h-392.8a2 2 0 0 1 0-4h392.8a2 2 0 0 1 0 4zm53.202-133.4h-392a2 2 0 0 1 0-4h392a2 2 0 0 1 0 4z" fill="#fff"/><path d="M700.473 273.384a2 2 0 0 1-1.858-2.741l107.2-268.81a2 2 0 1 1 3.716 1.481l-107.2 268.81a2 2 0 0 1-1.858 1.26z" fill="#fff"/></svg></g><g transform="translate(313.0 160.0) rotate(-22.90346843693947 -22.0 22.0) translate(-0.0 0.0) scale(-0.4607329842931937 0.46025104602510464)"><svg width="95.5" height="95.6" viewBox="0 0 95.5 95.6"><path d="M0 47.8a47.779 47.779 0 1 0 18.4-37.7A47.8 47.8 0 0 0 0 47.8z" fill="#fff6cc"/><path d="M18.4 10.2A84.125 84.125 0 0 0 93.7 61 47.893 47.893 0 0 0 47.7.1a47.067 47.067 0 0 0-29.3 10.1z" fill="#231e40"/></svg></g><g transform="translate(584.0 159.0) rotate(9.656395490389883 -74.5 23.0) scale(-0.3052284194289156 0.3048457215565688)"><svg width="488.159" height="150.896" viewBox="0 0 488.159 150.896"><path d="M480.67 6.596c-4.392-5.22-15.207-7.668-21.365-6.152a18588.944 18588.944 0 0 0-393.59 101.692c-2.523.684-5.409 2.346-8.026 4.524L3.416 137.257a6.713 6.713 0 0 0 3.236 12.559l62.269.56c3.366.648 6.723.709 9.279.083A18608.776 18608.776 0 0 0 471.79 48.766c6.122-1.661 14.399-9.035 15.711-15.732 1.918-9.898-.358-18.71-6.831-26.438z" fill="#7B60C4"/></svg></g><g transform="translate(680.0 201.0) rotate(0.0 315.0 332.5) translate(0.0 0.0) scale(0.4867966078776054 0.4866732044320194)"><svg width="421.12" height="493.144" viewBox="0 0 421.12 493.144"><path d="m513.607 132.667-124.35 99.39-124.066-120.99C239.585 84.02 231.016 56.378 226.1 30.732l-2.12-11.283A23.906 23.906 0 0 0 177 28.372l7.751 41.26L60.4 41.851A23.907 23.907 0 0 0 31.853 59.97a23.907 23.907 0 0 0 18.119 28.544 23.905 23.905 0 0 0-28.543 18.119 23.906 23.906 0 0 0 18.119 28.543A23.908 23.908 0 0 0 11 153.3a23.907 23.907 0 0 0 18.12 28.543A23.907 23.907 0 0 0 18.7 228.5l68.106 15.214c18.834 4.208 39.013 16.776 70.028 47.1l-.082-.248 71.766 69.979 56.982 55.717a142.512 142.512 0 0 0 188.584 9.453l.23-.184 62.106-49.613 110.26-88.07z" fill="#fff6cc"/><path d="M109.908 225.537a2 2 0 0 1-1.953-2.436l31.273-139.989a2 2 0 0 1 3.9.872l-31.27 139.989a2 2 0 0 1-1.95 1.564z" fill="#231e40"/><path d="M135.789 109.685a2 2 0 0 1-.438-.049L49.536 90.465a2 2 0 0 1 .872-3.9l85.815 19.171a2 2 0 0 1-.434 3.952zm-11.6 46.4a2 2 0 0 1-.438-.049l-84.639-18.908a2 2 0 1 1 .872-3.9l84.639 18.908a2 2 0 0 1-.434 3.952zm-9.248 46.925a1.935 1.935 0 0 1-.438-.049L28.688 183.79a2 2 0 1 1 .872-3.9l85.815 19.171a2 2 0 0 1-.434 3.952zm84.267-53.388a2.032 2.032 0 0 1-.467-.055 44.055 44.055 0 0 1-14.818-79.1 2 2 0 0 1 2.269 3.294 40.055 40.055 0 0 0 13.48 71.918 2 2 0 0 1-.464 3.946zm221.329 112.037a2 2 0 0 1-1.4-.57l-29.6-28.941a2 2 0 0 1 2.8-2.86l29.6 28.94a2 2 0 0 1-1.4 3.431z" fill="#231e40"/><path d="M1176.707 1261.024h-264.62l-20.28-77.05h264.67l20.16 76.6zm-522.28-77.05-3.59 74.42-.28 2.62h-253.66l3.72-77.04z" fill="#fff6cc"/><path d="M978.6 359.957H435.274c-.48 127.124-34.547 824.015-34.547 824.015h369.2l-29.555-483.365.155.59 19.44 73.87 98.95 380.587 7.45 28.32h374.38z" fill="#7b60c4"/><path d="M987.023 390.267H434.849a2 2 0 0 1 0-4h552.174a2 2 0 0 1 0 4z" fill="#fff"/><path d="M677.371 474.454H662.8a28.5 28.5 0 0 1-27.472-21.041l-25.085-92.938a2 2 0 1 1 3.861-1.042l25.085 92.938a24.5 24.5 0 0 0 23.611 18.083h14.576a2 2 0 0 1 0 4zm554.092 683.203H858.725a2 2 0 0 1 0-4h372.738a2 2 0 0 1 0 4zm-463.34 0H402.115a2 2 0 0 1 0-4h366.008a2 2 0 0 1 0 4z" fill="#fff"/><path d="M757.964 777.07a2 2 0 0 1-1.933-1.491L646.77 360.463a2 2 0 0 1 3.868-1.018L759.9 774.56a2 2 0 0 1-1.935 2.51z" fill="#fff"/><path d="M978.6 359.963H435.275v-.01c.42-45.53-4.13-129.73 38.34-187.14 34.5-46.65 84.39-76.45 195.25-80.21 35.64-1.21 67.05.34 94.75 4.17a.235.235 0 0 1 .08.02q6.135.84 12.02 1.83 9.495 1.62 18.39 3.59c.16.04.32.07.48.11a216.152 216.152 0 0 1 48.05 16.92c1.16.57 2.31 1.15 3.45 1.73A216.614 216.614 0 0 1 896.5 156.8c.08.07.16.14.24.22.52.5 1.05 1.01 1.57 1.52a303.77 303.77 0 0 1 5.03 4.97l1.33 1.36q4.35 4.455 8.78 9.33c.6.65 1.2 1.32 1.79 1.99.27.29.53.59.8.89.55.61 1.09 1.23 1.64 1.86a477.611 477.611 0 0 1 32.36 41.52c20.825 46.94 24.635 98.54 28.56 139.503z" fill="#fd7ce8"/><path d="M978.6 359.957H435.277c.42-45.53-4.13-129.74 38.34-187.15 34.5-46.65 84.39-76.45 195.25-80.21 35.64-1.21 67.05.34 94.75 4.17a.235.235 0 0 1 .08.02q6.135.84 12.02 1.83 9.5 1.62 18.39 3.59a296.506 296.506 0 0 1 44.03 13.25c31.56 14.91 69.37 44.21 111.9 105 20.83 46.943 24.64 98.543 28.563 139.5z" fill="none"/><g fill="#fff"><path d="M453.434 340.42a2 2 0 0 1-1.414-3.414l12.451-12.451a2 2 0 0 1 2.828 2.828l-12.451 12.451a1.99 1.99 0 0 1-1.414.586zm71.342 0a2 2 0 0 1-1.414-3.414l12.45-12.451a2 2 0 0 1 2.828 2.828l-12.45 12.451a1.992 1.992 0 0 1-1.414.586zm159.908 0a2 2 0 0 1-1.414-3.414l12.451-12.451a2 2 0 0 1 2.829 2.828l-12.45 12.451a1.99 1.99 0 0 1-1.416.586zm-79.954 0a2 2 0 0 1-1.414-3.414l12.451-12.451a2 2 0 0 1 2.828 2.828l-12.451 12.451a1.99 1.99 0 0 1-1.414.586zm159.909 0a2 2 0 0 1-1.414-3.414l12.451-12.451a2 2 0 0 1 2.828 2.828l-12.451 12.451a1.99 1.99 0 0 1-1.414.586zm79.954 0a2 2 0 0 1-1.414-3.414l12.451-12.451a2 2 0 0 1 2.828 2.828l-12.45 12.451a1.994 1.994 0 0 1-1.415.586zm79.955 0a2 2 0 0 1-1.414-3.414l12.451-12.451a2 2 0 0 1 2.828 2.828l-12.451 12.451a1.99 1.99 0 0 1-1.414.586zm-418.685-51.141a1.994 1.994 0 0 1-1.415-.586L492 276.243a2 2 0 0 1 2.828-2.828l12.452 12.45a2 2 0 0 1-1.414 3.414zm151.295 0a1.99 1.99 0 0 1-1.414-.586l-12.451-12.45a2 2 0 0 1 2.828-2.828l12.451 12.45a2 2 0 0 1-1.414 3.414zm-79.958 0a1.99 1.99 0 0 1-1.414-.586l-12.451-12.45a2 2 0 0 1 2.828-2.828l12.451 12.45a2 2 0 0 1-1.414 3.414zm159.913 0a1.994 1.994 0 0 1-1.415-.586l-12.45-12.45a2 2 0 0 1 2.828-2.828l12.451 12.45a2 2 0 0 1-1.414 3.414zm79.954 0a1.992 1.992 0 0 1-1.414-.586l-12.453-12.45a2 2 0 0 1 2.828-2.828l12.451 12.45a2 2 0 0 1-1.414 3.414zm79.955 0a1.99 1.99 0 0 1-1.414-.586l-12.452-12.45a2 2 0 0 1 2.829-2.828l12.451 12.45a2 2 0 0 1-1.414 3.414zm-443.588-58.251a2 2 0 0 1-1.414-3.414l12.451-12.451a2 2 0 1 1 2.828 2.828l-12.451 12.451a2 2 0 0 1-1.414.586zm71.342 0a2 2 0 0 1-1.414-3.414l12.45-12.451a2 2 0 1 1 2.828 2.828l-12.45 12.451a2 2 0 0 1-1.414.586zm159.908 0a2 2 0 0 1-1.414-3.414l12.451-12.451a2 2 0 1 1 2.829 2.828l-12.45 12.451a2 2 0 0 1-1.416.586zm-79.954 0a2 2 0 0 1-1.414-3.414l12.451-12.451a2 2 0 1 1 2.828 2.828l-12.451 12.451a2 2 0 0 1-1.414.586zm159.909 0a2 2 0 0 1-1.414-3.414l12.451-12.451a2 2 0 1 1 2.828 2.828l-12.451 12.451a2 2 0 0 1-1.414.586zm79.954 0a2 2 0 0 1-1.414-3.414l12.451-12.451a2 2 0 1 1 2.828 2.828l-12.45 12.451a2 2 0 0 1-1.415.586zm79.955 0a2 2 0 0 1-1.414-3.414l12.451-12.451a2 2 0 1 1 2.828 2.828l-12.451 12.451a2 2 0 0 1-1.414.586zm-418.685-51.141a1.994 1.994 0 0 1-1.415-.586L492 166.851a2 2 0 0 1 2.828-2.829l12.452 12.451a2 2 0 0 1-1.414 3.414zm151.295 0a1.99 1.99 0 0 1-1.414-.586l-12.451-12.45a2 2 0 0 1 2.828-2.829l12.451 12.451a2 2 0 0 1-1.414 3.414zm-79.958 0a1.99 1.99 0 0 1-1.414-.586l-12.451-12.45a2 2 0 0 1 2.828-2.829l12.451 12.451a2 2 0 0 1-1.414 3.414zm159.913 0a1.994 1.994 0 0 1-1.415-.586l-12.45-12.45a2 2 0 0 1 2.828-2.829l12.451 12.451a2 2 0 0 1-1.414 3.414zm79.954 0a1.992 1.992 0 0 1-1.414-.586l-12.453-12.45a2 2 0 0 1 2.828-2.829l12.451 12.451a2 2 0 0 1-1.414 3.414zm79.955 0a1.99 1.99 0 0 1-1.414-.586l-12.452-12.45a2 2 0 0 1 2.829-2.829l12.451 12.451a2 2 0 0 1-1.414 3.414zm-212.338-58.251a2 2 0 0 1-1.414-3.414l12.451-12.451a2 2 0 0 1 2.829 2.828L686.1 121.05a2 2 0 0 1-1.416.586zm-79.954 0a2 2 0 0 1-1.414-3.414l12.451-12.451a2 2 0 0 1 2.833 2.829l-12.456 12.45a2 2 0 0 1-1.414.586zm159.909 0a2 2 0 0 1-1.414-3.414l12.451-12.451a2 2 0 0 1 2.824 2.829l-12.447 12.45a2 2 0 0 1-1.414.586zm81.446-.663-.08.08a1.983 1.983 0 0 1-1.41.58 1.984 1.984 0 0 1-1.96-2.39c1.165.57 2.31 1.15 3.45 1.73z"/></g><path d="M650.517 1261.024v4.03L647 1337.986a10.2 10.2 0 0 1-10.188 9.708H291.257c-6.01 0-6.58-6.2-.2-13.07 34.04-35.94 105.84-73.6 105.84-73.6z" fill="#231e40"/><path d="M403.666 1305.068a2 2 0 0 1-1.625-.832l-23.454-32.608a2 2 0 1 1 3.247-2.336l23.454 32.608a2 2 0 0 1-1.622 3.168zm-18.115 13.063a2 2 0 0 1-1.623-.829l-24.6-34.038a2 2 0 0 1 3.243-2.343l24.6 34.038a2 2 0 0 1-1.62 3.172z" fill="#fff"/><path d="M644.727 1365.04H288.488a2 2 0 0 1 0-4h356.239a2 2 0 0 1 0 4zm637.62-17.346h-338.51a11.589 11.589 0 0 1-11.21-8.64l-20.36-77.35a.529.529 0 0 1 .51-.67l10.31-.01h253.49a.5.5 0 0 1 .24.06c3.16 1.67 72.47 38.42 105.73 73.54 6.38 6.87 5.81 13.07-.2 13.07z" fill="#231e40"/><path d="M1169.94 1305.068a2 2 0 0 1-1.622-3.168l23.455-32.608a2 2 0 1 1 3.247 2.336l-23.455 32.608a2 2 0 0 1-1.625.832zm18.115 13.063a2 2 0 0 1-1.619-3.172l24.6-34.038a2 2 0 1 1 3.242 2.343l-24.6 34.038a2 2 0 0 1-1.623.829z" fill="#fff"/><path d="M1289.119 1365.04H939.394a2 2 0 0 1 0-4h349.725a2 2 0 0 1 0 4z" fill="#231e40"/><path d="M1270.384 616.7a21.749 21.749 0 0 1-21.75 21.75H1013.8a88.215 88.215 0 0 1-75.75-43l-123.7-207.18-16.9-28.31-49.01-82.09c-34.32-59.46-27.39-135.81 21.09-164.54a120.23 120.23 0 0 1 24.57-11.12c.16.04.32.07.48.11a216.345 216.345 0 0 1 101.91 54.48c.08.07.16.14.24.22.52.5 1.05 1.01 1.57 1.52a303.77 303.77 0 0 1 5.03 4.97l1.33 1.36q4.35 4.455 8.78 9.33c.6.65 1.2 1.32 1.79 1.99.27.29.53.59.8.89.55.61 1.09 1.23 1.64 1.86a477.611 477.611 0 0 1 32.36 41.52c8.64 12.35 17.48 26 26.5 41.09v.01l178.66 299.01c5.6 9.38 10.91 16.23 16.38 21.17l.07-.02 53.9-19.81a21.736 21.736 0 0 1 26.4 31.17 19.341 19.341 0 0 1-1.26 1.97 21.747 21.747 0 0 1 19.704 21.65z" fill="#fff6cc"/><path d="M1075.3 638.447a2 2 0 0 1 0-4 19.749 19.749 0 1 0 0-39.5h-63.325a2 2 0 1 1 0-4h63.325a23.749 23.749 0 1 1 0 47.5zm176.649-43.364a1.976 1.976 0 0 1-.253-.016 15.04 15.04 0 0 0-1.945-.117c-.371 0-35.824.161-46.388 0-14.268-.221-24.207-3.779-33.233-11.9a2 2 0 1 1 2.674-2.973c8.356 7.515 17.227 10.665 30.621 10.871 10.524.162 45.936 0 46.293 0a18.209 18.209 0 0 1 2.48.149 2 2 0 0 1-.249 3.984z" fill="#231e40"/></svg></g><g transform="translate(64.0 148.0) rotate(0.0 250.0 305.0) scale(0.4170955799547201 0.41750967116664517)"><svg width="1198.766" height="1461.044" viewBox="0 0 1198.766 1461.044"><rect fill="#fff6cc" height="92.408" rx="23.861" transform="matrix(.91552925 .4022514 -.4022514 .91552925 113.313 -412.1)" width="47.721" x="1013.999" y="17.542"/><path d="m923.77 145.418 54.41-123.833 174.76 76.784-54.407 123.833z" fill="#fff6cc"/><rect fill="#fff6cc" height="92.408" rx="23.861" transform="matrix(.91552925 .4022514 -.4022514 .91552925 136.053 -444.06)" width="47.721" x="1101.466" y="55.707"/><rect fill="#fff6cc" height="92.408" rx="23.861" transform="matrix(.91552925 .4022514 -.4022514 .91552925 124.641 -428.107)" width="47.721" x="1057.776" y="36.511"/><path d="M1116.31 148.218a25.852 25.852 0 0 1-23.647-36.254l17.976-40.912a2 2 0 0 1 3.662 1.609l-17.976 40.912a21.865 21.865 0 0 0 35.865 23.857 2 2 0 0 1 2.9 2.756 25.914 25.914 0 0 1-18.78 8.032z" fill="#231e40"/><path d="M1072.642 129.045a25.888 25.888 0 0 1-23.669-36.277l17.975-40.912a2 2 0 0 1 3.662 1.609l-17.975 40.912a21.861 21.861 0 1 0 40.028 17.587l17.976-40.912a2 2 0 0 1 3.662 1.609l-17.976 40.912a25.922 25.922 0 0 1-23.683 15.472z" fill="#231e40"/><rect fill="#fff6cc" height="92.408" rx="23.861" transform="matrix(.91552925 .4022514 -.4022514 .91552925 101.816 -396.201)" width="47.721" x="970.396" y="-1.881"/><path d="M985.231 90.639a25.865 25.865 0 0 1-25.514-29.882 2 2 0 0 1 3.951.624 21.864 21.864 0 0 0 41.615 12.191l17.976-40.912a2 2 0 0 1 3.662 1.609l-17.976 40.912a25.9 25.9 0 0 1-23.714 15.458z" fill="#231e40"/><path d="M940.805 119.569a23.861 23.861 0 0 1 16.975-29.164l53.146-13.518a23.861 23.861 0 0 1 29.164 16.974 23.861 23.861 0 0 1-16.975 29.164l-53.146 13.518a23.861 23.861 0 0 1-29.164-16.974z" fill="#fff6cc"/><path d="M993.529 132.551a2 2 0 0 1-.492-3.939l29.585-7.525a21.861 21.861 0 0 0-11.186-42.266l-64.308 16.518a2 2 0 1 1-1-3.874l64.3-16.515a25.861 25.861 0 0 1 13.2 50.009l-29.6 7.529a2.059 2.059 0 0 1-.499.063z" fill="#231e40"/><path d="M983.1 192.832a2 2 0 0 1-1.108-3.667 40.12 40.12 0 0 0 9.933-57.425 2 2 0 1 1 3.2-2.392A44.121 44.121 0 0 1 984.2 192.5a2 2 0 0 1-1.1.332z" fill="#231e40"/><path d="m310.691 541.553 3.823-12.775 2.124-7.064c-.168-.2-.347-.414-.526-.615-.4-.459-.815-.917-1.251-1.375l-.425-.425a88.6 88.6 0 0 0-11.043-9.243c-12.329-8.942-28.565-17.474-39.176-23.966-.011-.011 46.474 55.463 46.474 55.463z" fill="#fff6cc"/><path d="M244.066 473.136a1.989 1.989 0 0 1-1.06-.306l-75.278-47.21a2 2 0 0 1 2.125-3.389l75.278 47.21a2 2 0 0 1-1.065 3.7zm-80.703 967.595h394.152a12.838 12.838 0 0 0 12.838-12.838v-85.154H282.815s-81.282 42.586-119.777 83.339c-7.153 7.567-6.494 14.653.325 14.653z" fill="#231e40"/><path d="M290.614 1392.179a2 2 0 0 1-1.625-.831l-26.595-36.913a2 2 0 0 1 3.246-2.339l26.6 36.914a2 2 0 0 1-1.621 3.169zm-20.585 14.831a2 2 0 0 1-1.625-.831l-27.79-38.571a2 2 0 0 1 3.246-2.339l27.79 38.572a2 2 0 0 1-1.621 3.169z" fill="#fff"/><path d="M569.235 1460.071H159.072a2 2 0 0 1 0-4h410.163a2 2 0 1 1 0 4z" fill="#231e40"/><path d="m570.353 1342.74 2.236-95.876H287.677l-4.862 95.876z" fill="#fff6cc"/><path d="M1192.089 1440.731H797.937a12.838 12.838 0 0 1-12.838-12.838v-85.154h287.538s81.281 42.586 119.776 83.339c7.154 7.567 6.494 14.653-.324 14.653z" fill="#231e40"/><path d="M1064.838 1392.179a2 2 0 0 1-1.621-3.169l26.595-36.914a2 2 0 0 1 3.247 2.339l-26.6 36.913a2 2 0 0 1-1.621.831zm20.584 14.831a2 2 0 0 1-1.621-3.169l27.791-38.572a2 2 0 0 1 3.246 2.339l-27.791 38.571a2 2 0 0 1-1.625.831z" fill="#fff"/><path d="M1196.38 1460.071H786.217a2 2 0 0 1 0-4h410.163a2 2 0 0 1 0 4z" fill="#231e40"/><path d="m785.098 1342.74-23.436-95.876h284.912l26.062 95.876z" fill="#fff6cc"/><path d="M1011.834 1119.554 829.565 443.469l-511.888.003-30.179 803.396h365.501l-11.206-244.078 21.933 116.764 23.92 127.311h358.928z" fill="#7b60c4"/><path d="m829.565 443.468-246.219 115-265.671-115 .916-24.858v-.01c0 .011 34.125-240.314 34.125-240.314a343.782 343.782 0 0 1 8.562-2.437c26.8-7.2 52.22-10.16 78.577-11.691 16.33-.682 33.476-1.185 51.2-1.42h.011c32.873-.447 67.735.079 102.989 2.191q4.259.252 8.517.537 9.942.671 19.4 1.889a246.673 246.673 0 0 1 51.494 11.959c53.294 18.968 90.581 56.692 112.724 115.25 16.442 43.469 30.413 95.958 37.79 125.578 3.562 14.34 5.585 23.326 5.585 23.326z" fill="#fd7ce8"/><path d="M409.061 353.725 366.9 179.682l-5.622-3.834a349.4 349.4 0 0 0-8.562 2.437 344.278 344.278 0 0 0-61.085 25.227c-19.806 10.351-40.987 23.451-64.169 40.071l-.235.168L85.643 345.3c-112.231 79.169-108.878 194.139 2.292 261.93l118.1 72.249h-.006c51.422 31.458 60.289 42.83 58.886 80.885l.155-.321-1.263 36.089a20.5 20.5 0 0 0 19.729 21.241 20.5 20.5 0 0 0 21.241-19.73l3.9-111.419 3.907-105.564 1.922-51.885.347-9.054v-.121l-.1-.067-.324-.234a88.6 88.6 0 0 0-11.043-9.244l-15.57-9.523-11.926-7.3a.037.037 0 0 0-.023-.011l-33.085-20.243 75.805-54.366z" fill="#fff6cc"/><path d="m923.765 145.017-39.39 89.251-169.082-44.625-53.8-14.2a233.925 233.925 0 0 0-10.82-2.856l-.6-.159.009.013a269.467 269.467 0 0 0-28.1-5.088q-9.456-1.222-19.4-1.888-4.259-.285-8.517-.537l6.945 377.862-109.941-380.053h-.011a1800.03 1800.03 0 0 0-51.2 1.42c-8.1.471-16.111 1.078-24.1 1.9-40.245-1.712-101 26.3-101 26.3q-11.271 4.969-23.117 11.153c-19.806 10.35-40.987 23.45-64.169 40.07l-.235.168L85.644 345.3c-112.232 79.169-108.879 194.139 2.291 261.93l114.376 69.97L303.39 510.052l-15.57-9.523-11.926-7.3a.035.035 0 0 0-.023-.011l-33.085-20.242 75.094-53.856.677.387-3.8 100.023-8.405 221.312v.011l-14.374 378.7h719.856S834.383 459.914 824.376 421.649l18.9 3.5 59.7 15.986a107.952 107.952 0 0 0 125.607-60.97l43.285-98.069 26.49-60.011z" fill="#fff"/><path d="M314.751 423.366a2 2 0 0 1-1.168-3.626l31.75-22.771a2 2 0 0 1 2.332 3.251l-31.75 22.771a2 2 0 0 1-1.164.375zM653 1121.554a2 2 0 0 1-1.99-1.82L599.018 542.97a2 2 0 1 1 3.984-.359l51.989 576.764a2 2 0 0 1-1.812 2.171 1.855 1.855 0 0 1-.179.008zM870.857 266.9a2 2 0 0 1-1.829-2.808l13.517-30.628a2 2 0 0 1 3.66 1.615L872.688 265.7a2 2 0 0 1-1.831 1.2zM275.892 495.23a1.994 1.994 0 0 1-1.042-.294l-74.7-45.7a2 2 0 0 1 2.088-3.413l74.7 45.7a2 2 0 0 1-1.045 3.706zm159.884-39.616a2 2 0 0 1-2-2v-192.22a115.946 115.946 0 0 1 56.491-99.594 2 2 0 1 1 2.054 3.432 112.66 112.66 0 0 0-54.545 96.162v192.22a2 2 0 0 1-2 2z" fill="#231e40"/><circle cx="435.776" cy="473.623" fill="#fff23d" r="20.009"/><g fill="#231e40"><path d="M703.528 524.764a2 2 0 0 1 0-4 23.241 23.241 0 0 0 23.215-23.215V426.9a42.841 42.841 0 0 0-85.682 0v70.652a23.242 23.242 0 0 0 23.215 23.215 2 2 0 0 1 0 4 27.246 27.246 0 0 1-27.215-27.215V426.9a46.841 46.841 0 0 1 93.682 0v70.652a27.246 27.246 0 0 1-27.215 27.212zM366.131 731.766a2 2 0 0 1-1.048-3.7l133.065-81.6a2 2 0 0 1 2.092 3.41l-133.065 81.6a1.993 1.993 0 0 1-1.044.29zm487.814 0a2 2 0 0 1-1.118-.343l-120.771-81.6a2 2 0 0 1 2.24-3.314l120.771 81.594a2 2 0 0 1-1.122 3.658zM202.3 679.2a2.007 2.007 0 0 1-1.044-.294L86.891 608.934C33.17 576.175 2.689 531.375 1.067 482.787-.621 432.211 29.006 382.8 84.49 343.663L226.3 241.957c22.7-16.279 43.771-29.434 64.406-40.217a345.745 345.745 0 0 1 61.436-25.371c2.678-.8 5.5-1.6 8.612-2.451a2 2 0 0 1 1.049 3.86 342.082 342.082 0 0 0-8.512 2.423 341.849 341.849 0 0 0-60.73 25.083c-20.469 10.7-41.381 23.756-63.933 39.925l-.236.169L86.81 346.923C32.449 385.269 3.423 433.469 5.065 482.654c1.576 47.2 31.376 90.831 83.911 122.866l112.655 68.921 99.017-163.721-25.741-15.749a2.08 2.08 0 0 1-.08-.046l-33.085-20.242a2 2 0 0 1-.122-3.332l75.805-54.366a2 2 0 0 1 2.332 3.25L246.4 472.844l30.461 18.637.074.043 27.5 16.822a2 2 0 0 1 .667 2.741L204.013 678.232a2 2 0 0 1-1.711.965z"/><path d="M1011.834 1121.554H291.978a2 2 0 0 1-2-2.076l14.375-378.7 12.239-322.244a2.006 2.006 0 0 1 2-1.93h.039a1.994 1.994 0 0 1 1.962 1.994l-26.536 698.955h715.168c-12.886-47.722-200.341-741.992-203.756-755.77a2 2 0 0 1 3.883-.962c3.508 14.156 202.406 750.772 204.415 758.211a2 2 0 0 1-1.931 2.521z"/><path d="M929.805 446.52a109.84 109.84 0 0 1-27.318-3.448l-59.725-15.992-19.278-5a2 2 0 0 1 1.006-3.872l19.291 5.007L903.5 439.2a105.6 105.6 0 0 0 123.259-59.846l68.967-156.25-170.939-75.45-38.582 87.421a2 2 0 0 1-2.341 1.127l-234.307-61.84a2 2 0 0 1 1.021-3.868l232.656 61.4 38.7-87.689a2 2 0 0 1 2.637-1.022l174.6 77.068a2 2 0 0 1 1.022 2.637l-69.775 158.08a109.928 109.928 0 0 1-100.613 65.552z"/><path d="M601.008 544.791a2 2 0 0 1-1.919-1.445L489.572 164.758c-16.215.229-32.91.7-49.635 1.4-30.75 1.787-54.86 5.373-78.141 11.625a340.413 340.413 0 0 0-8.506 2.421 2 2 0 0 1-1.148-3.832c2.677-.8 5.494-1.6 8.611-2.451 23.56-6.327 47.919-9.953 78.985-11.758 17.311-.723 34.557-1.2 51.294-1.422a2.016 2.016 0 0 1 1.958 1.444L598.732 527.72l-6.674-362.755a2 2 0 0 1 .615-1.48 1.974 1.974 0 0 1 1.5-.553q4.266.252 8.533.537a322.015 322.015 0 0 1 19.526 1.9 272.978 272.978 0 0 1 28.3 5.109 2 2 0 1 1-.926 3.892 268.89 268.89 0 0 0-27.884-5.034c-6.173-.8-12.661-1.43-19.285-1.877q-3.171-.212-6.343-.406l6.913 375.7a2 2 0 0 1-1.7 2.014 2.055 2.055 0 0 1-.299.024z"/></g><path d="m287.5 550.784 25.095 29.879L335 607.407a20.5 20.5 0 1 0 31.4-26.368l-49.761-59.325c-.168-.2-.347-.414-.526-.615l-1.251-1.5a15.531 15.531 0 0 0-1.655-1.6l-7.223-6.017z" fill="#fff6cc"/><path d="M683.9 383.212a2 2 0 0 1-2-2V261.394a111.143 111.143 0 0 0-44.9-89.687 2 2 0 0 1 2.4-3.2 115.109 115.109 0 0 1 46.5 92.888v119.817a2 2 0 0 1-2 2z" fill="#231e40"/></svg></g><g transform="translate(630.0 155.0) rotate(12.652469200235736 57.5 92.0) scale(0.25145790922588135 0.25161911430071765)"><svg width="457.333" height="731.264" viewBox="0 0 457.333 731.264"><path d="M0 0h457.333v731.264H0z" fill="#FFF23D"/><g fill="#010101"><path d="M301.553 137.783H155.781a2 2 0 0 1 0-4h145.772a2 2 0 0 1 0 4zm88.196 92.442h-39.394a2 2 0 0 1 0-4h39.394a2 2 0 0 1 0 4zm-80.875 0H67.611a2 2 0 0 1 0-4h241.263a2 2 0 0 1 0 4zm80.875 56.325h-39.394a2 2 0 0 1 0-4h39.394a2 2 0 0 1 0 4zm-80.875 0H67.611a2 2 0 1 1 0-4h241.263a2 2 0 0 1 0 4zm80.875 56.324h-39.394a2 2 0 0 1 0-4h39.394a2 2 0 0 1 0 4zm-80.875 0H67.611a2 2 0 1 1 0-4h241.263a2 2 0 0 1 0 4zm80.875 56.326h-39.394a2 2 0 0 1 0-4h39.394a2 2 0 0 1 0 4zm-80.875 0H67.611a2 2 0 1 1 0-4h241.263a2 2 0 0 1 0 4zm80.875 56.362h-39.394a2 2 0 0 1 0-4h39.394a2 2 0 0 1 0 4zm-80.875 0H67.611a2 2 0 1 1 0-4h241.263a2 2 0 0 1 0 4zm80.875 56.324h-39.394a2 2 0 0 1 0-4h39.394a2 2 0 0 1 0 4zm-80.875 0H67.611a2 2 0 0 1 0-4h241.263a2 2 0 0 1 0 4zm80.875 112.649h-39.394a2 2 0 0 1 0-4h39.394a2 2 0 0 1 0 4zm-80.875 0H67.611a2 2 0 1 1 0-4h241.263a2 2 0 0 1 0 4zm80.875-56.324h-39.394a2 2 0 0 1 0-4h39.394a2 2 0 0 1 0 4zm-80.875 0H67.611a2 2 0 1 1 0-4h241.263a2 2 0 0 1 0 4z"/></g></svg></g><g transform="translate(920.0 204.0) rotate(28.579064136034248 22.0 22.0) translate(0.0 0.0) scale(0.4607329842931937 0.46025104602510464)"><svg width="95.5" height="95.6" viewBox="0 0 95.5 95.6"><path d="M0 47.8a47.779 47.779 0 1 0 18.4-37.7A47.8 47.8 0 0 0 0 47.8z" fill="#fff6cc"/><path d="M18.4 10.2A84.125 84.125 0 0 0 93.7 61 47.893 47.893 0 0 0 47.7.1a47.067 47.067 0 0 0-29.3 10.1z" fill="#231e40"/></svg></g><g transform="translate(1027.0 235.0) rotate(22.389399045592448 -176.5 252.5) scale(-0.7034675169390195 0.7014863175441034)"><svg width="501.8" height="719.9" viewBox="0 0 501.8 719.9"><path d="M331 257.1 49.2 189.5s14.5-77.2 56.4-133c1.2-1.6 2.4-3.2 3.6-4.7C139.1 14.3 182-11.8 242.3 5.5c22.7 6.5 40.5 17.3 54.3 30.8.7.7 1.5 1.4 2.2 2.2 70.5 72.6 32.2 218.6 32.2 218.6z" fill="#7b60c4"/><g fill="#fff"><path d="M89.5 118.4c.1-.4.3-.7.7-.9l12.2-7.5c.7-.4 1.7-.2 2.1.5s.2 1.6-.5 2.1l-12.2 7.5c-.7.4-1.7.2-2.1-.5-.3-.4-.3-.8-.2-1.2zm16.1-61.9c1.2-1.6 2.4-3.2 3.6-4.7l8.3-5.1c.7-.4 1.7-.2 2.1.5s.2 1.7-.5 2.1l-11.8 7.3c-.5.3-1.2.3-1.7-.1zM74.3 181.6c.1-.4.3-.7.7-.9l12.2-7.5c.7-.4 1.7-.2 2.1.5s.2 1.6-.5 2.1l-12.2 7.5c-.7.4-1.7.2-2.1-.5-.2-.4-.3-.8-.2-1.2zm86.3-156.9c.2-.8 1-1.3 1.8-1.1.4.1.7.3.9.7l7.5 12.2c.5.7.2 1.7-.5 2.1-.7.5-1.7.2-2.1-.5l-7.5-12.2c-.1-.4-.2-.8-.1-1.2zm-30.3 126.5c.2-.8 1-1.3 1.8-1.1.4.1.7.3.9.7l7.5 12.2c.4.7.2 1.7-.5 2.1s-1.6.2-2.1-.5l-7.5-12.2c-.1-.4-.2-.8-.1-1.2zM145.5 88c.2-.8 1-1.3 1.8-1.1.4.1.7.3.9.7l7.5 12.2c.4.7.2 1.7-.5 2.1s-1.7.2-2.1-.5l-7.5-12.2c-.2-.4-.2-.8-.1-1.2zm59.1-68.5c.1-.4.3-.7.7-.9l12.2-7.5c.7-.4 1.7-.2 2.1.5s.2 1.6-.5 2.1l-12.2 7.5c-.7.4-1.7.2-2.1-.5-.2-.4-.3-.8-.2-1.2zm-28.7 119.7c.1-.4.3-.7.7-.9l12.2-7.5c.7-.4 1.7-.2 2.1.5s.2 1.6-.5 2.1l-12.2 7.5c-.7.4-1.7.2-2.1-.5-.2-.4-.3-.9-.2-1.2zm15.2-63.3c.1-.4.3-.7.7-.9l12.2-7.5c.7-.4 1.7-.2 2.1.5s.2 1.6-.5 2.1l-12.2 7.5c-.7.4-1.7.2-2.1-.5-.2-.4-.3-.8-.2-1.2zm-30.3 126.4c.1-.4.3-.7.7-.9l12.2-7.5c.7-.4 1.7-.2 2.1.5s.2 1.6-.5 2.1l-12.2 7.5c-.7.4-1.7.2-2.1-.5-.3-.4-.3-.8-.2-1.2zm56-30.4c.2-.8 1-1.3 1.8-1.1.4.1.7.3.9.7l7.5 12.2c.4.7.2 1.7-.5 2.1s-1.6.2-2.1-.5l-7.5-12.2c-.1-.4-.2-.8-.1-1.2zm15.1-63.2c.2-.8 1-1.3 1.8-1.1.4.1.7.3.9.7l7.5 12.2c.4.7.2 1.7-.5 2.1s-1.7.2-2.1-.5l-7.5-12.2c-.1-.4-.2-.8-.1-1.2zm30.5 51.2c.1-.4.3-.7.7-.9l12.2-7.5c.7-.4 1.7-.2 2.1.5s.2 1.6-.5 2.1l-12.2 7.5c-.7.4-1.7.2-2.1-.5-.2-.4-.3-.8-.2-1.2zm15.2-63.3c.1-.4.3-.7.7-.9l12.2-7.5c.7-.4 1.7-.2 2.1.5s.2 1.6-.5 2.1l-12.2 7.5c-.7.4-1.7.2-2.1-.5-.3-.3-.3-.8-.2-1.2zm-30.4 126.5c.1-.4.3-.7.7-.9l12.2-7.5c.7-.4 1.7-.2 2.1.5s.2 1.6-.5 2.1l-12.2 7.5c-.7.4-1.7.2-2.1-.5-.2-.4-.3-.8-.2-1.2zm56-30.5c.2-.8 1-1.3 1.8-1.1.4.1.7.3.9.7l7.5 12.2c.4.7.2 1.7-.5 2.1s-1.6.2-2.1-.5l-7.5-12.2c-.1-.3-.2-.8-.1-1.2zm15.1-63.1c.2-.8 1-1.3 1.8-1.1.4.1.7.3.9.7l7.5 12.2c.4.7.2 1.7-.5 2.1s-1.7.2-2.1-.5l-7.5-12.2c-.1-.4-.2-.8-.1-1.2z"/></g><path d="m426.9 706.6-239.7-94.2c-2.6-1-4-4-2.9-6.6v-.1l22.1-56.3 170.1 66.8s40.2 46.5 54.2 81.3c2.6 6.5.4 10.7-3.8 9.1z" fill="#231e40"/><path d="M387 628c-.1.3-.3.5-.6.7l-25.6 16.5c-.7.4-1.6.2-2-.4-.4-.7-.2-1.6.4-2l25.6-16.5c.7-.4 1.6-.2 2 .4.3.3.3.8.2 1.3zm10.3 13.5c-.1.3-.3.5-.6.7l-26.8 17.3c-.7.4-1.6.2-2-.5s-.2-1.6.4-2l26.8-17.3c.7-.4 1.6-.2 2 .4.4.4.4.9.2 1.4z" fill="#fff"/><path d="M426.7 719c-.3.8-1.2 1.1-1.9.8l-245.3-96.4c-.8-.3-1.1-1.2-.8-1.9.3-.8 1.2-1.1 1.9-.8l245.2 96.4c.8.3 1.2 1.1.9 1.9z" fill="#231e40"/><path d="M407.8 535 376 616l-169.6-66.6 31.8-81" fill="#fff6cc"/><path d="m493.3 308.7-1.2-2.7v-.1c-.8-1.8-1.7-3.6-2.6-5.3 0-.1-.1-.2-.1-.3-.4-.7-.8-1.4-1.2-2.2-.2-.3-.3-.6-.5-.8-.3-.5-.6-1-.9-1.6-.2-.3-.4-.7-.6-1-.3-.5-.6-.9-.9-1.4-.2-.3-.4-.7-.6-1-.3-.5-.6-.9-.9-1.4l-.6-.9c-.4-.6-.8-1.1-1.2-1.7-.1-.2-.3-.4-.4-.5-1.1-1.6-2.3-3.1-3.5-4.6l-.1-.1c-.6-.7-1.2-1.5-1.8-2.2-12.4-14.6-28.8-26-48.1-32.3-.1 0-.1 0-.2-.1-.8-.3-1.6-.5-2.4-.8-.1 0-.3-.1-.4-.1-.8-.2-1.5-.4-2.3-.6-.2-.1-.4-.1-.6-.2-.9-.2-1.9-.5-2.8-.7L337 226.7c1.6-10.4 3.1-23 3.9-36.8L67.5 128.1c-4.8 12.4-8.5 23.9-11.2 33.6S4.8 321.1 116.5 389.4c9.2 5.5 19.4 9.7 30.4 12.3l96.7 22.8-38.1 83.7 203.9 68.6 83-182.2c0-.1.1-.2.1-.3.6-1.3 1.2-2.7 1.7-4 .2-.4.4-.9.5-1.3.2-.6.5-1.2.7-1.8.3-.8.6-1.5.8-2.3.1-.4.3-.8.4-1.3.4-1.2.8-2.5 1.1-3.7.1-.3.2-.7.3-1 .4-1.3.7-2.7 1-4l.6-2.7c0-.2.1-.3.1-.5.2-.8.3-1.6.5-2.4 0-.1 0-.2.1-.3 3.5-21 .8-41.8-7-60.3z" fill="#fd7ce8"/><path d="M336.9 228h-.2l-75.4-14.9c-.7-.1-1.1-.8-1-1.5s.8-1.1 1.5-1l75.4 14.9c.7.1 1.1.8 1 1.5-.2.6-.7 1-1.3 1zm-93.6 197.8c-.2 0-.4 0-.5-.1-.6-.3-.9-1-.6-1.7l34.6-71.7c.3-.6 1-.9 1.7-.6.6.3.9 1 .6 1.7l-34.6 71.7c-.3.4-.7.7-1.2.7zm174.4 133.5c-.1 0-.3 0-.4-.1L213 491.4c-.7-.2-1-.9-.8-1.6s.9-1 1.6-.8l204.3 67.8c.7.2 1 .9.8 1.6-.2.6-.6.9-1.2.9zm-77.8-356.2h-.3L63.3 139.9c-.7-.2-1.1-.8-.9-1.5s.8-1.1 1.5-.9l276.4 63.2c.7.2 1.1.8.9 1.5-.2.5-.7.9-1.3.9z" fill="#fff"/><path d="M257.4 57.9c-20.9-31.2-63.2-39.5-94.3-18.6L52.3 113.6C2.1 147.3-14.6 213.5 13.7 267l60.9 114.9.8 46.8c0 9.4 7.6 16.9 16.9 16.9s16.8-7.6 16.8-16.9c0 9.4 7.5 16.9 16.8 16.9s16.8-7.6 16.8-17c0 9.4 7.6 16.9 16.9 16.9 9.2 0 16.7-7.5 16.8-16.7.1 9.4 7.8 16.8 17 16.7s16.6-7.6 16.7-16.9v-35.2l7.7 10.6c3.2 4.4 8.2 7 13.6 7 3.6 0 7.1-1.1 9.9-3.2 7.5-5.5 9.2-16 3.6-23.6v-.1l-50.1-65.9-53.3-100.6 97.3-65.3c31.2-20.9 39.5-63.2 18.6-94.4z" fill="#fff6cc"/><path d="M109.1 434.1c-.8 0-1.5-.7-1.5-1.5v-59.7c0-.8.7-1.5 1.5-1.5s1.5.7 1.5 1.5v59.7c0 .8-.6 1.5-1.5 1.5zm34 0c-.8 0-1.5-.7-1.5-1.5v-59.7c0-.8.7-1.5 1.5-1.5s1.5.7 1.5 1.5v59.7c0 .8-.6 1.5-1.5 1.5zm33.5 0c-.8 0-1.5-.7-1.5-1.5v-59.7c0-.8.7-1.5 1.5-1.5s1.5.7 1.5 1.5v59.7c0 .8-.6 1.5-1.5 1.5zm33.5-35c-.8 0-1.5-.7-1.5-1.5v-30.9c0-14.6-3.9-29-11.4-41.5l-3.7-6.3c-.4-.7-.2-1.6.5-2.1.7-.4 1.6-.2 2.1.5l3.7 6.3c7.7 13 11.8 27.9 11.8 43.1v30.9c0 .8-.6 1.5-1.5 1.5z" fill="#231e40"/><path d="M298.8 38.5c-.7-.8-1.4-1.4-2.1-2.1l-6.2 4.2c-.7.4-.9 1.4-.4 2.1.4.7 1.4.9 2.1.4l6.7-4.5s0-.1-.1-.1z" fill="#fff"/></svg></g><g transform="translate(988.0 178.0) rotate(48.491752536626656 55.5 48.5) scale(0.5230224098610927 0.5242449791382926)"><svg width="212.228" height="185.028" viewBox="0 0 212.228 185.028"><g fill="#231e40"><path d="M205.763 137.336c-14.6 19.7-50.2 18.9-85.2.2 1.5 8 .4 15.4-3.8 21-9.6 12.9-32.4 13-55.6 1.7a20.354 20.354 0 0 1-2.3 14.1c-6.8 11.7-24.5 14.2-39.6 5.5s-21.8-25.3-15-37c4.1-7.1 12.1-10.8 21.1-10.7-14.5-17.8-19.4-37.3-10.6-49.2 8.2-11 25.9-12.7 45.4-6-8.3-18.1-9-35.5-.1-47.6 17.3-23.3 63.8-18 104 11.8 40.4 29.9 59 72.9 41.7 96.2z"/><path d="M36.461 144.436a2 2 0 0 1-1.192-.4c-13.858-10.307-24.74-22.949-30.643-35.6-6.1-13.057-6.19-24.636-.268-32.6S21.4 64.593 35.644 66.618c13.832 1.967 29.072 8.719 42.912 19.013a2 2 0 1 1-2.387 3.21c-13.314-9.9-27.906-16.388-41.088-18.262-12.728-1.81-22.5.907-27.513 7.65-10.618 14.282 2.88 42.365 30.088 62.6a2 2 0 0 1-1.2 3.605z"/><path d="M94.661 116.236a1.992 1.992 0 0 1-1.189-.393C73.746 101.22 58.49 83 50.514 64.542c-8.136-18.831-7.765-35.735 1.043-47.6 15.218-20.608 57.367-22.615 92.037-4.378a2 2 0 1 1-1.862 3.54C108.71-1.264 68.887.21 54.772 19.324 46.847 30 46.64 45.49 54.186 62.955c7.7 17.823 22.5 35.464 41.668 49.674a2 2 0 0 1-1.193 3.607z"/></g></svg></g></svg>