<svg xmlns="http://www.w3.org/2000/svg" viewBox="0 0 3000 2625" width="3000" height="2625"><g transform="translate(88.125 112.5) rotate(0.0 1413.75 1200.9375) scale(4.003301750550763 4.003125)"><svg width="706.292" height="600" viewBox="0 0 706.292 600"><linearGradient id="a" gradientUnits="userSpaceOnUse" x1="589.872" x2="589.872" y1="509.867" y2="596.305"><stop offset="0" stop-color="#c0ddfc"/><stop offset=".19" stop-color="#d3e7fd"/><stop offset=".49" stop-color="#ebf4fe"/><stop offset=".77" stop-color="#fafcff"/><stop offset="1" stop-color="#fff"/></linearGradient><g fill="#c4ecfe" opacity=".3"><path d="M704.041 2.251v595.396H2.251V2.251zM706.292 0H0v600h706.292z"/><path d="M0 425.269h706.292v2.148H0zm0-85.832h706.292v2.148H0z"/><path d="M0 425.269h706.292v2.148H0zm0 85.933h706.292v2.148H0zm0-257.698h706.292v2.148H0zm0-85.934h706.292v2.148H0zm0-85.933h706.292v2.148H0z"/></g><path d="m605.729 195.703-.921-7.366c26.394-3.171 39.284-16.982 51.969-30.384 12.992-13.811 25.166-26.701 49.514-26.701v7.366c-21.177 0-31.816 11.356-44.092 24.348-12.992 13.811-27.519 29.259-56.47 32.737zM178.414 81.023c-28.951-3.274-43.478-17.494-56.368-30.077C109.668 38.875 99.028 28.44 77.749 28.44v-7.366c24.246 0 36.522 11.867 49.412 24.552 12.583 12.276 25.575 25.064 52.072 28.031z" fill="#f9d5ff"/><g fill="#bfd9ff"><circle cx="607.468" cy="17.698" r="3.069"/><circle cx="650.332" cy="119.693" r="3.069"/><circle cx="50.537" cy="61.893" r="3.069"/><circle cx="252.276" cy="131.662" r="2.762"/></g><path d="M706.292 512.225v87.57H473.453c43.069 0 57.289-27.008 77.749-48.286 11.049-11.458 23.939-21.279 44.092-24.246 22.097-3.274 34.476-13.401 44.911-24.552l1.33-1.432c17.698-19.54 64.757-11.663 64.757 10.946z" fill="url(#a)"/></svg></g><g transform="translate(1475.625 268.125) rotate(0.0 551.25 1121.25) scale(3.891414533594997 3.8924993230435962)"><svg width="283.316" height="576.108" viewBox="0 0 283.316 576.108"><linearGradient id="b" gradientTransform="translate(0 1104)" gradientUnits="userSpaceOnUse" x1="67.495" x2="67.495" y1="-1042.55" y2="-859.362"><stop offset="0" stop-color="#77879d"/><stop offset=".089" stop-color="#a1978e"/><stop offset=".188" stop-color="#c9a780"/><stop offset=".279" stop-color="#e5b275"/><stop offset=".358" stop-color="#f7b96f"/><stop offset=".415" stop-color="#fdbb6d"/><stop offset=".499" stop-color="#fdbb9f"/><stop offset=".599" stop-color="#d1d2d1"/><stop offset="1" stop-color="#feceaa"/></linearGradient><linearGradient xmlns:xlink="http://www.w3.org/1999/xlink" id="d" x1="116.34" x2="116.34" xlink:href="#b" y1="-1045.704" y2="-838.419"/><linearGradient id="c" gradientTransform="translate(0 1104)" gradientUnits="userSpaceOnUse" x1="94.095" x2="94.095" y1="-528.976" y2="-928.187"><stop offset="0" stop-color="#9774ac"/><stop offset=".401" stop-color="#47a6d3"/><stop offset=".501" stop-color="#a7a7ae"/><stop offset=".591" stop-color="#e89ac0"/><stop offset="1" stop-color="#bfe7d1"/></linearGradient><linearGradient xmlns:xlink="http://www.w3.org/1999/xlink" id="e" x1="188.777" x2="188.777" xlink:href="#c" y1="-528.985" y2="-927.962"/><linearGradient xmlns:xlink="http://www.w3.org/1999/xlink" id="f" x1="116.334" x2="116.334" xlink:href="#c" y1="-528.985" y2="-927.962"/><linearGradient xmlns:xlink="http://www.w3.org/1999/xlink" id="g" x1="191.457" x2="191.457" xlink:href="#b" y1="-1033.901" y2="-857.884"/><path d="m23.028 575.829 88.39-.37a8.582 8.582 0 0 0 8.513-8.366l.222-11.178-55.892.815-42.344 10.586c-4.886 1.258-3.923 8.513 1.111 8.513z" fill="#2b2b2b"/><path d="M47.975 314.139c-2.813 6.218-5.774 12.362-8.735 18.507A20.683 20.683 0 0 1 .449 319.172c1.851-8.735 3.923-17.4 6.07-26.058z" fill="#fdc068"/><path d="M6.519 293.188c2.517-10.067 5.182-20.061 7.921-29.981q7.662-27.761 16.361-55.3l1.036-3.406c.222-.592.37-1.184.518-1.7l.592-1.7 2.517-6.736c1.629-4.516 3.406-8.958 5.108-13.474 3.48-8.957 6.959-17.914 10.586-26.8s7.329-17.767 11.179-26.576c1.924-4.368 3.849-8.809 5.848-13.177l3.035-6.515c1.037-2.146 2.073-4.367 3.109-6.514a28.591 28.591 0 0 1 52.709 21.764c-.741 2.221-1.555 4.442-2.369 6.737l-2.443 6.662a705.95 705.95 0 0 1-5.034 13.251c-3.48 8.81-7.033 17.545-10.734 26.281-3.628 8.735-7.477 17.4-11.253 26.058-1.924 4.293-3.849 8.661-5.848 12.955l-2.961 6.44-.74 1.629c-.222.518-.444 1.11-.667 1.628l-1.258 3.332q-10.105 26.538-21.172 52.708c-4.738 11.178-9.624 22.43-14.658 33.535z" fill="url(#b)"/><path d="M62.411 177.334 31.467 305.551l16.508 8.588 22.209-99.495z" fill="#2b2b2b"/><path d="m6.162 294.196 1.005-1.98 40.14 20.366-1.004 1.981z" fill="#2b2b2b"/><path d="M62.707 172.448c2.517-28.723 22.134-25.688 16.286-45.675s5.256-46.268 27.317-44.343c17.026 1.48 18.285.888 25.391 1.554 22.653 2 35.164 37.977 38.273 96.089z" fill="url(#d)"/><path d="M143.916 198.136 124.891 364.7l.222-3.627-4.96 197.137-55.3-1.406c-3.258-16.509-5.478-33.017-7.773-49.525-2.221-16.509-4-33.017-5.7-49.451-.74-8.218-1.628-16.509-2.22-24.726l-1.037-12.363-.888-12.362Q45.457 383.614 44.274 359l.222-3.554c.518-13.991 1.332-27.982 2.221-41.9 1.036-13.917 16.36-141.024 16.36-141.024z" fill="url(#c)"/><path d="m169.9 180.147 32.35 96.829 12.807 45.75 6.367 22.875 3.183 11.4 1.629 5.7c.518 1.925 1.184 3.776 1.776 5.626l51.3 156.052-52.338 19.47c-2.147-3.48-30.13-49.377-37.014-63.961-13.77-29.093-26.651-58.556-38.939-88.242-.741-1.85-1.555-3.7-2.295-5.552l-2-5.626-3.923-11.326c-1.259-3.776-2.665-7.551-3.85-11.327l-3.775-11.4-1.851-5.7-1.777-5.7-3.627-11.4-3.479-11.474-1.7-5.774-1.7-5.775a1128.393 1128.393 0 0 1-12.585-46.267c-.962-3.85-1.85-7.773-2.813-11.7-.888-3.923-1.85-7.773-2.665-11.7l-2.517-11.771-1.11-5.922-.592-2.961-.519-2.961z" fill="url(#e)"/><path d="M169.9 180.147c-1.333 15.176-19.173 36.5-45.676 34.349l-21.246-2.369c-24.133-1.924-41.6-25.095-40.123-41.455z" fill="url(#f)"/><path d="M102.534 82.356s-10.068.222-15.1 6.884l16.953 9.476z" fill="#2b2b2b"/><path d="m113.046 100.493 25.91-8.514-11.548-38.791-31.833-1.11 5.849 39.235a8.917 8.917 0 0 0 11.622 9.18z" fill="#fdc068"/><path d="m98.907 74.213 15.398-5.256-12.881 22.282z" fill="#2b2b2b"/><path d="m156.649 19.506 96.015 60.037a27.519 27.519 0 0 1 3.775 38.79 27.837 27.837 0 0 1-15.176 9.4l-1.776.37-84.467 19.25a28.509 28.509 0 0 1-12.659-55.6l84.467-19.243-13.177 48.711-83.208-67.292z" fill="url(#g)"/><path d="m130.443 53.929-11.252-8.217a20.559 20.559 0 0 1 21.986-34.646l15.546 8.514z" fill="#fdc068"/><g fill="#2b2b2b"><path d="m194.551 575.829 83.134-29.982a8.483 8.483 0 0 0 5.182-10.734l-3.553-10.586L226.976 544 190.7 568.2a4.3 4.3 0 0 0 3.851 7.629zm.963-468.229a1.033 1.033 0 0 1-.666-.222l-25.614-20.655a1.1 1.1 0 0 1 1.406-1.7l25.614 20.654a1.147 1.147 0 0 1 .148 1.554 1.365 1.365 0 0 1-.888.369zM166.5 144.836l-15.916 3.331 19.321 31.98s-.597-19.173-3.405-35.311zm-103.645 27.02a1.147 1.147 0 0 1-1.11-1.184c.518-8.218 14.213-34.276 14.805-35.386a1.093 1.093 0 0 1 1.925 1.036c-.148.3-14.065 26.725-14.51 34.5a1.125 1.125 0 0 1-1.11 1.034zm65.737 155.015a1.089 1.089 0 0 1-1.036-.814l-13.7-46.786a1.124 1.124 0 0 1 2.147-.666l13.7 46.786a1.173 1.173 0 0 1-.741 1.406.8.8 0 0 1-.37.074zm96.089 57.965a1.139 1.139 0 0 1-1.11-1.111V357a1.11 1.11 0 0 1 2.22 0v26.724a1.139 1.139 0 0 1-1.11 1.112zm-100.827 12.881a1.361 1.361 0 0 1-.888-.371l-7.255-8.661a1.1 1.1 0 0 1 1.7-1.406l7.255 8.661a1.147 1.147 0 0 1-.148 1.554 1.031 1.031 0 0 1-.664.223zm5.695-344.41 26.19-34.395 1.767 1.345-26.19 34.396z"/></g><path d="m95.279 79.1 18.8-6.736a18.747 18.747 0 0 0 11.326-23.911L115.267 20.1A29.891 29.891 0 0 0 76.994 2.035a29.891 29.891 0 0 0-18.063 38.273l9.328 25.984A21.016 21.016 0 0 0 95.279 79.1z" fill="#fdc068"/><path d="M64.558 48.673a3.456 3.456 0 0 1-1.629 2.887l-2.221-6.219h.444a3.335 3.335 0 0 1 3.406 3.332zm7.55 7.181h-.222l-3.331-.667a3.4 3.4 0 0 1-2-1.776 3.336 3.336 0 0 1-.148-2.665l2.3-6.219a1.1 1.1 0 0 1 2.073.74l-2.3 6.219a1.443 1.443 0 0 0 .074.962 1.05 1.05 0 0 0 .666.592l3.11.593a1.079 1.079 0 0 1 .888 1.258 1.171 1.171 0 0 1-1.11.963zm3.258 15.768a1.382 1.382 0 0 1-.519-.148 1.1 1.1 0 0 1-.444-1.481 7.286 7.286 0 0 1 9.7-2.961 1.128 1.128 0 0 1-.888 2.073 5.16 5.16 0 0 0-6.885 1.924 1.156 1.156 0 0 1-.964.593z" fill="#2b2b2b"/><circle cx="79.511" cy="42.306" fill="#2b2b2b" r="3.405"/><path d="M79.955 34.015h-.222l-8.513-1.554a1.089 1.089 0 0 1 .37-2.147l8.51 1.554a1.081 1.081 0 0 1-.149 2.147zm-25.317 9.476a1.2 1.2 0 0 1-.667-.222 1.083 1.083 0 0 1-.222-1.555l4.516-6.144a1.11 1.11 0 0 1 1.777 1.33l-4.516 6.145a1.055 1.055 0 0 1-.888.446z" fill="#2b2b2b"/><path d="M57.451 25.65c0 7.773 15.176.148 23.245-7.107a3.922 3.922 0 0 1 6.144 1.185l6.515 13.4a7.474 7.474 0 0 0 6.218 4.145l6.515.445 7.847 12.066a12.136 12.136 0 0 0 14.657 4.664s-10.068-26.428-14.509-37.754S94.909-4.183 76.994 1.887 57.451 25.65 57.451 25.65z" fill="#565656"/><path d="M108.012 43.2a5.047 5.047 0 0 1-6.514-3.036l-2.517-6.884a5.048 5.048 0 0 1 3.035-6.515 5.048 5.048 0 0 1 6.514 3.035l2.517 6.884a5.048 5.048 0 0 1-3.035 6.516z" fill="#fdc068"/></svg></g><g transform="translate(386.25 361.875) rotate(0.0 678.75 1076.25) scale(3.7820850363163747 3.7868192301805537)"><svg width="358.929" height="568.419" viewBox="0 0 358.929 568.419"><linearGradient id="h" gradientUnits="userSpaceOnUse" x1="133.892" x2="129.988" y1="597.266" y2="70.209"><stop offset="0" stop-color="#9774ac"/><stop offset=".4" stop-color="#47a6d3"/><stop offset=".5" stop-color="#a7a7ae"/><stop offset=".59" stop-color="#e89ac0"/><stop offset="1" stop-color="#bfe7d1"/></linearGradient><linearGradient id="i" gradientTransform="matrix(.956 .295 .295 -.956 -26405.841 15030.173)" gradientUnits="userSpaceOnUse" x1="21024.802" x2="21024.802" y1="21662.177" y2="22026.666"><stop offset=".007" stop-color="#ffe0c2"/><stop offset=".08" stop-color="#dcd3d1"/><stop offset=".18" stop-color="#b2c3e4"/><stop offset=".27" stop-color="#93b7f1"/><stop offset=".347" stop-color="#81b1f9"/><stop offset=".401" stop-color="#7aaefc"/><stop offset=".591" stop-color="#b8c1fc"/><stop offset="1" stop-color="#d2d4d4"/></linearGradient><path d="M258.442 349.651c-8.929-55.486-25.95-185.364-25.95-185.364l-64.016 18.237-37.084-13.894-51.81 167.7L6.645 500.578l47.54 30.094s89.574-134.657 93.758-145.9c5.508-14.794 14.619-42.711 24.082-72.572 2.365 18.9 4.256 36.39 5.089 49.395 3.319 51.834 18.733 187.668 18.733 187.668l53.84.4s10.413-189.687 8.755-200.012z" fill="url(#h)"/><path d="m232.492 164.287-64.016 18.237-31.81-11.918a36.416 36.416 0 0 0-9.844 18.592l4.987 1.027-5.4.3-12.839 35.793-33.988 110.013-15.537 34.99 22.926 6.145a317 317 0 0 0 59.67 9.985 24.906 24.906 0 0 0 1.3-2.68c5.508-14.794 14.619-42.711 24.082-72.572 2.365 18.9 4.256 36.39 5.089 49.395.472 7.357 1.187 16.408 2.066 26.52q3.342-.1 6.685-.269l.541-.027c30.237-3.22 55.2-4.839 71.417-3.8.709-18.584 1.025-31.841.619-34.367-8.927-55.486-25.948-185.364-25.948-185.364z" fill="#2b2b2b"/><path d="m312.747 112.512-29.485 50.732-35.7-56.435a27.757 27.757 0 0 0-46.9 29.7l58.7 92.8a27.793 27.793 0 0 0 38.3 8.6c6.563-4.172 11.515-11.018 14.6-18.061 2.263-5.168 25.384-59.209 37.54-87.629z" fill="#fff"/><path d="M172.047 313.5a1.126 1.126 0 0 1-1.076-1.456l23.195-75.491a1.125 1.125 0 1 1 2.151.661l-23.195 75.491a1.126 1.126 0 0 1-1.075.795zm119.581 254.617-87.111.3a8.372 8.372 0 0 1-8.368-8.167l-.3-10.99 53.84.4a9.388 9.388 0 0 1 2.42.3l40.531 9.881c4.937 1.118 4.029 8.176-1.012 8.276zm-213.303-1.271-74.34-45.409A8.372 8.372 0 0 1 1.14 510.1l5.5-9.517 45.637 28.568a9.376 9.376 0 0 1 1.9 1.526l29.335 29.662c3.631 3.53-.842 9.061-5.187 6.507z" fill="#2b2b2b"/><path d="M223.287 78.206 203.7 76.093a18.389 18.389 0 0 1-16.283-20.267l3.295-29.508A29.68 29.68 0 0 1 223.3.17a29.526 29.526 0 0 1 26.048 32.57l-2.97 27.006a20.95 20.95 0 0 1-23.091 18.46z" fill="#fdc068"/><path d="M131.392 168.63c-2.764 14.764 8.413 39.74 34.072 44.812l20.871 3.488c23.382 4.58 46.118-12.67 49.239-28.59z" fill="url(#i)"/><path d="m183.948 137.505-4.228-40.233.869-5.138-3.651-3.373 3.659-.734 8.382-45.538 31.132 3.367-3.232 56.725c-.317 4.856-.825 20.807-5.7 20.59-1.223-.005-26.189 14.819-27.231 14.334z" fill="#fdc068"/><path d="M218.3 77.668 205.51 76.3l12.144 14.027z" fill="#2b2b2b"/><path d="M357.183 114.96a19.878 19.878 0 0 0-35.316-18.139l-9.12 15.691 37.053 19.707 7.383-17.259z" fill="#fdc068"/><path d="M235.89 189.941c-.316-15.722 4.274-83.121-8.089-92.636a24.12 24.12 0 0 0-6.023-3.3 35.894 35.894 0 0 0-4.355-.965s0 17.784-19.186 15.571c-17.122-1.975-15.9-21.218-18-20.72-15.966 3.778-27.786 19.74-25.955 37.362a35.336 35.336 0 0 1-.544 11.334c-1.384 6.537-18.72 12.792-22.341 32.04l4.988 1.028-5.4.3-64.648 180.188 25.205 6.757a319.049 319.049 0 0 0 98.893 10.379l.541-.027c31.655-3.371 57.539-4.99 73.646-3.638z" fill="#fff"/><path d="m142.165 201.8 48.08-72.1c-14-5.661-10.013-41.81-10.013-41.81s-25.074-8.018-36.155 11.06l-60.956 91.409a27.7 27.7 0 0 0 7.708 38.459c1.7 1.125 60.5 38.789 87.937 56.366l24.29-33.835z" fill="#fff"/><g fill="#2b2b2b"><path d="M283.263 164.244a1 1 0 0 1-.846-.465l-35.7-56.436c-5.491-8.638-14.761-12.98-28.338-13.272a1 1 0 0 1 .043-2c14.3.308 24.1 4.953 29.984 14.2l35.7 56.438a1 1 0 0 1-.844 1.534z"/><path d="M279.467 170.772a1 1 0 0 1-.863-1.5l33.278-57.26a1 1 0 0 1 1.729 1l-33.278 57.26a1 1 0 0 1-.866.5z"/><path d="M282.886 243.182a28.824 28.824 0 0 1-24.366-13.337l-22.97-36.313a1 1 0 0 1 1.691-1.069l22.968 36.311a26.854 26.854 0 0 0 36.921 8.289c5.81-3.693 10.86-9.95 14.216-17.616 2.337-5.337 27.029-63.054 37.537-87.621a1 1 0 1 1 1.838.786c-10.508 24.57-35.2 82.293-37.542 87.637-3.514 8.026-8.834 14.6-14.979 18.5a28.624 28.624 0 0 1-15.314 4.433zM142.164 202.8a1 1 0 0 1-.831-1.555l34.967-52.432a1 1 0 1 1 1.664 1.11L143 202.355a1 1 0 0 1-.836.445z"/><path d="M202.229 251.679a1 1 0 0 1-.63-.224l-67.453-54.693a1 1 0 0 1 1.259-1.554l67.454 54.692a1 1 0 0 1-.63 1.777z"/><path d="M177.81 285.753a1 1 0 0 1-.539-.158c-32.144-20.588-86.313-55.289-87.95-56.374a28.768 28.768 0 0 1-7.989-39.845l60.958-91.407c8.155-12.224 20.085-15.711 37.546-10.969a1 1 0 0 1-.524 1.93c-16.513-4.481-27.748-1.256-35.358 10.152L83 190.484a26.764 26.764 0 0 0 7.429 37.07c1.626 1.078 55.785 35.772 87.924 56.357a1 1 0 0 1-.54 1.842z"/><path d="M66.337 351.143a1 1 0 0 1-.941-1.338l39.963-111.389a1 1 0 1 1 1.882.675L67.278 350.48a1 1 0 0 1-.941.663zm198.284 13.47a1 1 0 0 1-.986-.837L234.9 190.105a1 1 0 0 1-.013-.144c-.06-3.014.055-7.809.2-13.88.125-5.164.267-11.016.336-17.272a1 1 0 0 1 2 .022c-.07 6.269-.211 12.129-.336 17.3-.145 6-.26 10.746-.2 13.721l28.72 173.6a1 1 0 0 1-.823 1.149 1.018 1.018 0 0 1-.163.012zm-34.19-227.241h-15.894a1 1 0 1 1 0-2h15.894a1 1 0 0 1 0 2z"/></g><path d="m225.934 238.004 59.687 43.777-54.762 74.665-59.687-43.778z" fill="#ababc2"/><path d="m243.839 242.891 31.74 23.28-7.863 10.722-31.741-23.28z" fill="#de6381"/><path d="m216.108 261.97-13.052-10.621-24.29 33.835 13.85 8.87a19.911 19.911 0 0 0 23.492-32.084z" fill="#fdc068"/><path d="m197.243 42.194.51-7.351a5.271 5.271 0 0 1 5.513-4.7l.1.008a5.073 5.073 0 0 1 4.6 5.5l-.511 7.351a5.251 5.251 0 0 1-3.241 4.293l-4.951-.687a5.259 5.259 0 0 1-2.02-4.414z" fill="#96b5c8"/><path d="M217.423 93.043s-.353 5.271-2.454 8.709l22.608-4.352-7.146-2.353-7.5-1.711z" fill="#2b2b2b"/><path d="M258.442 349.651c-8.929-55.486-25.95-185.364-25.95-185.364l-64.016 18.237-37.084-13.894-51.81 167.7L6.645 500.578l47.54 30.094s89.574-134.657 93.758-145.9c5.508-14.794 14.619-42.711 24.082-72.572 2.365 18.9 4.256 36.39 5.089 49.395 3.319 51.834 18.733 187.668 18.733 187.668l53.84.4s10.413-189.687 8.755-200.012z" fill="url(#h)"/><path d="m232.492 164.287-64.016 18.237-31.81-11.918a36.416 36.416 0 0 0-9.844 18.592l4.987 1.027-5.4.3-12.839 35.793-33.988 110.013-15.537 34.99 22.926 6.145a317 317 0 0 0 59.67 9.985 24.906 24.906 0 0 0 1.3-2.68c5.508-14.794 14.619-42.711 24.082-72.572 2.365 18.9 4.256 36.39 5.089 49.395.472 7.357 1.187 16.408 2.066 26.52q3.342-.1 6.685-.269l.541-.027c30.237-3.22 55.2-4.839 71.417-3.8.709-18.584 1.025-31.841.619-34.367-8.927-55.486-25.948-185.364-25.948-185.364z" fill="#2b2b2b"/><path d="m312.747 112.512-29.485 50.732-35.7-56.435a27.757 27.757 0 0 0-46.9 29.7l58.7 92.8a27.793 27.793 0 0 0 38.3 8.6c6.563-4.172 11.515-11.018 14.6-18.061 2.263-5.168 25.384-59.209 37.54-87.629z" fill="#fff"/><path d="M172.047 313.5a1.126 1.126 0 0 1-1.076-1.456l23.195-75.491a1.125 1.125 0 1 1 2.151.661l-23.195 75.491a1.126 1.126 0 0 1-1.075.795zm119.581 254.617-87.111.3a8.372 8.372 0 0 1-8.368-8.167l-.3-10.99 53.84.4a9.388 9.388 0 0 1 2.42.3l40.531 9.881c4.937 1.118 4.029 8.176-1.012 8.276zm-213.303-1.271-74.34-45.409A8.372 8.372 0 0 1 1.14 510.1l5.5-9.517 45.637 28.568a9.376 9.376 0 0 1 1.9 1.526l29.335 29.662c3.631 3.53-.842 9.061-5.187 6.507z" fill="#2b2b2b"/><path d="M223.287 78.206 203.7 76.093a18.389 18.389 0 0 1-16.283-20.267l3.295-29.508A29.68 29.68 0 0 1 223.3.17a29.526 29.526 0 0 1 26.048 32.57l-2.97 27.006a20.95 20.95 0 0 1-23.091 18.46z" fill="#fdc068"/><path d="M131.392 168.63c-2.764 14.764 8.413 39.74 34.072 44.812l20.871 3.488c23.382 4.58 46.118-12.67 49.239-28.59z" fill="url(#i)"/><path d="m183.948 137.505-4.228-40.233.869-5.138-3.651-3.373 3.659-.734 8.382-45.538 31.132 3.367-3.232 56.725c-.317 4.856-.825 20.807-5.7 20.59-1.223-.005-26.189 14.819-27.231 14.334z" fill="#fdc068"/><path d="M218.3 77.668 205.51 76.3l12.144 14.027z" fill="#2b2b2b"/><path d="M357.183 114.96a19.878 19.878 0 0 0-35.316-18.139l-9.12 15.691 37.053 19.707 7.383-17.259z" fill="#fdc068"/><path d="M235.89 189.941c-.316-15.722 4.274-83.121-8.089-92.636a24.12 24.12 0 0 0-6.023-3.3 35.894 35.894 0 0 0-4.355-.965s0 17.784-19.186 15.571c-17.122-1.975-15.9-21.218-18-20.72-15.966 3.778-27.786 19.74-25.955 37.362a35.336 35.336 0 0 1-.544 11.334c-1.384 6.537-18.72 12.792-22.341 32.04l4.988 1.028-5.4.3-64.648 180.188 25.205 6.757a319.049 319.049 0 0 0 98.893 10.379l.541-.027c31.655-3.371 57.539-4.99 73.646-3.638z" fill="#fff"/><path d="m142.165 201.8 48.08-72.1c-14-5.661-10.013-41.81-10.013-41.81s-25.074-8.018-36.155 11.06l-60.956 91.409a27.7 27.7 0 0 0 7.708 38.459c1.7 1.125 60.5 38.789 87.937 56.366l24.29-33.835z" fill="#fff"/><path d="M283.263 164.244a1 1 0 0 1-.846-.465l-35.7-56.436c-5.491-8.638-14.761-12.98-28.338-13.272a1 1 0 0 1 .043-2c14.3.308 24.1 4.953 29.984 14.2l35.7 56.438a1 1 0 0 1-.844 1.534z" fill="#2b2b2b"/><path d="M279.467 170.772a1 1 0 0 1-.863-1.5l33.278-57.26a1 1 0 0 1 1.729 1l-33.278 57.26a1 1 0 0 1-.866.5z" fill="#2b2b2b"/><path d="M282.886 243.182a28.824 28.824 0 0 1-24.366-13.337l-22.97-36.313a1 1 0 0 1 1.691-1.069l22.968 36.311a26.854 26.854 0 0 0 36.921 8.289c5.81-3.693 10.86-9.95 14.216-17.616 2.337-5.337 27.029-63.054 37.537-87.621a1 1 0 1 1 1.838.786c-10.508 24.57-35.2 82.293-37.542 87.637-3.514 8.026-8.834 14.6-14.979 18.5a28.624 28.624 0 0 1-15.314 4.433zM142.164 202.8a1 1 0 0 1-.831-1.555l34.967-52.432a1 1 0 1 1 1.664 1.11L143 202.355a1 1 0 0 1-.836.445z" fill="#2b2b2b"/><path d="M202.229 251.679a1 1 0 0 1-.63-.224l-67.453-54.693a1 1 0 0 1 1.259-1.554l67.454 54.692a1 1 0 0 1-.63 1.777z" fill="#2b2b2b"/><path d="M177.81 285.753a1 1 0 0 1-.539-.158c-32.144-20.588-86.313-55.289-87.95-56.374a28.768 28.768 0 0 1-7.989-39.845l60.958-91.407c8.155-12.224 20.085-15.711 37.546-10.969a1 1 0 0 1-.524 1.93c-16.513-4.481-27.748-1.256-35.358 10.152L83 190.484a26.764 26.764 0 0 0 7.429 37.07c1.626 1.078 55.785 35.772 87.924 56.357a1 1 0 0 1-.54 1.842z" fill="#2b2b2b"/><path d="M66.337 351.143a1 1 0 0 1-.941-1.338l39.963-111.389a1 1 0 1 1 1.882.675L67.278 350.48a1 1 0 0 1-.941.663zm198.284 13.47a1 1 0 0 1-.986-.837L234.9 190.105a1 1 0 0 1-.013-.144c-.06-3.014.055-7.809.2-13.88.125-5.164.267-11.016.336-17.272a1 1 0 0 1 2 .022c-.07 6.269-.211 12.129-.336 17.3-.145 6-.26 10.746-.2 13.721l28.72 173.6a1 1 0 0 1-.823 1.149 1.018 1.018 0 0 1-.163.012zm-34.19-227.241h-15.894a1 1 0 1 1 0-2h15.894a1 1 0 0 1 0 2z" fill="#2b2b2b"/><path d="m225.934 238.004 59.687 43.777-54.762 74.665-59.687-43.778z" fill="#ababc2"/><path d="m243.839 242.891 31.74 23.28-7.863 10.722-31.741-23.28z" fill="#de6381"/><path d="m216.108 261.97-13.052-10.621-24.29 33.835 13.85 8.87a19.911 19.911 0 0 0 23.492-32.084z" fill="#fdc068"/><path d="M217.423 93.043s-.353 5.271-2.454 8.709l22.608-4.352-7.146-2.353-7.5-1.711z" fill="#2b2b2b"/></svg></g><g transform="translate(1376.25 286.875) rotate(15.682275367629526 -141.5625 153.75) scale(-3.8353946815860414 3.8029632194711716)"><svg width="73.819" height="80.858" viewBox="0 0 73.819 80.858"><path d="M61.667 24.784A31.62 31.62 0 0 1 52.483 8.56 11.14 11.14 0 0 0 46.226.983a10.96 10.96 0 0 0-12.621 2.579l-4.459 4.835a2.911 2.911 0 0 1-4.54-.205C20.255 2.392 12.142.98 6.086 4.967c-.196.132-.389.268-.578.409-6.065 4.525-7.313 13.111-2.787 19.176L12.323 37.3l25.542 1.792 8.049 18.295c1.25-1.331 3.141-1.99 5.044-1.537l.06.015a5.264 5.264 0 0 1 3.893 6.401l-1.585 6.708a5.263 5.263 0 0 1-1.279 2.354l3.712 8.439 8.395 1.09 9.664-44.961z" fill="#2b2b2b"/></svg></g><g transform="translate(1126.875 474.375) rotate(0.0 314.0625 214.6875) scale(3.825528493906561 3.8172774310556354)"><svg width="164.193" height="112.482" viewBox="0 0 164.193 112.482"><g fill="#96b5c8"><path d="m.007 12.058.51-7.351A5.271 5.271 0 0 1 6.03.007l.1.008a5.074 5.074 0 0 1 4.6 5.505l-.511 7.351a5.256 5.256 0 0 1-3.241 4.294l-4.951-.687a5.261 5.261 0 0 1-2.02-4.42z"/><path d="M117.4 112.482a48.48 48.48 0 0 1-2.044-.043c-27.519-1.15-59.573-25.262-69.709-52.076-11.048.5-20.267-2.612-27.422-9.262C2.379 36.374 2.4 9.692 2.413 8.563a2.5 2.5 0 0 1 5 .037c0 .255 0 25.643 14.232 38.853 6.493 6.026 15.079 8.652 25.518 7.805a2.49 2.49 0 0 1 2.57 1.688c8.757 25.8 39.519 49.4 65.833 50.5 10.923.455 26.53-1.57 33.8-20.656a42.27 42.27 0 0 0 1.3-9.4c.014-3.6.014-3.627-.1-7.294a2.534 2.534 0 0 1 2.327-2.662 2.759 2.759 0 0 1 2.948 2.3 42.753 42.753 0 0 1-.129 7.081c-.216 2.927-.909 8.641-1.76 10.968-5.99 16.379-19.896 24.699-36.552 24.699z"/><path d="M49.093 29.965a21.05 21.05 0 0 1-2.481 7.479c3.782 12.3-.908 18.382-1.17 18.708a2.5 2.5 0 0 0 3.833 3.211c.351-.415 8.45-10.345-.182-29.398z"/></g><path d="M161.63 50.628h.9a1.662 1.662 0 0 1 1.662 1.662v24.963a1.662 1.662 0 0 1-1.662 1.662h-.9a5.933 5.933 0 0 1-5.933-5.933V56.561a5.933 5.933 0 0 1 5.933-5.933z" fill="#8670bd"/><path d="M147.2 58.727h8.497v12.087H147.2z" fill="#3a3a3a"/><path d="M149.539 54.638a1.139 1.139 0 0 1 1.139 1.139v17.988a1.139 1.139 0 0 1-1.139 1.139 4.241 4.241 0 0 1-4.241-4.241V58.879a4.241 4.241 0 0 1 4.241-4.241z" fill="#8670bd"/></svg></g><g transform="translate(1333.125 465.0) rotate(6.863948633643573 -58.125 75.0) translate(-13.125 0.0) scale(-3.7881256517205424 3.7744394957348835)"><svg width="27.223" height="39.741" viewBox="3.465 0 27.223 39.741"><g fill="#2b2b2b"><path d="m28.855 9.747-7.921-7.054a1.103 1.103 0 0 1 1.492-1.626l7.922 7.054c.427.423.456 1.103.066 1.561-.17.218-.418.361-.692.398a1.021 1.021 0 0 1-.867-.333zm-27.659-.6-.042-.032a1.073 1.073 0 0 1-.17-1.508L6.568.411A1.099 1.099 0 0 1 8.32 1.739L2.736 8.935a.857.857 0 0 1-.692.398 1.554 1.554 0 0 1-.848-.186z"/><ellipse cx="12.972" cy="33.963" rx="3.327" ry="5.778" transform="matrix(.9999 -.0122 .0122 .9999 -.4138 .1609)"/><circle cx="3.443" cy="14.032" r="3.443"/><circle cx="25.143" cy="13.99" r="3.443"/><path d="M12.947 25.618c-.175 0-.352-.041-.518-.127l-3.083-1.66a3.564 3.564 0 0 1-1.292-2.243 3.244 3.244 0 0 1 .708-2.541l3.917-5.13a1.125 1.125 0 1 1 1.788 1.366l-3.939 5.159c-.26.32-.275.622-.246.824.045.31.218.601.487.821l.021.017 2.677 1.39a1.126 1.126 0 0 1-.52 2.124z"/></g></svg></g><g transform="translate(320.625 2505.0) rotate(0.0 720.0 4.6875) scale(4.826804856301997 3.088962108731466)"><svg width="298.334" height="3.035" viewBox="0 0 298.334 3.035"><path d="M0 0h298.334v3.035H0z" fill="#2b2b2b"/></svg></g><g transform="translate(1188.75 2505.0) rotate(0.0 720.0 4.6875) scale(4.826804856301997 3.088962108731466)"><svg width="298.334" height="3.035" viewBox="0 0 298.334 3.035"><path d="M0 0h298.334v3.035H0z" fill="#2b2b2b"/></svg></g></svg>