<svg xmlns="http://www.w3.org/2000/svg" viewBox="0 0 1200 800" width="1200" height="800"><g transform="translate(54.0 706.0) rotate(0.0 550.5 2.0) scale(0.9207825899331116 1.0)"><svg width="1195.722" height="4" viewBox="0 0 1195.722 4"><path d="M1193.721 4H2a2 2 0 0 1 0-4h1191.722a2 2 0 0 1-.001 4z" fill="#222433"/></svg></g><g transform="translate(454.0 185.0) rotate(0.0 306.5 262.5) scale(0.7136636909335606 0.714673679997713)"><svg width="858.948" height="734.601" viewBox="0 0 858.948 734.601"><path d="M856.081 731.6H2.868V3h853.213z" fill="#fff"/><path d="M0 731.6V3a2.934 2.934 0 0 1 2.868-3h853.213a2.934 2.934 0 0 1 2.867 3v728.6a2.935 2.935 0 0 1-2.867 3H2.868a2.935 2.935 0 0 1-2.868-3zM853.213 5.993H5.736v722.615h847.477z" fill="#222433"/><path d="M856.081 44.82H2.868V3h853.213z" fill="#fff"/><path d="M0 44.82V3a2.934 2.934 0 0 1 2.868-3h853.213a2.934 2.934 0 0 1 2.867 3v41.82a2.934 2.934 0 0 1-2.867 3H2.868a2.934 2.934 0 0 1-2.868-3zM853.213 5.993H5.736v35.83h847.477z" fill="#222433"/><ellipse cx="825.693" cy="23.907" fill="#fff" rx="9.17" ry="9.582"/><path d="M813.654 23.907a12.051 12.051 0 1 1 24.079 0 12.051 12.051 0 1 1-24.079 0zm5.736 0a6.31 6.31 0 1 0 12.607 0 6.31 6.31 0 1 0-12.607 0z" fill="#222433"/><ellipse cx="798.591" cy="23.907" fill="#fff" rx="9.17" ry="9.582"/><path d="M786.551 23.907a12.051 12.051 0 1 1 24.079 0 12.051 12.051 0 1 1-24.079 0zm5.736 0a6.31 6.31 0 1 0 12.607 0 6.31 6.31 0 1 0-12.607 0z" fill="#222433"/><ellipse cx="771.005" cy="23.907" fill="#fff" rx="9.17" ry="9.582"/><path d="M758.962 23.907a12.051 12.051 0 1 1 24.079 0 12.051 12.051 0 1 1-24.079 0zm5.736 0a6.31 6.31 0 1 0 12.607 0 6.31 6.31 0 1 0-12.607 0z" fill="#222433"/><path d="M6.767 682.413h845.414v46.195H6.767z" fill="#82b1ff"/><path d="M469.323 90.726h73.434a42.161 42.161 0 0 1 42.161 42.161V173.8h-134.31v-64.359a18.715 18.715 0 0 1 18.715-18.715z" fill="#fff"/><path d="M584.917 176.8H450.608a3 3 0 0 1-3-3v-64.359a21.74 21.74 0 0 1 21.715-21.715h73.434a45.211 45.211 0 0 1 45.16 45.161V173.8a3 3 0 0 1-3 3zm-131.309-6h128.309v-37.91a39.205 39.205 0 0 0-39.16-39.161h-73.434a15.733 15.733 0 0 0-15.715 15.715z" fill="#222433"/><path d="M440.887 167.167c20.134 0 9.042 22.721 6.081 47.578-7.774 1.674-23.244 8.575-28.737 14.447-5.774 6.179-9.356 16.062-11.067 31.987a53.07 53.07 0 0 1 33.723-94.012zm180.799 69.383a70.583 70.583 0 0 1-4.511 17.132C603.423 239 579.767 235.427 565.76 239.46c-8.847 2.546-36 19.886-36 19.886l-5.444-97.078c8.8-2.424 27.364-5.973 36.992-4.692a70.289 70.289 0 0 1 60.379 78.964v.01zM411.563 344.841c7.441 17.175 32.442 41.092 59.041 45.972 4.3 8.346 7.3 23.5 11.155 35.889-10.708 8.539-19.218 26.408-22.294 43.429q-4.01.321-8.109.321c-4.289 0-98.144-21.846-101.735-101.815-1.365-30.406 13.345-57.753 34.5-76.4l8.724 11.718s2.847 3.727 13.376 5.865a74.71 74.71 0 0 0 5.342 35.021zm152.876-12.669c18.612-14.523 26.8-38.081 29.538-60.039A168.117 168.117 0 0 1 686.984 472.9c-27.9-10.436-43.674-20.392-109.63-26.176-23-2.017-41.72 11.994-45.056-1.059-7.926-31.006-14.386-55.836-28.258-98.7 46.169 6.402 48.141-5.227 60.399-14.793z" fill="#5a38fd"/><path d="M744.542 680.4H259.365v-89.3c0-87.635 71.109-158.676 158.827-158.676h167.524c87.717 0 158.826 71.041 158.826 158.676z" fill="#fff"/><path d="M744.542 684.406H259.365a3 3 0 0 1-3.006-3V592.1c0-89.151 72.6-161.68 161.833-161.68h167.524c89.234 0 161.832 72.529 161.832 161.68v89.3a3 3 0 0 1-3.006 3.006zM262.371 678.4h479.165v-86.3c0-85.838-69.9-155.673-155.82-155.673H418.192c-85.92 0-155.821 69.835-155.821 155.673z" fill="#222433"/><path d="m657.209 680.593 11.51-27.727" fill="#fff"/><path d="M657.208 683.6a3 3 0 0 1-2.775-4.154l11.509-27.729a3.006 3.006 0 0 1 5.553 2.3l-11.5 27.727a3 3 0 0 1-2.782 1.853z" fill="#222433"/><path d="m279.89 447.216-84.99 3.195-22.327-48.456 6.359-24.223 100.414-1.844 10.976 37.284z" fill="#fff"/><path d="M252.9 362.783c-23.384-5-44.574 7.157-65.165 3.346-21.5-4.039-35.973-8.12-45.092-5.6a10.717 10.717 0 0 0-7.61 11.91c2.391 16.617 15.522 10.867 45.136 26.052 1.751.9-1.479 2.29 5.435.264" fill="#fff"/><path d="M181.258 402.057a2.637 2.637 0 0 1-1.523-.431 2.476 2.476 0 0 1-1.025-1.342A151.449 151.449 0 0 0 152.476 390c-11.227-3.463-18-5.553-19.685-17.244a12.98 12.98 0 0 1 9.244-14.407c7.732-2.137 18.558.05 33.544 3.08 3.973.8 8.082 1.632 12.569 2.476 9.362 1.731 18.94 0 29.079-1.827 11.515-2.077 23.422-4.226 36.141-1.5a2.258 2.258 0 0 1-.945 4.416c-11.848-2.531-23.309-.463-34.392 1.537-10.558 1.905-20.531 3.7-30.713 1.822-4.521-.85-8.647-1.684-12.635-2.49-14.371-2.905-24.754-5-31.441-3.153a8.456 8.456 0 0 0-5.976 9.411c1.275 8.859 5.745 10.238 16.544 13.569a157.16 157.16 0 0 1 27.39 10.8 3.587 3.587 0 0 1 1.1.847 80.5 80.5 0 0 0 2.667-.741 2.259 2.259 0 1 1 1.273 4.334 21.317 21.317 0 0 1-4.98 1.131z" fill="#222433"/><path d="M181.179 402.558a3.12 3.12 0 0 1-1.718-.514 2.961 2.961 0 0 1-1.154-1.4 151.223 151.223 0 0 0-25.969-10.156c-11.424-3.524-18.314-5.649-20.042-17.654a13.519 13.519 0 0 1 9.6-14.959c7.855-2.171 18.729.028 33.781 3.07 3.974.8 8.079 1.633 12.562 2.475 9.252 1.71 18.767 0 28.842-1.817 11.622-2.1 23.577-4.254 36.391-1.512a2.757 2.757 0 0 1 2.095 3.295 2.771 2.771 0 0 1-3.246 2.1c-11.756-2.512-23.167-.452-34.2 1.539-10.608 1.914-20.622 3.72-30.892 1.822a908.162 908.162 0 0 1-12.644-2.492c-14.3-2.891-24.634-4.981-31.209-3.161a7.975 7.975 0 0 0-5.614 8.851c1.23 8.553 5.305 9.81 16.2 13.169a158.071 158.071 0 0 1 27.468 10.829 4.075 4.075 0 0 1 1.033.736 99.86 99.86 0 0 0 2.366-.664 2.759 2.759 0 1 1 1.553 5.295 21.472 21.472 0 0 1-5.114 1.15zM149.234 358a26.5 26.5 0 0 0-7.065.837 12.513 12.513 0 0 0-8.883 13.85c1.637 11.382 8.3 13.437 19.338 16.841a152.243 152.243 0 0 1 26.311 10.312l.189.094.063.2a1.98 1.98 0 0 0 .818 1.071 2.079 2.079 0 0 0 1.238.352h.014a21.556 21.556 0 0 0 4.841-1.11 1.759 1.759 0 1 0-.993-3.375c-1.262.367-2.113.6-2.685.746l-.3.075-.2-.23a3.083 3.083 0 0 0-.946-.73 157.052 157.052 0 0 0-27.305-10.763c-10.7-3.3-15.579-4.806-16.9-13.979a8.98 8.98 0 0 1 6.33-9.961c6.813-1.887 17.244.223 31.681 3.142 3.967.8 8.069 1.631 12.629 2.489 10.09 1.864 20.015.074 30.526-1.822 11.135-2.01 22.644-4.089 34.59-1.534a1.77 1.77 0 0 0 2.066-1.341 1.761 1.761 0 0 0-1.334-2.1c-12.617-2.7-24.472-.559-35.938 1.51-10.228 1.842-19.83 3.572-29.264 1.826-4.491-.844-8.6-1.674-12.574-2.477-10.791-2.181-19.417-3.923-26.247-3.923z"/><path d="m193.753 449.216-11.473 56.513h107.913l2.726-89.858c5.767-35.342-26.826-62.147-62.182-51.175-2.929.753-10.229 4.506-16.662 11.582" fill="#fff"/><path d="M290.193 507.987H182.28a2.259 2.259 0 0 1-2.261-2.258 2.215 2.215 0 0 1 .046-.452l11.473-56.513a2.261 2.261 0 0 1 4.431.9l-10.926 53.805H288l2.659-87.668a2.218 2.218 0 0 1 .029-.294c2.538-15.557-2.562-30.174-14-40.1-12.007-10.428-28.935-13.626-45.287-8.55l-.109.03c-2.394.613-9.344 4.088-15.55 10.916a2.26 2.26 0 0 1-3.347-3.036c6.658-7.324 14.214-11.317 17.717-12.236 17.838-5.521 36.355-1.98 49.541 9.471 12.6 10.947 18.255 27.01 15.515 44.091l-2.72 89.709a2.259 2.259 0 0 1-2.259 2.191z" fill="#222433"/><path d="M182.279 508.487a2.756 2.756 0 0 1-2.7-3.309l11.473-56.514a2.761 2.761 0 0 1 5.411 1.1l-10.805 53.2h101.857l2.644-87.183a2.723 2.723 0 0 1 .035-.361c2.51-15.381-2.53-29.831-13.829-39.644-11.878-10.315-28.63-13.474-44.812-8.451l-.121.035c-2.358.6-9.186 4.025-15.316 10.771a2.759 2.759 0 0 1-4.09-3.705c6.722-7.395 14.425-11.459 17.963-12.388 17.982-5.566 36.679-1.986 49.995 9.578 12.733 11.058 18.449 27.295 15.682 44.547l-2.714 89.645a2.747 2.747 0 0 1-2.76 2.676H182.279zm11.473-61.033a1.763 1.763 0 0 0-1.724 1.409l-11.473 56.514a1.759 1.759 0 0 0 1.724 2.11h107.913a1.75 1.75 0 0 0 1.76-1.706l2.72-89.709c2.718-16.968-2.877-32.872-15.343-43.7-13.054-11.337-31.4-14.839-49.065-9.372-3.444.9-10.922 4.865-17.494 12.095a1.76 1.76 0 0 0 2.61 2.36c6.278-6.908 13.351-10.435 15.792-11.06l.1-.027c16.5-5.123 33.611-1.889 45.751 8.654 11.567 10.045 16.728 24.829 14.161 40.561a1.613 1.613 0 0 0-.022.229l-2.675 88.153H184.431l11.048-54.4a1.759 1.759 0 0 0-1.375-2.073 1.767 1.767 0 0 0-.352-.038z"/><path d="M181.53 407.172c-27.23-3.112-88.779-31.886-105.72-26.927-8.156 2.389-13.915 12.671-8.7 19.369 11.041 14.173 56 30.836 111.968 46.515 2.926.82 16.162 4.367 19.145 5.182" fill="#fff"/><path d="M198.227 453.57a2.267 2.267 0 0 1-.6-.08l-6.5-1.757c-4.814-1.3-10.805-2.91-12.66-3.429C113.714 430.162 75.648 414.247 65.33 401a12.183 12.183 0 0 1-1.772-11.561 17.827 17.827 0 0 1 11.614-11.368c10.344-3.027 34.082 4.969 59.214 13.435 17.666 5.948 35.935 12.106 47.4 13.416a2.258 2.258 0 1 1-.486 4.49h-.028c-11.942-1.365-30.442-7.6-48.332-13.626-23.359-7.869-47.521-16-56.5-13.38a13.374 13.374 0 0 0-8.582 8.423 7.782 7.782 0 0 0 1.036 7.4c9.576 12.292 47.888 28.1 110.794 45.728 1.829.512 7.808 2.123 12.612 3.417 2.886.778 5.41 1.458 6.519 1.761a2.258 2.258 0 0 1-.595 4.437z" fill="#222433"/><path d="M198.227 454.07a2.766 2.766 0 0 1-.729-.1l-7.027-1.9c-4.717-1.271-10.351-2.789-12.139-3.289-64.86-18.172-103.012-34.146-113.4-47.476a12.667 12.667 0 0 1-1.852-12.022A18.37 18.37 0 0 1 75.024 377.6c10.5-3.072 34.311 4.946 59.517 13.437l.175.059c17.576 5.917 35.751 12.035 47.128 13.335a2.758 2.758 0 1 1-.6 5.484c-12.049-1.377-30.562-7.617-48.466-13.652-23.286-7.846-47.367-15.958-56.2-13.374a12.922 12.922 0 0 0-8.249 8.1 7.26 7.26 0 0 0 .964 6.939c9.5 12.2 47.724 27.949 110.528 45.545 1.828.511 7.805 2.122 12.607 3.415l.955.258 5.566 1.5a2.758 2.758 0 0 1-.727 5.419zM80.619 377.915a19.067 19.067 0 0 0-5.306.64A17.36 17.36 0 0 0 64.032 389.6a11.694 11.694 0 0 0 1.692 11.1c10.251 13.158 48.229 29.013 112.877 47.127 1.787.5 7.417 2.016 12.13 3.286l7.03 1.9a1.785 1.785 0 0 0 2.163-1.232 1.757 1.757 0 0 0-1.234-2.159c-.984-.27-3.084-.836-5.563-1.5l-.954-.258c-4.806-1.294-10.788-2.906-12.617-3.418C116.545 426.783 78.144 410.91 68.5 398.534a8.253 8.253 0 0 1-1.109-7.882 13.925 13.925 0 0 1 8.9-8.722c9.142-2.676 33.376 5.488 56.81 13.382 17.854 6.018 36.316 12.242 48.229 13.6a1.769 1.769 0 0 0 1.964-1.556 1.758 1.758 0 0 0-1.561-1.937c-11.484-1.312-29.711-7.448-47.336-13.382l-.171-.057c-21.387-7.201-41.76-14.065-53.607-14.065z"/><path d="M190.92 399.614c-25.974-2.751-82.286-33.972-92.055-31.392a13.476 13.476 0 0 0-8.3 19.23c8.9 16.676 51.308 37.483 107.666 63.855" fill="#fff"/><path d="M198.224 453.57a2.261 2.261 0 0 1-.957-.213c-57.827-27.059-99.474-47.551-108.7-64.838a15.567 15.567 0 0 1-.476-13.639 15.411 15.411 0 0 1 10.2-8.839c5.133-1.355 17.387 3.648 38.6 12.612 19.2 8.111 40.957 17.305 54.27 18.715a2.259 2.259 0 1 1-.477 4.493c-13.98-1.482-36.067-10.814-55.554-19.047-14.9-6.3-31.794-13.44-35.685-12.406a10.927 10.927 0 0 0-7.21 6.277 11.085 11.085 0 0 0 .321 9.712c8.553 16.023 51.446 37.05 106.631 62.872a2.258 2.258 0 0 1-.961 4.305z" fill="#222433"/><path d="m198.228 454.074-.5-.05a2.751 2.751 0 0 1-.669-.215c-57.915-27.1-99.63-47.629-108.931-65.055a16.238 16.238 0 0 1 10.034-23.2c5.292-1.4 17.612 3.628 38.926 12.635 19.167 8.1 40.889 17.276 54.127 18.678a2.759 2.759 0 1 1-.582 5.487c-14.052-1.489-36.171-10.834-55.688-19.08l-.116-.049c-14.052-5.937-31.543-13.323-35.254-12.337a10.357 10.357 0 0 0-6.878 5.989 10.526 10.526 0 0 0 .3 9.282c8.481 15.887 51.3 36.871 106.4 62.654a2.757 2.757 0 0 1 1.333 3.667 2.771 2.771 0 0 1-2.502 1.594zm-97.975-87.758a7.229 7.229 0 0 0-1.838.209 14.822 14.822 0 0 0-9.866 8.551 14.983 14.983 0 0 0 .457 13.208c9.156 17.152 50.734 37.6 108.473 64.62a1.759 1.759 0 0 0 .746.166h.117a1.758 1.758 0 0 0 .631-3.348c-55.27-25.862-98.233-46.929-106.86-63.09a11.518 11.518 0 0 1-.337-10.151 11.346 11.346 0 0 1 7.537-6.555c4.051-1.075 20.241 5.765 35.9 12.382l.109.046c19.46 8.221 41.507 17.536 55.412 19.01a1.768 1.768 0 0 0 1.936-1.564 1.758 1.758 0 0 0-1.565-1.934c-13.386-1.418-35.18-10.626-54.409-18.751-18.863-7.971-30.603-12.799-36.443-12.799z"/><path d="m575.093 433.583 68.685 73.448-61.639 40.9 16.7 28.062-66.943 70.162z" fill="#fff"/><path d="M530.893 648.739a2.582 2.582 0 0 1-2.534-3.1l43.2-212.57a2.589 2.589 0 0 1 4.426-1.251l68.685 73.448a2.585 2.585 0 0 1-.459 3.917l-59.589 39.54 15.436 25.948a2.582 2.582 0 0 1-.351 3.1l-66.942 70.167a2.589 2.589 0 0 1-1.871.8zm44.737-209.727-40.415 198.864 59.395-62.25-15.7-26.376a2.583 2.583 0 0 1 .792-3.474l59.1-39.212z" fill="#222433"/><path d="m439.578 433.583-68.684 73.448 61.639 40.9-16.7 28.062 66.943 70.162z" fill="#fff"/><path d="M483.779 648.739a2.591 2.591 0 0 1-1.872-.8l-66.941-70.169a2.582 2.582 0 0 1-.351-3.1l15.436-25.948-59.589-39.54a2.644 2.644 0 0 1-.335-.264 2.582 2.582 0 0 1-.124-3.653l68.685-73.448a2.589 2.589 0 0 1 4.426 1.251l43.2 212.57a2.582 2.582 0 0 1-2.534 3.1zM375.868 506.564l59.1 39.212a2.583 2.583 0 0 1 .792 3.474l-15.695 26.376 59.395 62.25-40.418-198.864z" fill="#222433"/><ellipse cx="415.646" cy="277.809" fill="#fff" rx="41.003" ry="40.965"/><path d="M372 277.809a43.646 43.646 0 1 1 43.645 43.606A43.626 43.626 0 0 1 372 277.808zm43.645-38.325a38.387 38.387 0 0 0-38.361 38.325 38.362 38.362 0 1 0 38.361-38.327z" fill="#222433"/><path d="M415.647 321.914a44.246 44.246 0 0 1-44.145-44.1 44.179 44.179 0 0 1 44.145-44.114 44.105 44.105 0 1 1 0 88.21zM372 277.808h.5a43.146 43.146 0 0 0 86.292 0 43.146 43.146 0 0 0-86.292 0zm43.647 38.828a38.826 38.826 0 1 1 0-77.652 38.826 38.826 0 1 1 0 77.652zm0-76.652a37.826 37.826 0 1 0 26.773 64.572 37.818 37.818 0 0 0-26.774-64.572z" fill="#222433"/><path d="m570.078 326.613-.009.407.239 108.98c.075 35.159-28.055 63.761-62.924 63.976-34.8.214-63.25-27.932-63.7-63.019l-.451-35.1a92.567 92.567 0 0 1-23.512-154.743 93.256 93.256 0 0 1 .869-48.037l108.7-.522a29.254 29.254 0 0 1 29 33.026l-2.122 16.862" fill="#fff"/><path d="M506.992 502.976c-36.136 0-65.847-29.515-66.317-65.988l-.426-33.18a95.584 95.584 0 0 1-23.871-157.763 96.242 96.242 0 0 1 1.32-47.8 3.006 3.006 0 0 1 2.875-2.175l108.7-.523h.153a32.009 32.009 0 0 1 23.934 10.786 32.486 32.486 0 0 1 7.916 25.618l-2.123 16.861-.006.047a3.005 3.005 0 0 1-5.958-.795l2.122-16.862a26.478 26.478 0 0 0-6.447-20.885 25.987 25.987 0 0 0-19.438-8.768h-.126l-106.416.511a90.3 90.3 0 0 0-.249 44.326 3 3 0 0 1-.951 2.99 89.55 89.55 0 0 0 22.738 149.715 3 3 0 0 1 1.813 2.719l.45 35.1c.426 33.194 27.44 60.055 60.3 60.055h.373c33.122-.2 60.008-27.55 59.934-60.963l-.241-109.049.01-.408a3.007 3.007 0 0 1 6.012.137l-.008.333.239 108.975c.08 36.712-29.486 66.761-65.909 66.986h-.411z" fill="#222433"/><path d="M479.158 412.028a94.289 94.289 0 0 1-36.553-7.328l-.1-.04a3 3 0 1 1 2.428-5.5 89.246 89.246 0 0 0 85.88-9.555 3 3 0 1 1 3.494 4.888 95.062 95.062 0 0 1-55.153 17.53zM608 300.6c-.083 0-.168 0-.252-.011l-42.323-3.5a3 3 0 0 1-1.379-5.519l41.883-26.927.059-.038a3 3 0 1 1 3.194 5.088l-34.434 22.14 33.5 2.767a3 3 0 0 1-.243 6z" fill="#222433"/><path d="M568.627 323.866a43.065 43.065 0 1 0-24.292-60.9" fill="#fff"/><path d="M567.811 326.246a2.518 2.518 0 1 1 1.62-4.768 40.549 40.549 0 1 0-22.874-57.337c-.032.067-.066.132-.1.2a2.519 2.519 0 0 1-4.348-2.546 45.6 45.6 0 1 1 25.706 64.455z" fill="#222433"/><path d="M582.452 329.157h-.038a45.854 45.854 0 0 1-14.764-2.437 3.018 3.018 0 1 1 1.942-5.715A40.049 40.049 0 1 0 547 264.375c-.028.06-.07.139-.115.216a3.019 3.019 0 1 1-5.21-3.053 46.009 46.009 0 0 1 40.777-24.545h.029a46.082 46.082 0 1 1-.028 92.164zm-.029-1h.028a45.082 45.082 0 1 0 .029-90.164h-.029a45.02 45.02 0 0 0-39.9 24.032 2.02 2.02 0 1 0 3.475 2.059c.03-.051.058-.1.083-.157a41.09 41.09 0 0 1 75.584 7.044 41.055 41.055 0 0 1-52.418 50.981 2.021 2.021 0 0 0-2.562 1.262 2.017 2.017 0 0 0 1.263 2.559 44.843 44.843 0 0 0 14.442 2.384z" fill="#222433"/><path d="M599.618 301.248a3 3 0 0 1-1.293-.291l-37.438-17.778a3 3 0 0 1 .465-5.6l37.721-10.761.051-.014a3 3 0 1 1 1.6 5.789l-30.059 8.577 30.246 14.361a3 3 0 0 1-1.293 5.717z" fill="#222433"/><ellipse cx="498.593" cy="180.694" fill="#5a38fd" rx="31.894" ry="31.92"/><ellipse cx="537.156" cy="202.708" fill="#5a38fd" rx="18.331" ry="18.346"/><ellipse cx="444.644" cy="170.789" fill="#5a38fd" rx="43.35" ry="43.384"/><path d="M487.995 104.28h13.027v32.568h-13.027z" fill="#82b1ff"/><path d="M478.224 127.078v-13.027h32.568v13.027z" fill="#82b1ff"/><g fill="#222433"><path d="M452.638 271.649a3 3 0 0 1-3-3 8.922 8.922 0 1 0-17.843 0 3 3 0 0 1-6 0 14.922 14.922 0 1 1 29.843 0 3 3 0 0 1-3 3zm61.238 6.722a3 3 0 0 1-3-3 8.922 8.922 0 0 0-17.844 0 3 3 0 0 1-6 0 14.922 14.922 0 0 1 29.844 0 3 3 0 0 1-3 3zm-48.571 89.739c-17.775 0-32.236-17.3-32.236-38.571a3 3 0 0 1 3-3h58.472a3 3 0 0 1 3 3c0 21.268-14.461 38.571-32.236 38.571zm-26.125-35.571c1.224 16.558 12.474 29.571 26.125 29.571s24.9-13.013 26.126-29.571zm39.048-26.139a3.124 3.124 0 0 1-.333-.018l-25.366-2.8a3 3 0 0 1-2.273-4.474l20.9-36.451a3 3 0 0 1 5.2 2.984l-18.626 32.48 20.816 2.3a3 3 0 0 1-.326 5.982z"/></g><path d="M171.179 505.494h129.447v176.099H171.179z" fill="#fff"/><path d="M300.626 684.593H171.179a3 3 0 0 1-3-3v-176.1a3 3 0 0 1 3-3h129.447a3 3 0 0 1 3 3v176.1a3 3 0 0 1-3 3zm-126.447-6h123.447v-170.1H174.179z" fill="#222433"/><path d="M171.179 504.494h129.447v45.395H171.179z" fill="#fff"/><path d="M300.626 552.89H171.179a3 3 0 0 1-3-3v-45.4a3 3 0 0 1 3-3h129.447a3 3 0 0 1 3 3v45.4a3 3 0 0 1-3 3zm-126.447-6h123.447v-39.4H174.179zm301.795 72.892 4.89-1.042 13.277 62.33-4.89 1.041zm44.932 60.729 13.28-62.329 4.89 1.042-13.28 62.33z" fill="#222433"/></svg></g><g transform="translate(271.0 96.0) rotate(0.0 183.0 154.0) scale(0.9977863319629674 0.9998928686212191)"><svg width="366.812" height="308.033" viewBox="0 0 366.812 308.033"><path d="M337.487 23.317c-.357-.321-.71-.638-1.067-.955a89.9 89.9 0 0 0-93.908-15.469c-19.4 7.148-59.081 52.437-59.081 52.437S143.7 14.056 124.354 6.914a89.608 89.608 0 0 0-101.91 141.854c.3.335.6.669.9 1l132.339 145.887a37.621 37.621 0 0 0 27.683 12.339l.04.039.039-.039a37.58 37.58 0 0 0 25.511-9.681c.93-.84 134.478-148.546 134.478-148.546a89.361 89.361 0 0 0-5.947-126.45z" fill="#82b1ff"/><path d="M200.556 207.79h-.017a3 3 0 0 1-2.84-2.084l-30.677-95.722-14.394 35.957a3 3 0 0 1-2.785 1.886H89.4a3 3 0 1 1 0-6h58.415l16.738-41.812a3 3 0 0 1 5.642.2l30.417 94.913 17.444-52.419a3 3 0 0 1 2.846-2.052h45.3a3 3 0 0 1 0 6h-43.139l-19.663 59.08a3 3 0 0 1-2.844 2.053z" fill="#222433"/></svg></g><g transform="translate(264.0 532.0) rotate(0.0 116.5 89.0) scale(0.5855433616220305 0.583840093414415)"><svg width="397.921" height="304.878" viewBox="0 0 397.921 304.878"><path d="M239.767 260.878h-81.613a33.056 33.056 0 0 1-33.019-33.019V33.019A33.056 33.056 0 0 1 158.154 0h81.613a33.057 33.057 0 0 1 33.019 33.019v194.84a33.057 33.057 0 0 1-33.019 33.019zM158.154 6a27.05 27.05 0 0 0-27.019 27.019v194.84a27.049 27.049 0 0 0 27.019 27.019h81.613a27.049 27.049 0 0 0 27.019-27.019V33.019A27.05 27.05 0 0 0 239.767 6z" fill="#222433"/><rect fill="#fff" height="254.878" rx="30.019" width="391.921" x="3" y="47"/><path d="M364.9 304.878H33.019A33.057 33.057 0 0 1 0 271.859V77.019A33.057 33.057 0 0 1 33.019 44H364.9a33.056 33.056 0 0 1 33.019 33.019v194.84a33.056 33.056 0 0 1-33.019 33.019zM33.019 50A27.05 27.05 0 0 0 6 77.019v194.84a27.049 27.049 0 0 0 27.019 27.019H364.9a27.049 27.049 0 0 0 27.019-27.019V77.019A27.05 27.05 0 0 0 364.9 50z" fill="#222433"/><g fill="#5a38fd"><path d="M173.137 86.467h51.647v175.945h-51.647z"/><path d="M286.933 148.616v51.647H110.988v-51.647z"/></g></svg></g><g transform="translate(85.0 387.0) rotate(0.0 149.0 161.0) scale(0.5506323032690559 0.5504480510378168)"><svg width="541.196" height="584.978" viewBox="0 0 541.196 584.978"><path d="M450.131 195.026a46.309 46.309 0 0 0 11.124-40.148c-4.174-21.285 2.478-43.266 17.076-59.308l54.859-60.285a19.368 19.368 0 0 0-1.285-27.28 19.368 19.368 0 0 0-27.28 1.286l-54.859 60.284c-14.6 16.043-35.857 24.732-57.44 22.578A46.3 46.3 0 0 0 353.4 107L15 478.871a46.439 46.439 0 0 0 3.082 65.408l28.239 25.7a46.437 46.437 0 0 0 65.408-3.082z" fill="#fff"/><path d="M77.407 584.979A48.882 48.882 0 0 1 44.3 572.2l-28.24-25.7a49.356 49.356 0 0 1-3.281-69.645l338.4-371.868a49.563 49.563 0 0 1 41.44-15.816c20.243 2.023 40.771-6.059 54.923-21.612l54.86-60.284a22.311 22.311 0 0 1 33 30.032L480.55 97.589c-14.15 15.552-20.266 36.753-16.35 56.711a49.571 49.571 0 0 1-11.849 42.744l-2.219-2.019 2.219 2.019-338.4 371.868A48.954 48.954 0 0 1 79.8 584.923q-1.2.056-2.393.056zM387.721 94.924a43.51 43.51 0 0 0-32.1 14.1L17.22 480.89a43.44 43.44 0 0 0 2.88 61.17l28.24 25.7a43.438 43.438 0 0 0 61.17-2.883l338.4-371.868a43.548 43.548 0 0 0 10.4-37.552c-4.278-21.812 2.377-44.954 17.8-61.9l54.858-60.285a16.311 16.311 0 0 0-24.124-21.962l-54.859 60.284c-15.425 16.951-37.839 25.75-59.956 23.544q-2.157-.214-4.308-.214z" fill="#222433"/><path d="M104.141 518.236a2.985 2.985 0 0 1-2.018-.782l-34.792-31.66a3 3 0 0 1-.2-4.238l293.846-322.907a3 3 0 0 1 4.238-.2l34.792 31.661a3 3 0 0 1 .2 4.238L106.361 517.255a3 3 0 0 1-2.22.981zm-30.553-34.86L103.942 511 393.75 192.529l-30.35-27.623z" fill="#222433"/><path d="M294.009 309.59a2.985 2.985 0 0 1-2.018-.782L257.2 277.149a3 3 0 0 1 4.039-4.438l34.79 31.66a3 3 0 0 1-2.02 5.219zm-35.378 38.877a2.985 2.985 0 0 1-2.018-.782l-34.791-31.659a3 3 0 1 1 4.038-4.438l34.791 31.66a3 3 0 0 1-2.02 5.219z"/><rect fill="#5a38fd" height="56.259" rx="1.832" transform="matrix(-.67303833 .7396076 -.7396076 -.67303833 597.535 525.312)" width="292.544" x="36.383" y="366.603"/><path d="m492.518 78.431 41.391-45.484a17.149 17.149 0 0 0-1.138-24.154l-1.889-1.718a17.148 17.148 0 0 0-24.154 1.138L465.338 53.7z" fill="#222433"/></svg></g></svg>