<svg xmlns="http://www.w3.org/2000/svg" viewBox="0 0 1700 1700" width="1700" height="1700"><g transform="translate(265.0 18.0) rotate(0.0 561.0 830.0) translate(0.0 812.0) scale(1.058362763741737 1.057053507921215)"><svg width="1060.128" height="801.284" viewBox="0 768.173 1060.128 801.284"><circle cx="119.439" cy="1455.376" fill="#fff" r="113.527"/><path d="M119.439 1570.403c-63.426 0-115.027-51.601-115.027-115.027s51.601-115.027 115.027-115.027 115.027 51.601 115.027 115.027-51.6 115.027-115.027 115.027zm0-227.054c-61.772 0-112.027 50.255-112.027 112.027s50.255 112.027 112.027 112.027 112.027-50.255 112.027-112.027-50.255-112.027-112.027-112.027z" fill="#25242e"/><path d="M47.636 1422.187c-5.751-7.418-13.822-20.374-18.888-29.272l13.037-7.42c4.015 7.054 12.043 20.199 17.704 27.501z" fill="#fff"/><path d="M47.636 1423.687a1.495 1.495 0 0 1-1.185-.581c-5.796-7.476-13.915-20.506-19.006-29.449a1.5 1.5 0 0 1 .561-2.045l13.037-7.42a1.5 1.5 0 0 1 2.046.562c3.994 7.017 11.972 20.083 17.586 27.324a1.5 1.5 0 0 1-.267 2.104l-11.854 9.191a1.502 1.502 0 0 1-.918.314zm-16.839-30.213c4.783 8.296 11.775 19.483 17.114 26.601l9.484-7.354c-5.283-7.064-12.177-18.274-16.167-25.183z" fill="#25242e"/><path d="M31.528 1396.245a5.293 5.293 0 0 1-7.264-2.173c-27-51.739-31.729-115.242-12.87-175.164 18.284-58.092 55.748-104.544 102.787-127.445 113.822-55.418 265.252-35.42 411.697-16.076 74.451 9.833 147.446 19.472 214.118 19.473 121.243.002 221.597-31.871 271.915-152.42 43.436-104.058 29.083-195.227-43.879-278.715-61.914-70.847-151.238-119.405-216.459-154.861-8.869-4.821-17.246-9.375-24.938-13.657l11.676-20.969c7.584 4.223 15.91 8.749 24.724 13.54 63.047 34.274 158.324 86.069 223.068 160.154 36.08 41.286 59.238 85.609 68.832 131.739 11.237 54.033 4.213 111.906-20.876 172.013-20.205 48.404-49.386 86.541-86.733 113.352-33.69 24.186-74.014 39.779-123.272 47.674-89.848 14.397-197.354.201-301.318-13.529-142.926-18.876-290.718-38.396-398.049 13.861-41.138 20.028-74.087 61.242-90.399 113.072-16.917 53.748-12.837 110.482 11.092 156.546a5.28 5.28 0 0 1-2.111 7.052z" fill="#24968b"/><path d="m749.371 480.314-13.684 19.896-50.92-7.622 40.296-58.59z" fill="#24968b"/><path d="M602.018 535.73c-2.847 0-5.548-.09-8.094-.219-101.437-5.142-287.842-84.467-372.235-125.693-36.479-17.82-49.571-42.248-54.132-59.603-5.831-22.193-1.416-46.204 12.115-65.878l48.151-70.01 12.359 8.5-48.151 70.01c-11.056 16.074-14.688 35.599-9.967 53.566 5.396 20.537 21.375 37.805 46.208 49.936 83.439 40.761 267.4 119.173 366.411 124.191 26.665 1.343 59.098-2.103 106.389-60.584l11.664 9.432c-22.392 27.69-43.523 46.062-64.604 56.165-17.414 8.348-33.231 10.187-46.114 10.187z" fill="#fff"/><path d="M602.018 537.23c-2.564 0-5.237-.072-8.169-.221-101.68-5.154-288.33-84.571-372.818-125.844-36.989-18.07-50.284-42.911-54.924-60.569-5.942-22.616-1.448-47.077 12.33-67.109l48.151-70.01a1.5 1.5 0 0 1 2.086-.386l12.359 8.5a1.497 1.497 0 0 1 .386 2.086l-48.151 70.01c-10.808 15.714-14.363 34.79-9.752 52.335 5.282 20.102 20.987 37.035 45.416 48.969 83.344 40.714 267.06 119.035 365.829 124.041 26.312 1.326 58.312-2.112 105.146-60.029a1.5 1.5 0 0 1 2.11-.223l11.664 9.432a1.501 1.501 0 0 1 .223 2.11c-22.534 27.867-43.835 46.372-65.122 56.574-14.508 6.954-29.804 10.334-46.764 10.334zM228.21 216.413l-47.301 68.774c-13.283 19.313-17.621 42.875-11.9 64.647 4.481 17.051 17.372 41.065 53.339 58.636C306.645 449.65 492.806 528.884 594 534.013c2.882.146 5.504.217 8.018.217 16.5 0 31.373-3.284 45.467-10.039 20.58-9.864 41.243-27.727 63.14-54.591l-9.332-7.545c-47.211 57.898-79.814 61.33-106.685 59.974-99.254-5.031-283.46-83.534-366.994-124.342-25.237-12.328-41.49-29.93-47-50.902-4.833-18.39-1.122-38.363 10.182-54.798l47.301-68.774z" fill="#25242e"/><path d="M595.522 540.384c-30.084 0-65.571-7.831-111.075-21.226-2.809-.827-4.419-3.777-3.581-6.583l3.842-12.873a5.289 5.289 0 0 1 6.56-3.555c61.725 18.15 97.091 23.335 125.206 18.487 28.825-4.971 52.312-21.623 81.07-57.479l18.723 15.016c-38.897 48.495-73.016 68.213-120.745 68.213z" fill="#24968b"/><path d="m713.395 468.421-12.98-7.518c37.694-65.084 29.323-96.595 18.518-121.022-40.107-90.667-179.139-234.401-247.05-297.735-20.212-18.851-42.056-27.588-63.161-25.288-18.469 2.019-35.401 12.396-46.457 28.47l-48.15 70.009-12.359-8.5 48.15-70.009C363.437 17.154 384.28 4.44 407.092 1.947c17.839-1.945 45.333 1.539 75.021 29.229 68.688 64.059 209.447 209.749 250.536 302.637 5.699 12.883 11.995 30.684 10.085 54.188-1.894 23.299-11.491 49.605-29.339 80.42z" fill="#fff"/><path d="M713.394 469.921a1.49 1.49 0 0 1-.75-.202l-12.98-7.518a1.5 1.5 0 0 1-.546-2.05c37.341-64.475 29.1-95.574 18.444-119.664-40.01-90.446-178.868-233.983-246.701-297.245-19.877-18.538-41.308-27.145-61.976-24.894-18.035 1.972-34.577 12.115-45.385 27.829l-48.15 70.009a1.5 1.5 0 0 1-2.086.386l-12.359-8.5a1.497 1.497 0 0 1-.386-2.086l48.15-70.009c13.78-20.034 35.015-32.981 58.259-35.522 18.157-1.979 46.111 1.553 76.208 29.624 68.766 64.13 209.697 210.016 250.885 303.127 5.771 13.044 12.146 31.074 10.208 54.916-1.913 23.527-11.574 50.039-29.536 81.051a1.5 1.5 0 0 1-1.299.748zm-10.932-9.565 10.384 6.014c17.253-30.059 26.543-55.745 28.393-78.491 1.883-23.168-4.334-40.74-9.961-53.459C690.286 241.752 549.701 96.259 481.09 32.273 451.824 4.977 424.785 1.526 407.254 3.438c-22.375 2.446-42.828 14.926-56.113 34.24l-47.3 68.773 9.888 6.8 47.3-68.773c11.303-16.434 28.627-27.045 47.53-29.111 21.566-2.349 43.813 6.531 64.347 25.682 67.989 63.407 207.193 207.336 247.398 298.226 10.883 24.601 19.347 56.262-17.842 121.081z" fill="#25242e"/><path d="m716.081 472.188-20.721-12.111c23.35-39.946 30.663-68.086 25.243-97.128-5.297-28.379-23.179-60.725-61.442-110.922a5.287 5.287 0 0 1 .977-7.392l10.647-8.193a5.292 5.292 0 0 1 7.43.99c41.266 54.117 59.863 88.338 65.98 121.113 6.587 35.287-1.558 68.212-28.114 113.643z" fill="#24968b"/><path d="M245.298 202.155c-9.729-6.692-23.041-4.229-29.733 5.5a21.286 21.286 0 0 0-3.646 14.254l-11.718 17.036c-3.497 5.085-2.21 12.042 2.875 15.539l8.46 5.819c5.084 3.497 12.041 2.21 15.538-2.874l11.717-17.037a21.283 21.283 0 0 0 12.007-8.504c6.692-9.729 4.23-23.041-5.5-29.733z" fill="#fff"/><g fill="#25242e"><path d="M217.292 235.585c-.41 0-.818-.167-1.114-.495-7.117-7.888-7.877-19.519-1.849-28.285a1.5 1.5 0 0 1 2.472 1.7c-5.238 7.617-4.579 17.722 1.604 24.575a1.5 1.5 0 0 1-1.113 2.505zm13.73 6.963c-.05 0-.101-.002-.152-.008a22.711 22.711 0 0 1-6.888-1.814 1.5 1.5 0 1 1 1.209-2.745 19.724 19.724 0 0 0 5.979 1.575 1.5 1.5 0 0 1-.148 2.992z"/><path d="M217.85 263.766c-2.475 0-4.975-.722-7.164-2.227l-8.46-5.819a12.587 12.587 0 0 1-5.28-8.137 12.594 12.594 0 0 1 2.02-9.488l11.412-16.592a22.883 22.883 0 0 1 3.952-14.699c7.15-10.395 21.424-13.036 31.819-5.886 10.395 7.15 13.036 21.424 5.886 31.819a22.885 22.885 0 0 1-12.312 8.948l-11.412 16.592c-2.455 3.571-6.426 5.489-10.461 5.489zm15.361-63.869c-6.331 0-12.559 3.01-16.41 8.608a19.888 19.888 0 0 0-3.39 13.253 1.5 1.5 0 0 1-.256 1.001l-11.717 17.036c-1.464 2.129-2.012 4.701-1.542 7.242s1.901 4.747 4.031 6.211l8.46 5.819c4.395 3.022 10.43 1.907 13.452-2.489l11.718-17.037c.201-.293.5-.504.843-.597a19.886 19.886 0 0 0 11.164-7.906c6.212-9.032 3.918-21.435-5.114-27.647a19.782 19.782 0 0 0-11.239-3.494z"/></g><path d="m338.861 75.179-8.46-5.819c-5.085-3.497-12.041-2.21-15.538 2.874l-11.717 17.037a21.278 21.278 0 0 0-12.006 8.504c-6.692 9.729-4.229 23.041 5.5 29.733s23.041 4.229 29.733-5.5a21.28 21.28 0 0 0 3.646-14.254l11.717-17.037c3.497-5.084 2.21-12.04-2.875-15.538z" fill="#fff"/><path d="M308.722 132.766a22.757 22.757 0 0 1-12.934-4.021c-10.395-7.15-13.036-21.424-5.886-31.819a22.885 22.885 0 0 1 12.312-8.948l11.412-16.592a12.59 12.59 0 0 1 8.137-5.28 12.591 12.591 0 0 1 9.487 2.02l8.46 5.819a12.587 12.587 0 0 1 5.28 8.137 12.59 12.59 0 0 1-2.02 9.487l-11.41 16.591a22.895 22.895 0 0 1-3.952 14.699c-4.431 6.443-11.6 9.907-18.886 9.907zm15.368-63.875c-.591 0-1.186.054-1.78.164a9.607 9.607 0 0 0-6.211 4.031l-11.718 17.037c-.201.293-.5.504-.843.597a19.886 19.886 0 0 0-11.164 7.906c-6.212 9.032-3.918 21.435 5.114 27.647 9.032 6.211 21.435 3.918 27.647-5.114a19.888 19.888 0 0 0 3.39-13.253 1.5 1.5 0 0 1 .256-1.001L340.5 89.868a9.611 9.611 0 0 0 1.542-7.241 9.607 9.607 0 0 0-4.031-6.211l-8.46-5.819a9.603 9.603 0 0 0-5.461-1.706z" fill="#25242e"/><path d="M327.355 100.834c-.522 0-1.03-.273-1.307-.76a19.69 19.69 0 0 0-6.026-6.562 1.5 1.5 0 1 1 1.7-2.472 22.675 22.675 0 0 1 6.937 7.554 1.501 1.501 0 0 1-1.304 2.24zm-36.218-1.558a1.499 1.499 0 0 1-1.235-2.35c5.011-7.286 13.889-11.057 22.616-9.608a1.5 1.5 0 1 1-.492 2.96c-7.582-1.258-15.298 2.017-19.653 8.349a1.494 1.494 0 0 1-1.236.649z" fill="#25242e"/><circle cx="119.439" cy="1455.376" fill="#24968b" r="82.107"/><circle cx="119.439" cy="1455.376" fill="#fff" r="66.172"/><path d="M119.439 1523.048c-37.314 0-67.672-30.357-67.672-67.672s30.357-67.672 67.672-67.672c37.314 0 67.671 30.357 67.671 67.672s-30.357 67.672-67.671 67.672zm0-132.344c-35.66 0-64.672 29.011-64.672 64.672s29.012 64.672 64.672 64.672 64.671-29.011 64.671-64.672-29.011-64.672-64.671-64.672z" fill="#25242e"/></svg></g><g transform="translate(968.0 916.0) rotate(-136.70921091539023 256.0 368.0) scale(1.0625095978650199 1.0665399184444748)"><svg width="481.878" height="690.082" viewBox="0 0 481.878 690.082"><rect fill="#bbddfa" height="634.776" rx="24.542" transform="matrix(-.96331261 .26838185 -.26838185 -.96331261 565.643 612.758)" width="335.169" x="73.354" y="27.653"/><path d="M318.145 630.659c-3.731 0-7.165-2.471-8.214-6.236L155.528 70.233c-1.261-4.526 1.396-9.235 5.922-10.497a8.477 8.477 0 0 1 6.475.787 8.469 8.469 0 0 1 4.022 5.136l154.403 554.19c1.261 4.526-1.396 9.235-5.922 10.497a8.504 8.504 0 0 1-2.283.313zM163.747 62.422a5.528 5.528 0 0 0-5.328 7.007l154.402 554.189a5.53 5.53 0 0 0 6.802 3.838 5.528 5.528 0 0 0 3.837-6.802L169.057 66.464a5.482 5.482 0 0 0-2.606-3.327 5.487 5.487 0 0 0-2.705-.715z" fill="#25242e"/><circle cx="92.083" cy="136.756" fill="#56b1f0" r="34.921"/><circle cx="135.531" cy="292.7" fill="#56b1f0" r="34.921"/><circle cx="178.979" cy="448.645" fill="#56b1f0" r="34.921"/><circle cx="222.426" cy="604.589" fill="#56b1f0" r="34.921"/><circle cx="260.65" cy="89.791" fill="#56b1f0" r="34.921"/><circle cx="304.097" cy="245.736" fill="#56b1f0" r="34.921"/><circle cx="347.545" cy="401.681" fill="#56b1f0" r="34.921"/><circle cx="390.993" cy="557.625" fill="#56b1f0" r="34.921"/><g fill="#25242e"><path d="M67.919 163.474c-.373 0-.746-.138-1.036-.416a36.225 36.225 0 0 1-5.886-7.308 1.5 1.5 0 1 1 2.561-1.563 33.284 33.284 0 0 0 5.398 6.702 1.5 1.5 0 0 1-1.036 2.584zm-9.477-15.846c-.657 0-1.26-.434-1.444-1.098-5.39-19.346 5.964-39.47 25.31-44.86a1.501 1.501 0 0 1 .806 2.891c-17.752 4.946-28.171 23.413-23.225 41.165a1.5 1.5 0 0 1-1.445 1.903zm42.223 144.47c-.031 0-.061 0-.092-.003a1.5 1.5 0 0 1-1.407-1.587c.827-13.739 9.551-26.056 22.223-31.376a1.5 1.5 0 1 1 1.162 2.766c-11.627 4.882-19.631 16.183-20.39 28.79a1.5 1.5 0 0 1-1.496 1.41zm43.387-31.77c-.122 0-.245-.015-.368-.046a33.635 33.635 0 0 0-8.428-1.011h-.013a1.501 1.501 0 0 1-.013-3 35.923 35.923 0 0 1 9.188 1.103 1.5 1.5 0 0 1-.366 2.954zm83.633-157.486a1.5 1.5 0 0 1-1.416-1.005 36.79 36.79 0 0 1-2-13.87 1.5 1.5 0 0 1 2.997.146 33.818 33.818 0 0 0 1.835 12.734 1.5 1.5 0 0 1-1.416 1.995zm1.427-26.561a1.497 1.497 0 0 1-1.353-2.145c5.544-11.621 16.496-19.317 29.294-20.587a36.23 36.23 0 0 1 20.879 4.18 1.5 1.5 0 1 1-1.426 2.638 33.224 33.224 0 0 0-19.157-3.834c-11.745 1.166-21.794 8.229-26.883 18.894-.257.54-.795.854-1.355.854zm45.596 189.832a1.5 1.5 0 0 1-1.264-.689 36.476 36.476 0 0 1-4.432-9.913c-2.429-8.72-2.537-26.605 12.47-38.335a1.498 1.498 0 0 1 2.106.258 1.5 1.5 0 0 1-.258 2.105c-13.787 10.776-13.503 27.715-11.427 35.167a33.424 33.424 0 0 0 4.067 9.097 1.501 1.501 0 0 1-1.261 2.31zm56.53 167.948c-.236 0-.476-.056-.699-.174-8.944-4.725-15.365-12.691-18.079-22.433-2.716-9.746-1.226-20.277 4.086-28.895a1.5 1.5 0 0 1 2.554 1.574 33.527 33.527 0 0 0-3.75 26.516c2.49 8.938 8.382 16.249 16.59 20.585a1.5 1.5 0 0 1-.702 2.826zm16.303 4.051c-1.492 0-2.986-.093-4.479-.278a1.5 1.5 0 0 1 .371-2.977c4.384.543 8.786.215 13.082-.981a1.502 1.502 0 0 1 .806 2.891 36.387 36.387 0 0 1-9.779 1.346zm9.811 130.386c-.657 0-1.26-.434-1.444-1.098-2.611-9.371-1.416-19.199 3.365-27.672 4.781-8.474 12.574-14.577 21.946-17.188 9.644-2.685 19.7-1.359 28.318 3.737a1.499 1.499 0 1 1-1.526 2.582c-7.908-4.677-17.137-5.895-25.986-3.429-8.6 2.396-15.751 7.997-20.138 15.771-4.387 7.775-5.483 16.794-3.087 25.394a1.5 1.5 0 0 1-1.445 1.903zM148.563 432.985a1.5 1.5 0 0 1-1.368-2.113c1.836-4.097 12.926-19.273 33.663-18.609.828.025 1.478.718 1.452 1.546s-.725 1.462-1.546 1.452c-18.863-.568-29.27 13.354-30.831 16.838-.25.557-.797.887-1.37.887zm40.222 182.477c-.657 0-1.26-.434-1.444-1.098-5.39-19.346 5.964-39.47 25.31-44.86a1.5 1.5 0 0 1 .806 2.891c-17.752 4.946-28.171 23.413-23.225 41.165a1.5 1.5 0 0 1-1.445 1.903zm10.529 16.811c-.352 0-.706-.123-.991-.374a36.256 36.256 0 0 1-6.787-7.997 1.5 1.5 0 1 1 2.545-1.589 33.216 33.216 0 0 0 6.225 7.335 1.5 1.5 0 0 1-.992 2.626z"/></g></svg></g><g transform="translate(403.0 422.0) rotate(0.0 376.0 484.5) scale(0.9902776332891308 0.9895499845287077)"><svg width="759.383" height="979.233" viewBox="0 0 759.383 979.233"><path d="M699.074 979.233H60.309C27.001 979.233 0 952.232 0 918.924V60.309C0 27.001 27.001 0 60.309 0h638.764c33.308 0 60.309 27.001 60.309 60.309v858.615c.001 33.308-27.001 60.309-60.308 60.309z" fill="#25242e"/><path d="M696.454 955.35H62.928c-22.294 0-40.368-18.073-40.368-40.368V64.251c0-22.294 18.073-40.368 40.368-40.368h633.526c22.294 0 40.368 18.073 40.368 40.368v850.731c0 22.294-18.073 40.368-40.368 40.368z" fill="#fff"/><path d="M457.785 55.775H298.314c-12.121 0-21.947-9.826-21.947-21.947V13.874h203.365v19.954c0 12.121-9.826 21.947-21.947 21.947z" fill="#25242e"/></svg></g><g transform="translate(265.0 17.0) rotate(0.0 561.0 830.0) translate(0.0 0.0) scale(1.058362763741737 1.057053507921215)"><svg width="1060.128" height="775.741" viewBox="0 0 1060.128 775.741"><circle cx="119.439" cy="1455.376" fill="#fff" r="113.527"/><path d="M119.439 1570.403c-63.426 0-115.027-51.601-115.027-115.027s51.601-115.027 115.027-115.027 115.027 51.601 115.027 115.027-51.6 115.027-115.027 115.027zm0-227.054c-61.772 0-112.027 50.255-112.027 112.027s50.255 112.027 112.027 112.027 112.027-50.255 112.027-112.027-50.255-112.027-112.027-112.027z" fill="#25242e"/><path d="M47.636 1422.187c-5.751-7.418-13.822-20.374-18.888-29.272l13.037-7.42c4.015 7.054 12.043 20.199 17.704 27.501z" fill="#fff"/><path d="M47.636 1423.687a1.495 1.495 0 0 1-1.185-.581c-5.796-7.476-13.915-20.506-19.006-29.449a1.5 1.5 0 0 1 .561-2.045l13.037-7.42a1.5 1.5 0 0 1 2.046.562c3.994 7.017 11.972 20.083 17.586 27.324a1.5 1.5 0 0 1-.267 2.104l-11.854 9.191a1.502 1.502 0 0 1-.918.314zm-16.839-30.213c4.783 8.296 11.775 19.483 17.114 26.601l9.484-7.354c-5.283-7.064-12.177-18.274-16.167-25.183z" fill="#25242e"/><path d="M31.528 1396.245a5.293 5.293 0 0 1-7.264-2.173c-27-51.739-31.729-115.242-12.87-175.164 18.284-58.092 55.748-104.544 102.787-127.445 113.822-55.418 265.252-35.42 411.697-16.076 74.451 9.833 147.446 19.472 214.118 19.473 121.243.002 221.597-31.871 271.915-152.42 43.436-104.058 29.083-195.227-43.879-278.715-61.914-70.847-151.238-119.405-216.459-154.861-8.869-4.821-17.246-9.375-24.938-13.657l11.676-20.969c7.584 4.223 15.91 8.749 24.724 13.54 63.047 34.274 158.324 86.069 223.068 160.154 36.08 41.286 59.238 85.609 68.832 131.739 11.237 54.033 4.213 111.906-20.876 172.013-20.205 48.404-49.386 86.541-86.733 113.352-33.69 24.186-74.014 39.779-123.272 47.674-89.848 14.397-197.354.201-301.318-13.529-142.926-18.876-290.718-38.396-398.049 13.861-41.138 20.028-74.087 61.242-90.399 113.072-16.917 53.748-12.837 110.482 11.092 156.546a5.28 5.28 0 0 1-2.111 7.052z" fill="#24968b"/><path d="m749.371 480.314-13.684 19.896-50.92-7.622 40.296-58.59z" fill="#24968b"/><path d="M602.018 535.73c-2.847 0-5.548-.09-8.094-.219-101.437-5.142-287.842-84.467-372.235-125.693-36.479-17.82-49.571-42.248-54.132-59.603-5.831-22.193-1.416-46.204 12.115-65.878l48.151-70.01 12.359 8.5-48.151 70.01c-11.056 16.074-14.688 35.599-9.967 53.566 5.396 20.537 21.375 37.805 46.208 49.936 83.439 40.761 267.4 119.173 366.411 124.191 26.665 1.343 59.098-2.103 106.389-60.584l11.664 9.432c-22.392 27.69-43.523 46.062-64.604 56.165-17.414 8.348-33.231 10.187-46.114 10.187z" fill="#fff"/><path d="M602.018 537.23c-2.564 0-5.237-.072-8.169-.221-101.68-5.154-288.33-84.571-372.818-125.844-36.989-18.07-50.284-42.911-54.924-60.569-5.942-22.616-1.448-47.077 12.33-67.109l48.151-70.01a1.5 1.5 0 0 1 2.086-.386l12.359 8.5a1.497 1.497 0 0 1 .386 2.086l-48.151 70.01c-10.808 15.714-14.363 34.79-9.752 52.335 5.282 20.102 20.987 37.035 45.416 48.969 83.344 40.714 267.06 119.035 365.829 124.041 26.312 1.326 58.312-2.112 105.146-60.029a1.5 1.5 0 0 1 2.11-.223l11.664 9.432a1.501 1.501 0 0 1 .223 2.11c-22.534 27.867-43.835 46.372-65.122 56.574-14.508 6.954-29.804 10.334-46.764 10.334zM228.21 216.413l-47.301 68.774c-13.283 19.313-17.621 42.875-11.9 64.647 4.481 17.051 17.372 41.065 53.339 58.636C306.645 449.65 492.806 528.884 594 534.013c2.882.146 5.504.217 8.018.217 16.5 0 31.373-3.284 45.467-10.039 20.58-9.864 41.243-27.727 63.14-54.591l-9.332-7.545c-47.211 57.898-79.814 61.33-106.685 59.974-99.254-5.031-283.46-83.534-366.994-124.342-25.237-12.328-41.49-29.93-47-50.902-4.833-18.39-1.122-38.363 10.182-54.798l47.301-68.774z" fill="#25242e"/><path d="M595.522 540.384c-30.084 0-65.571-7.831-111.075-21.226-2.809-.827-4.419-3.777-3.581-6.583l3.842-12.873a5.289 5.289 0 0 1 6.56-3.555c61.725 18.15 97.091 23.335 125.206 18.487 28.825-4.971 52.312-21.623 81.07-57.479l18.723 15.016c-38.897 48.495-73.016 68.213-120.745 68.213z" fill="#24968b"/><path d="m713.395 468.421-12.98-7.518c37.694-65.084 29.323-96.595 18.518-121.022-40.107-90.667-179.139-234.401-247.05-297.735-20.212-18.851-42.056-27.588-63.161-25.288-18.469 2.019-35.401 12.396-46.457 28.47l-48.15 70.009-12.359-8.5 48.15-70.009C363.437 17.154 384.28 4.44 407.092 1.947c17.839-1.945 45.333 1.539 75.021 29.229 68.688 64.059 209.447 209.749 250.536 302.637 5.699 12.883 11.995 30.684 10.085 54.188-1.894 23.299-11.491 49.605-29.339 80.42z" fill="#fff"/><path d="M713.394 469.921a1.49 1.49 0 0 1-.75-.202l-12.98-7.518a1.5 1.5 0 0 1-.546-2.05c37.341-64.475 29.1-95.574 18.444-119.664-40.01-90.446-178.868-233.983-246.701-297.245-19.877-18.538-41.308-27.145-61.976-24.894-18.035 1.972-34.577 12.115-45.385 27.829l-48.15 70.009a1.5 1.5 0 0 1-2.086.386l-12.359-8.5a1.497 1.497 0 0 1-.386-2.086l48.15-70.009c13.78-20.034 35.015-32.981 58.259-35.522 18.157-1.979 46.111 1.553 76.208 29.624 68.766 64.13 209.697 210.016 250.885 303.127 5.771 13.044 12.146 31.074 10.208 54.916-1.913 23.527-11.574 50.039-29.536 81.051a1.5 1.5 0 0 1-1.299.748zm-10.932-9.565 10.384 6.014c17.253-30.059 26.543-55.745 28.393-78.491 1.883-23.168-4.334-40.74-9.961-53.459C690.286 241.752 549.701 96.259 481.09 32.273 451.824 4.977 424.785 1.526 407.254 3.438c-22.375 2.446-42.828 14.926-56.113 34.24l-47.3 68.773 9.888 6.8 47.3-68.773c11.303-16.434 28.627-27.045 47.53-29.111 21.566-2.349 43.813 6.531 64.347 25.682 67.989 63.407 207.193 207.336 247.398 298.226 10.883 24.601 19.347 56.262-17.842 121.081z" fill="#25242e"/><path d="m716.081 472.188-20.721-12.111c23.35-39.946 30.663-68.086 25.243-97.128-5.297-28.379-23.179-60.725-61.442-110.922a5.287 5.287 0 0 1 .977-7.392l10.647-8.193a5.292 5.292 0 0 1 7.43.99c41.266 54.117 59.863 88.338 65.98 121.113 6.587 35.287-1.558 68.212-28.114 113.643z" fill="#24968b"/><path d="M245.298 202.155c-9.729-6.692-23.041-4.229-29.733 5.5a21.286 21.286 0 0 0-3.646 14.254l-11.718 17.036c-3.497 5.085-2.21 12.042 2.875 15.539l8.46 5.819c5.084 3.497 12.041 2.21 15.538-2.874l11.717-17.037a21.283 21.283 0 0 0 12.007-8.504c6.692-9.729 4.23-23.041-5.5-29.733z" fill="#fff"/><g fill="#25242e"><path d="M217.292 235.585c-.41 0-.818-.167-1.114-.495-7.117-7.888-7.877-19.519-1.849-28.285a1.5 1.5 0 0 1 2.472 1.7c-5.238 7.617-4.579 17.722 1.604 24.575a1.5 1.5 0 0 1-1.113 2.505zm13.73 6.963c-.05 0-.101-.002-.152-.008a22.711 22.711 0 0 1-6.888-1.814 1.5 1.5 0 1 1 1.209-2.745 19.724 19.724 0 0 0 5.979 1.575 1.5 1.5 0 0 1-.148 2.992z"/><path d="M217.85 263.766c-2.475 0-4.975-.722-7.164-2.227l-8.46-5.819a12.587 12.587 0 0 1-5.28-8.137 12.594 12.594 0 0 1 2.02-9.488l11.412-16.592a22.883 22.883 0 0 1 3.952-14.699c7.15-10.395 21.424-13.036 31.819-5.886 10.395 7.15 13.036 21.424 5.886 31.819a22.885 22.885 0 0 1-12.312 8.948l-11.412 16.592c-2.455 3.571-6.426 5.489-10.461 5.489zm15.361-63.869c-6.331 0-12.559 3.01-16.41 8.608a19.888 19.888 0 0 0-3.39 13.253 1.5 1.5 0 0 1-.256 1.001l-11.717 17.036c-1.464 2.129-2.012 4.701-1.542 7.242s1.901 4.747 4.031 6.211l8.46 5.819c4.395 3.022 10.43 1.907 13.452-2.489l11.718-17.037c.201-.293.5-.504.843-.597a19.886 19.886 0 0 0 11.164-7.906c6.212-9.032 3.918-21.435-5.114-27.647a19.782 19.782 0 0 0-11.239-3.494z"/></g><path d="m338.861 75.179-8.46-5.819c-5.085-3.497-12.041-2.21-15.538 2.874l-11.717 17.037a21.278 21.278 0 0 0-12.006 8.504c-6.692 9.729-4.229 23.041 5.5 29.733s23.041 4.229 29.733-5.5a21.28 21.28 0 0 0 3.646-14.254l11.717-17.037c3.497-5.084 2.21-12.04-2.875-15.538z" fill="#fff"/><path d="M308.722 132.766a22.757 22.757 0 0 1-12.934-4.021c-10.395-7.15-13.036-21.424-5.886-31.819a22.885 22.885 0 0 1 12.312-8.948l11.412-16.592a12.59 12.59 0 0 1 8.137-5.28 12.591 12.591 0 0 1 9.487 2.02l8.46 5.819a12.587 12.587 0 0 1 5.28 8.137 12.59 12.59 0 0 1-2.02 9.487l-11.41 16.591a22.895 22.895 0 0 1-3.952 14.699c-4.431 6.443-11.6 9.907-18.886 9.907zm15.368-63.875c-.591 0-1.186.054-1.78.164a9.607 9.607 0 0 0-6.211 4.031l-11.718 17.037c-.201.293-.5.504-.843.597a19.886 19.886 0 0 0-11.164 7.906c-6.212 9.032-3.918 21.435 5.114 27.647 9.032 6.211 21.435 3.918 27.647-5.114a19.888 19.888 0 0 0 3.39-13.253 1.5 1.5 0 0 1 .256-1.001L340.5 89.868a9.611 9.611 0 0 0 1.542-7.241 9.607 9.607 0 0 0-4.031-6.211l-8.46-5.819a9.603 9.603 0 0 0-5.461-1.706z" fill="#25242e"/><path d="M327.355 100.834c-.522 0-1.03-.273-1.307-.76a19.69 19.69 0 0 0-6.026-6.562 1.5 1.5 0 1 1 1.7-2.472 22.675 22.675 0 0 1 6.937 7.554 1.501 1.501 0 0 1-1.304 2.24zm-36.218-1.558a1.499 1.499 0 0 1-1.235-2.35c5.011-7.286 13.889-11.057 22.616-9.608a1.5 1.5 0 1 1-.492 2.96c-7.582-1.258-15.298 2.017-19.653 8.349a1.494 1.494 0 0 1-1.236.649z" fill="#25242e"/><circle cx="119.439" cy="1455.376" fill="#24968b" r="82.107"/><circle cx="119.439" cy="1455.376" fill="#fff" r="66.172"/><path d="M119.439 1523.048c-37.314 0-67.672-30.357-67.672-67.672s30.357-67.672 67.672-67.672c37.314 0 67.671 30.357 67.671 67.672s-30.357 67.672-67.671 67.672zm0-132.344c-35.66 0-64.672 29.011-64.672 64.672s29.012 64.672 64.672 64.672 64.671-29.011 64.671-64.672-29.011-64.672-64.671-64.672z" fill="#25242e"/></svg></g><g transform="translate(241.0 658.0) rotate(0.0 322.5 72.0) scale(1.0515469968143834 1.0471889521565547)"><svg width="613.382" height="137.511" viewBox="0 0 613.382 137.511"><path d="M31.261 137.511h550.861c17.265 0 31.261-13.996 31.261-31.261V31.26C613.382 13.996 599.386 0 582.122 0H31.261C13.996 0 0 13.996 0 31.261v74.99c0 17.264 13.996 31.26 31.261 31.26z" fill="#f05467"/><path d="M491.167 114.604c-2.907 0-3.785-2.529-4.944-14.24-.721-7.294-1.361-16.961-2.038-27.195-.868-13.126-2.079-31.417-3.517-40.534-1.574 9.161-3.042 27.639-4.094 40.893-.807 10.16-1.568 19.757-2.375 26.984-1.293 11.59-2.189 14.092-5.047 14.092-3.949 0-5-5.117-6.455-12.199-.645-3.14-1.705-8.299-2.736-9.546h-7.174c-2.626 0-4.036-2.734-5.987-6.519-1.821-3.532-4.569-8.864-7.338-8.864h-.029c-2.731.036-5.891 5.868-7.779 9.353-2.037 3.76-3.267 6.029-5.592 6.029h-51.96c-3.044 0-4.442-3.764-7.229-11.263-1.256-3.38-4.115-11.077-5.846-12.533-1.787 1.384-4.802 8.611-6.459 12.584-3.327 7.976-4.792 11.213-7.653 11.213h-25.327c-.861 1.38-1.668 6.146-2.164 9.07-1.199 7.082-2.146 12.676-6.257 12.676-2.907 0-3.785-2.529-4.944-14.24-.721-7.294-1.361-16.961-2.038-27.195-.868-13.126-2.079-31.417-3.517-40.534-1.574 9.161-3.042 27.639-4.094 40.893-.807 10.16-1.568 19.757-2.375 26.984-1.293 11.59-2.189 14.092-5.047 14.092-3.949 0-5-5.117-6.455-12.199-.645-3.14-1.705-8.299-2.736-9.546h-7.174c-2.626 0-4.036-2.734-5.987-6.519-1.821-3.532-4.569-8.864-7.338-8.864h-.029c-2.731.036-5.891 5.868-7.779 9.353-2.037 3.76-3.267 6.029-5.592 6.029h-52.697c-3.044 0-4.442-3.764-7.229-11.263-1.256-3.38-4.116-11.077-5.846-12.533-1.787 1.384-4.802 8.612-6.459 12.584-3.327 7.976-4.792 11.212-7.653 11.212h-25.389c-1.084 1.462-2.213 7.305-2.834 10.519-1.398 7.24-2.168 11.227-5.525 11.227-2.807 0-3.317-2.337-4.279-12.333-.596-6.192-1.2-14.663-1.84-23.632-1.093-15.309-2.632-36.886-4.375-46.577-1.892 9.743-3.736 31.571-5.044 47.052-.749 8.864-1.457 17.236-2.12 23.339-1.071 9.848-1.602 12.151-4.356 12.151-3.215 0-4.083-3.812-5.659-10.733-.781-3.429-2.211-9.712-3.483-11.013h-7.223c-2.626 0-4.036-2.734-5.987-6.519-1.821-3.532-4.569-8.864-7.338-8.864h-.029c-2.731.036-5.891 5.868-7.779 9.353-2.037 3.76-3.267 6.029-5.592 6.029H44.63v-5h23.918c.516-.72 1.341-2.244 1.973-3.411 2.72-5.02 6.444-11.895 12.109-11.971 5.891-.06 9.343 6.655 11.877 11.572.688 1.333 1.596 3.097 2.154 3.81h6.931c4.646 0 6.218 6.906 8.039 14.903l.052.229c.713-6.397 1.5-15.699 2.226-24.297 4.279-50.642 5.729-55.785 10.069-55.785 4.351 0 5.732 5.106 9.32 55.376.592 8.289 1.229 17.223 1.843 23.653 1.472-7.608 2.813-14.079 7.185-14.079h25.109c.929-1.299 2.56-5.208 3.781-8.137 4.097-9.821 6.887-15.784 11.087-15.784 4.296 0 6.841 6.013 10.52 15.916 1.063 2.861 2.478 6.669 3.337 8.005h51.125c.516-.72 1.341-2.244 1.973-3.411 2.72-5.02 6.444-11.895 12.109-11.971 5.869-.06 9.343 6.655 11.877 11.572.688 1.333 1.596 3.097 2.154 3.81h6.931c4.484 0 5.773 6.275 7.265 13.54.262 1.277.581 2.829.924 4.263 1.063-7.238 2.151-20.943 3.071-32.529 3.644-45.896 4.896-50.224 9.125-50.224 4.245 0 5.44 4.303 8.459 49.931.754 11.402 1.644 24.841 2.601 32.262.277-1.401.523-2.855.719-4.007 1.252-7.395 2.241-13.236 6.568-13.236h25.109c.929-1.299 2.56-5.209 3.782-8.138 4.097-9.821 6.887-15.783 11.087-15.783 4.296 0 6.841 6.013 10.52 15.916 1.063 2.861 2.478 6.669 3.337 8.005h50.388c.516-.72 1.341-2.244 1.973-3.411 2.72-5.02 6.444-11.895 12.109-11.971l.101-.001c5.811 0 9.256 6.684 11.776 11.573.688 1.333 1.596 3.097 2.154 3.81h6.931c4.484 0 5.773 6.275 7.265 13.54.262 1.277.581 2.829.924 4.263 1.063-7.238 2.151-20.943 3.071-32.529 3.644-45.896 4.896-50.224 9.125-50.224 4.245 0 5.44 4.303 8.459 49.931.754 11.402 1.644 24.841 2.601 32.262.277-1.401.523-2.855.719-4.007 1.252-7.395 2.241-13.236 6.568-13.236h25.109c.929-1.299 2.56-5.209 3.782-8.138 4.097-9.821 6.887-15.783 11.087-15.783 4.296 0 6.841 6.013 10.52 15.916 1.063 2.861 2.478 6.669 3.337 8.005h13.099v5H552.1c-3.044 0-4.442-3.764-7.229-11.263-1.256-3.38-4.115-11.077-5.846-12.533-1.787 1.384-4.802 8.611-6.459 12.584-3.327 7.976-4.792 11.213-7.653 11.213h-25.327c-.861 1.38-1.668 6.146-2.164 9.07-1.198 7.081-2.145 12.675-6.255 12.675z" fill="#fff"/></svg></g><g transform="translate(241.0 866.0) rotate(0.0 327.0 72.5) scale(1.066219745607142 1.054461097657642)"><svg width="613.382" height="137.511" viewBox="0 0 613.382 137.511"><path d="M31.261 137.511h550.861c17.265 0 31.261-13.996 31.261-31.261V31.26C613.382 13.996 599.386 0 582.122 0H31.261C13.996 0 0 13.996 0 31.261v74.99c0 17.264 13.996 31.26 31.261 31.26z" fill="#56b1f0"/><path d="M89.951 115.592c-2.79 0-5.159-2.139-7.275-4.05-.927-.837-2.477-2.237-3.076-2.332-8.052.568-11.043-10.079-13.458-18.637-1.059-3.752-2.059-7.296-3.208-9.144-3.911-6.287-20.026-24.792-20.188-24.978a2.5 2.5 0 0 1 3.768-3.286c.674.772 16.544 18.997 20.666 25.623 1.523 2.449 2.617 6.324 3.775 10.426 1.923 6.814 4.352 15.305 8.365 15.009 2.508-.173 4.647 1.747 6.708 3.608 1.123 1.013 3.195 2.904 4.015 2.752 1.216-.224 3.428-2.287 5.204-3.945 2.513-2.345 5.11-4.768 7.961-5.659 1.273-1.35 2.848-8.644 3.897-13.503 2.846-13.177 5.111-21.951 10.46-23.773 2.819-.96 9.158-11.011 13.786-18.349 9.194-14.579 15.185-23.431 20.837-23.431 12.892 0 20.835 16.67 25.582 26.631 1.021 2.142 1.902 3.992 2.487 4.891 3.419 5.256 6.631 11.159 9.464 16.366 2.037 3.743 3.96 7.279 5.637 9.975 1.581 2.541 2.592 6.547 3.664 10.787 1.659 6.567 3.697 14.757 7.628 14.465.937-.228 3.945-2.821 5.937-4.536 4.102-3.535 6.765-5.713 9.15-6.152 3.008-.553 5.948 2.002 9.063 4.707 1.695 1.472 4.759 4.132 6.118 4.181 1.567-1.927 4.064-11.575 5.904-18.684 4.633-17.903 7.828-28.903 13.129-30.708 2.841-.968 7.709-8.18 11.622-13.975 6.23-9.23 12.115-17.948 18.146-17.948 6.843 0 12.364 9.089 17.703 17.878 2.769 4.558 5.384 8.863 7.595 10.848.955.857 1.952 1.74 2.972 2.643 6.238 5.522 13.308 11.781 16.98 17.685 1.417 2.277 2.805 5.619 4.274 9.157 2.597 6.252 6.153 14.815 9.949 16.25 4.38 1.656 6.435 5.699 8.085 8.948 1.586 3.122 2.653 5.044 4.515 5.22 3.162.3 6.462-1.958 9.657-4.14 2.165-1.479 4.214-2.879 6.295-3.522 1.502-1.412 4.003-9.644 5.838-15.683 4.461-14.681 7.776-24.437 13.003-26.216 2.714-.925 7.136-10.427 10.364-17.365 5.418-11.646 10.098-21.704 16.299-21.704 6.891 0 13.393 10.161 19.68 19.988 3.033 4.741 5.898 9.219 7.945 11.02 6.591 5.801 16.614 18.969 20.898 25.857 1.523 2.449 2.617 6.324 3.775 10.426 1.923 6.814 4.322 15.309 8.365 15.009 2.513-.173 4.646 1.747 6.708 3.608 1.122 1.013 3.198 2.906 4.015 2.752 1.216-.224 3.427-2.287 5.204-3.945 2.513-2.345 5.11-4.768 7.961-5.659 1.273-1.35 2.848-8.644 3.897-13.503 2.846-13.177 5.111-21.951 10.46-23.773 2.819-.96 9.158-11.011 13.786-18.349 9.194-14.579 15.185-23.431 20.837-23.431 4.492 0 8.837 2.101 12.916 6.246a2.5 2.5 0 1 1-3.564 3.507c-3.148-3.198-6.207-4.753-9.353-4.753-3.302 0-11.631 13.207-16.607 21.098-7.384 11.708-12.127 18.959-16.404 20.415-3.07 1.046-5.646 12.97-7.184 20.095-2.354 10.9-3.643 16.184-7.201 17.193-1.774.503-4.091 2.664-6.134 4.571-2.6 2.426-5.056 4.718-7.709 5.206-3.222.593-5.907-1.824-8.271-3.959-.926-.837-2.477-2.237-3.075-2.332-8.052.568-11.043-10.079-13.458-18.637-1.059-3.752-2.059-7.296-3.208-9.143-4.025-6.47-13.799-19.327-19.956-24.744-2.576-2.267-5.485-6.813-8.854-12.079-4.505-7.042-11.313-17.683-15.468-17.683-3.012 0-8.492 11.777-11.766 18.813-5.32 11.434-8.869 18.485-13.286 19.989-3.19 1.086-7.347 14.765-9.831 22.937-3.686 12.129-5.61 18.002-9.045 18.976-1.371.389-3.159 1.61-5.052 2.903-3.745 2.558-7.988 5.461-12.948 4.989-4.696-.444-6.718-4.423-8.501-7.933-1.455-2.862-2.828-5.565-5.396-6.536-5.817-2.199-9.526-11.13-12.799-19.009-1.389-3.344-2.701-6.503-3.902-8.434-3.287-5.285-10.067-11.286-16.048-16.582-1.029-.911-2.035-1.801-2.998-2.666-2.761-2.478-5.563-7.09-8.529-11.973-3.967-6.531-9.399-15.474-13.429-15.474-3.373 0-9.516 9.1-14.001 15.745-5.216 7.727-9.721 14.401-14.154 15.911-3.13 1.066-7.534 18.084-9.9 27.228-4.06 15.69-5.78 21.265-9.132 22.215-3.791 1.075-7.46-2.11-11.007-5.19-1.514-1.314-4.046-3.513-4.951-3.558-1.154.219-4.639 3.221-6.721 5.015-4.007 3.452-6.578 5.576-8.849 5.736a8.893 8.893 0 0 1-.626.022c-7.591.001-10.141-10.095-12.201-18.25-.931-3.683-1.893-7.491-3.062-9.371-1.753-2.819-3.711-6.417-5.783-10.226-2.79-5.127-5.951-10.938-9.264-16.029-.765-1.176-1.667-3.069-2.81-5.467-3.96-8.311-11.333-23.781-21.068-23.781-3.302 0-11.631 13.207-16.607 21.098-7.384 11.708-12.127 18.959-16.404 20.415-3.07 1.046-5.646 12.97-7.184 20.095-2.354 10.9-3.643 16.184-7.201 17.193-1.774.503-4.09 2.664-6.134 4.57-2.6 2.426-5.056 4.718-7.71 5.207-.34.062-.673.091-.999.091z" fill="#fff"/></svg></g><g transform="translate(241.0 1067.0) rotate(0.0 324.5 72.0) scale(1.0580682185000538 1.0471889521565547)"><svg width="613.382" height="137.511" viewBox="0 0 613.382 137.511"><path d="M31.261 137.511h550.861c17.265 0 31.261-13.996 31.261-31.261V31.26C613.382 13.996 599.386 0 582.122 0H31.261C13.996 0 0 13.996 0 31.261v74.99c0 17.264 13.996 31.26 31.261 31.26z" fill="#f0e760"/><g fill="#fff"><path d="M105.754 112.902c-6.297 0-16.729-4.232-22.603-11.07-8.519-9.917-14.337-23.385-19.471-35.268C57.431 52.1 52.034 39.608 44.63 39.608a2.5 2.5 0 1 1 0-5c10.691 0 16.692 13.89 23.64 29.973 4.992 11.555 10.65 24.653 18.674 33.992 4.722 5.497 13.703 9.328 18.81 9.328 11.363 0 12.804-13.153 13.6-31.736.607-14.172 1.18-27.558 11.537-27.558a2.5 2.5 0 1 1 0 5c-5.179 0-5.953 9.017-6.542 22.772-.697 16.273-1.564 36.523-18.595 36.523z"/><path d="M192.014 106.902c-6.297 0-16.729-4.232-22.603-11.07-6.664-7.757-11.624-15.283-16-21.924-8.057-12.225-13.38-20.301-22.521-20.301a2.5 2.5 0 1 1 0-5c11.833 0 18.392 9.951 26.695 22.549 4.294 6.516 9.162 13.901 15.619 21.417 4.722 5.497 13.703 9.328 18.81 9.328 12.217 0 12.951-22.351 13.599-42.072.621-18.9 1.157-35.222 11.538-35.222a2.5 2.5 0 1 1 0 5c-5.542 0-6.073 16.143-6.541 30.386-.722 21.989-1.541 46.909-18.596 46.909z"/><path d="M278.275 112.902c-6.297 0-16.729-4.232-22.603-11.07-8.908-10.369-14.881-26.719-20.152-41.145-5.84-15.983-11.355-31.08-18.369-31.08a2.5 2.5 0 1 1 0-5c10.51 0 16.329 15.925 23.066 34.364 5.125 14.025 10.933 29.922 19.249 39.602 4.722 5.497 13.703 9.328 18.81 9.328 11.356 0 12.8-14.105 13.6-34.031.604-15.048 1.174-29.262 11.537-29.262a2.5 2.5 0 1 1 0 5c-5.56 0-6.059 12.436-6.541 24.463-.696 17.301-1.56 38.831-18.597 38.831z"/><path d="M364.535 106.902c-6.297 0-16.729-4.232-22.603-11.07-7.266-8.458-12.523-17.219-17.161-24.95-7.411-12.351-12.766-21.274-21.36-21.274a2.5 2.5 0 1 1 0-5c11.426 0 17.702 10.459 25.647 23.702 4.536 7.56 9.678 16.129 16.667 24.264 4.722 5.497 13.703 9.328 18.81 9.328 11.399 0 12.786-11.203 13.601-28.294.585-12.29 1.191-24.999 11.536-24.999a2.5 2.5 0 1 1 0 5c-5.202 0-5.942 7.646-6.542 20.237-.702 14.728-1.575 33.056-18.595 33.056z"/><path d="M450.796 112.902c-6.297 0-16.729-4.232-22.603-11.07-7.501-8.732-12.871-18.097-17.608-26.359-7.004-12.216-12.537-21.865-20.914-21.865a2.5 2.5 0 1 1 0-5c11.274 0 17.442 10.758 25.251 24.378 4.626 8.069 9.87 17.215 17.063 25.588 4.722 5.497 13.703 9.328 18.81 9.328 12.211 0 12.948-24.183 13.599-45.519.618-20.27 1.151-37.775 11.538-37.775a2.5 2.5 0 1 1 0 5c-5.537 0-6.093 18.257-6.541 32.927-.718 23.609-1.534 50.367-18.595 50.367z"/><path d="M537.057 106.902c-6.297 0-16.729-4.232-22.603-11.07-8.695-10.122-14.585-24.745-19.782-37.647-5.919-14.696-11.51-28.577-18.739-28.577a2.5 2.5 0 1 1 0-5c10.606 0 16.524 14.694 23.377 31.709 5.052 12.543 10.778 26.761 18.936 36.257 4.722 5.497 13.703 9.328 18.81 9.328 11.431 0 13.257-12.711 14.588-30.669 1.016-13.698 1.975-26.636 12.258-26.636a2.5 2.5 0 1 1 0 5c-5.248 0-6.286 8.713-7.272 22.006-1.165 15.727-2.616 35.299-19.573 35.299z"/></g></svg></g><g transform="translate(942.0 671.0) rotate(0.0 69.0 58.5) scale(1.0900387832639553 1.0839254778073206)"><svg width="126.601" height="107.941" viewBox="0 0 126.601 107.941"><path d="M63.387 107.96c-2.543 0-5.088-.798-7.275-2.398C39.721 93.559 1.447 62.524.04 33.623-.448 23.588 3.508 14.744 11.799 7.334 18.057 1.741 25.024-.675 32.504.159c14.018 1.559 25.819 14.142 30.442 19.756C67.321 14.43 78.318 2.406 92.061.314c7.695-1.17 15.029.945 21.795 6.293 8.537 6.746 12.824 15.075 12.743 24.756-.24 28.614-39.061 61.316-55.74 74.048a12.285 12.285 0 0 1-7.472 2.549zm5.956-4.535h.01zM29.705 5.003c-5.175 0-10.068 2.032-14.574 6.06C7.92 17.507 4.617 24.807 5.034 33.38c1.338 27.502 41.695 59.113 54.032 68.147a7.268 7.268 0 0 0 8.76-.089c12.557-9.585 53.546-42.97 53.774-70.115.068-8.17-3.478-14.971-10.843-20.791-5.63-4.449-11.662-6.223-17.927-5.275-15.375 2.33-27.664 20.007-27.786 20.186a2.502 2.502 0 0 1-2.038 1.086 2.558 2.558 0 0 1-2.059-1.045c-.133-.186-13.505-18.64-29.009-20.355a19.794 19.794 0 0 0-2.233-.126z" fill="#f05467"/></svg></g><g transform="translate(942.0 879.0) rotate(0.0 71.0 59.5) scale(1.0604849851756148 1.055975579455507)"><svg width="133.901" height="112.692" viewBox="0 0 133.901 112.692"><path d="M89.766 112.701c-2.481 0-4.821-1.168-6.383-3.306L73.17 95.41a22.634 22.634 0 0 1-10.545-8.351c-3.545 2.167-7.576 3.3-11.803 3.3-6.371 0-12.48-2.72-16.763-7.375a22.573 22.573 0 0 1-11.31 3.011C10.205 85.995 0 75.79 0 63.247c0-4.504 1.288-8.788 3.743-12.499C1.288 47.037 0 42.754 0 38.25c0-12.544 10.205-22.749 22.749-22.749 1.729 0 3.437.193 5.103.575A22.7 22.7 0 0 1 49.602 0c6.013 0 11.663 2.33 15.893 6.476C69.725 2.33 75.375 0 81.388 0c9.403 0 17.665 5.652 21.107 14.244 12.148.453 21.891 10.476 21.891 22.733 0 2.407-.372 4.76-1.107 7.02 6.606 4.146 10.624 11.333 10.624 19.249 0 12.544-10.205 22.749-22.749 22.749-3.205 0-6.355-.673-9.253-1.963a22.794 22.794 0 0 1-4.66 6.474l.607 13.816c.159 3.607-1.941 6.711-5.348 7.906a8.26 8.26 0 0 1-2.734.473zM63.393 80.977a2.5 2.5 0 0 1 2.221 1.353 17.695 17.695 0 0 0 9.949 8.633c.48.167.898.476 1.199.887l10.659 14.596c.97 1.329 2.405 1.421 3.422 1.063 1.018-.357 2.081-1.324 2.008-2.968l-.658-14.976a2.502 2.502 0 0 1 .854-1.994 17.765 17.765 0 0 0 5.196-7.814 2.498 2.498 0 0 1 3.677-1.35 17.71 17.71 0 0 0 9.232 2.588c9.787 0 17.749-7.962 17.749-17.749 0-6.773-3.771-12.862-9.841-15.89a2.5 2.5 0 0 1-1.173-3.244 17.61 17.61 0 0 0 1.498-7.136c0-9.787-7.962-17.749-17.749-17.749-.267 0-.531.009-.794.021a2.486 2.486 0 0 1-2.498-1.758C96.031 10.019 89.217 5 81.388 5c-5.459 0-10.538 2.464-13.932 6.76a2.5 2.5 0 0 1-3.922 0C60.139 7.464 55.061 5 49.602 5a17.708 17.708 0 0 0-17.473 14.648 2.498 2.498 0 0 1-3.316 1.916 17.708 17.708 0 0 0-6.064-1.063C12.962 20.501 5 28.463 5 38.25c0 4.012 1.311 7.799 3.789 10.953a2.5 2.5 0 0 1 0 3.09A17.569 17.569 0 0 0 5 63.247c0 9.787 7.962 17.749 17.749 17.749 3.742 0 7.323-1.155 10.357-3.34a2.5 2.5 0 0 1 3.467.536c3.389 4.555 8.582 7.167 14.249 7.167 4.041 0 7.851-1.328 11.018-3.84a2.495 2.495 0 0 1 1.553-.542z" fill="#56b1f0"/></svg></g><g transform="translate(939.0 1067.0) rotate(0.0 70.0 69.0) scale(1.0789398645159798 1.0843685910280285)"><svg width="129.757" height="127.263" viewBox="0 0 129.757 127.263"><path d="M116.239 127.262h-4.611c-23.34 0-42.329-18.989-42.329-42.329V54.962l-4.421-2.411-4.421 2.411v29.972c0 23.34-18.989 42.329-42.329 42.329h-4.611c-8.076 0-13.082-4.972-13.393-13.301-1.295-34.729 7.908-65.817 24.617-83.16 8.593-8.919 18.599-13.633 28.936-13.633a6.79 6.79 0 0 1 1.78.237V2.5a2.5 2.5 0 0 1 2.5-2.5h13.842a2.5 2.5 0 0 1 2.5 2.5v14.905a6.742 6.742 0 0 1 1.78-.237c10.337 0 20.343 4.714 28.936 13.633 16.709 17.344 25.912 48.431 24.617 83.16-.311 8.329-5.317 13.301-13.393 13.301zM64.878 47.203c.412 0 .824.102 1.197.305l6.921 3.774a2.5 2.5 0 0 1 1.303 2.195v31.456c0 20.583 16.746 37.329 37.329 37.329h4.611c5.437 0 8.183-2.776 8.396-8.488 1.245-33.398-7.436-63.12-23.221-79.505-7.628-7.917-16.389-12.102-25.335-12.102-.981 0-1.78.798-1.78 1.78v15.758a2.5 2.5 0 1 1-5 0V5h-8.842v34.705a2.5 2.5 0 1 1-5 0V23.947c0-.981-.798-1.78-1.78-1.78-8.947 0-17.708 4.185-25.335 12.102C12.557 50.655 3.876 80.376 5.121 113.775c.213 5.711 2.959 8.488 8.396 8.488h4.611c20.583 0 37.329-16.746 37.329-37.329V53.477a2.5 2.5 0 0 1 1.303-2.195l6.921-3.774a2.503 2.503 0 0 1 1.197-.305z" fill="#f0e760"/></svg></g></svg>