<?xml version="1.0" encoding="UTF-8"?><svg id="Layer_1" data-name="Layer 1" xmlns="http://www.w3.org/2000/svg" width="469.962" height="528.339" viewBox="0 0 469.962 528.339" x="0px" y="0px" version="1.1" xmlns:xlink="http://www.w3.org/1999/xlink">
  
  <g>
    <g>
      <path d="M448.021,210.214a120.7,120.7,0,0,0-20.589-20.758,141.687,141.687,0,0,0-23.458-14.979,177.752,177.752,0,0,0-24.5-10.275l-2.568-.882a40.926,40.926,0,1,0-17.089,79.531,90.04,90.04,0,0,1,13.8,2.5,66.619,66.619,0,0,1,11.911,4.426,50.969,50.969,0,0,1,5.084,2.836A46.043,46.043,0,0,1,395,255.868a35.426,35.426,0,0,1,6.778,7.547,29.23,29.23,0,0,1,4.01,9.178,35.175,35.175,0,0,1,.884,11,44.921,44.921,0,0,1-2.726,12.334,63.178,63.178,0,0,1-6.464,12.627,92.836,92.836,0,0,1-22.133,22.811A142.708,142.708,0,0,1,344.9,348.424,200.081,200.081,0,0,1,309.779,359.3a264.659,264.659,0,0,1-37.54,5.318q-9.565.7-19.245.86l-5.226.1c-1.761.021-3.524.105-5.284.16s-3.521.141-5.28.234-3.517.18-5.274.307a364.616,364.616,0,0,0-41.869,5.155,329.55,329.55,0,0,0-40.845,10.175,291.517,291.517,0,0,0-39.059,15.538,250.8,250.8,0,0,0-36.183,21.379,205.229,205.229,0,0,0-31.763,27.586,187.578,187.578,0,0,0-13.573,16.158,177.026,177.026,0,0,0-11.553,17.7,160.435,160.435,0,0,0-15.9,39.175c0,.018-.018.074-.023.092a7.04,7.04,0,0,0,13.676,3.35l0,0a130.073,130.073,0,0,1,6-18.216,144.941,144.941,0,0,1,8.683-17.142,153.076,153.076,0,0,1,23.943-30.112A176.481,176.481,0,0,1,69.3,443.452a84.768,84.768,0,0,0-.4,12.606c.139,4.815.333,9.288.145,13.662A63.349,63.349,0,0,1,67.3,482.476a64.93,64.93,0,0,1-4.387,12.157,92.5,92.5,0,0,1-6.68,11.461,5.115,5.115,0,0,0,8.211,6.079l.056-.066a102.489,102.489,0,0,0,8.845-12.136,76.933,76.933,0,0,0,6.7-13.986,77.629,77.629,0,0,0,3.682-15.265c.737-5.11,1.02-10.161,1.386-14.688a51.494,51.494,0,0,1,1.96-11.835,23.74,23.74,0,0,1,1.939-4.435c.451-.652.809-1.32,1.294-1.948a22.774,22.774,0,0,1,1.511-1.856,89.824,89.824,0,0,1,26.623-20.2c11.546-5.838,24.422-8.605,37.015-11.54a282.578,282.578,0,0,1,38.288-5.986q9.653-.837,19.335-1.08c6.451-.16,12.905-.067,19.346.177,1.61.05,3.219.131,4.829.223s3.215.168,4.823.291,3.212.206,4.817.357l4.872.416q10.521.909,21.161,1.237c7.092.213,14.221.216,21.38-.035,7.16-.225,14.351-.671,21.56-1.427q10.817-1.1,21.666-3.11c7.232-1.333,14.467-2.979,21.668-5.026a196.722,196.722,0,0,0,42.481-17.34,148.248,148.248,0,0,0,38.367-30.231,120.253,120.253,0,0,0,15.345-21.3,108.129,108.129,0,0,0,10.476-25.743,97.039,97.039,0,0,0-3.065-58.967A102.491,102.491,0,0,0,448.021,210.214Z" style="
        fill: #f62d00;
      "/>
      <path d="M448.987,209.956A127.231,127.231,0,0,0,413.61,178.99a162.593,162.593,0,0,0-22.547-11.153c-5.7-2.3-11.66-4.761-17.7-6.057-23.259-5-47.344,10.774-50.876,34.543a41.074,41.074,0,0,0,23.7,43.447c6.156,2.774,12.5,3.154,19.056,4.289,15.229,2.635,32.67,9.8,38.52,25.41,5.783,15.435-1.391,32.291-11.009,44.482-20.827,26.4-55.161,39.563-87.165,45.939a293.973,293.973,0,0,1-52.019,5.219,411.854,411.854,0,0,0-41.784,2.728c-32.98,3.986-65.555,12.476-95.835,26.237-28.869,13.119-55.739,31.2-77.072,54.807a173.9,173.9,0,0,0-28.051,41.4,161.121,161.121,0,0,0-8.75,22.508C1.2,515.666-.4,519.2.093,522.285A7.207,7.207,0,0,0,4.859,527.9a8.682,8.682,0,0,0,10.934-5.5c2.309-7.872,4.645-15.553,8.144-23.006a146.391,146.391,0,0,1,28.031-40,174.3,174.3,0,0,1,18.2-16.034l-1.836.35c-1.347,11.593.847,23.276-1.127,34.841a62.849,62.849,0,0,1-6.013,17.835c-1.338,2.629-2.856,5.161-4.446,7.645-1.187,1.855-2.6,3.554-2.267,5.885.543,3.752,4.46,5.13,7.723,4.112,3.767-1.175,6.179-5.641,8.354-8.635a77.087,77.087,0,0,0,13.656-31.938c1.034-5.851,1.373-11.77,1.862-17.682.47-5.685,1.1-11.533,4.1-16.519,3.3-5.494,8.924-10.11,13.915-13.975A94.482,94.482,0,0,1,135.4,409.518a305.529,305.529,0,0,1,35.346-8.045,299.906,299.906,0,0,1,74.94-2.95c21.449,1.776,42.859,2.547,64.343.737,44.858-3.779,91.616-17.993,124.541-50.055,16.16-15.737,28.446-35.679,33.223-57.868a98.506,98.506,0,0,0-9.88-67.7,107.522,107.522,0,0,0-8.927-13.684c-.333-.438-2.04.375-1.932.517,13.824,18.113,21.609,40.416,20.994,63.283-.617,22.953-9.629,45.008-23.764,62.935-29.29,37.151-76.438,54.982-122.136,60.681-23.461,2.927-47.193,2.8-70.721.794a328.423,328.423,0,0,0-63.545.321,289.375,289.375,0,0,0-34.148,5.853c-10.58,2.457-21.253,4.885-31.267,9.19a92.842,92.842,0,0,0-24.112,15.205c-4.724,4.107-9.791,8.834-11.977,14.833-1.758,4.824-2.043,10.1-2.427,15.166a134.429,134.429,0,0,1-2.242,18.157,77.666,77.666,0,0,1-14.3,30.536c-1.534,2.024-4.026,6.652-7.134,6.15a4.982,4.982,0,0,1-3.775-5.966c.537-2.469,2.731-4.81,4.019-6.962a71.887,71.887,0,0,0,4.24-8.18C69.285,482.1,70.308,471.419,70,460.22a118.579,118.579,0,0,1,.265-17.027c.043-.37-1.69.238-1.835.35-24.748,19.092-44.734,44.653-53.414,75-.456,1.593-.748,3.274-1.3,4.836a5.861,5.861,0,0,1-5.955,4.136c-3.156-.208-5.59-3.393-5.8-6.356-.248-3.445,1.627-7.519,2.661-10.761q1.741-5.456,3.866-10.778a166.934,166.934,0,0,1,23.775-41.035c19.878-25.313,46.107-45,74.7-59.482,29.938-15.165,62.639-24.668,95.8-29.469a370.8,370.8,0,0,1,46.093-3.724,344.7,344.7,0,0,0,43.284-3.133c29.764-4.34,60.1-13.5,84.427-31.76,11.582-8.7,22.037-19.869,27.612-33.411,5.7-13.843,4.777-29.7-6.455-40.441-5.435-5.2-12.287-8.657-19.381-11a79.633,79.633,0,0,0-10.621-2.666c-3.646-.668-7.361-.868-10.994-1.588A40.828,40.828,0,0,1,326.7,187.175,40.486,40.486,0,0,1,351.883,163.3c13.485-4.253,26.554.682,38.992,5.847a146.484,146.484,0,0,1,40.064,24.3,120.568,120.568,0,0,1,16.116,17.025C447.394,210.91,449.094,210.093,448.987,209.956Z"/>
    </g>
    <g>
      <ellipse cx="326.865" cy="187.027" rx="66.084" ry="54.679" transform="translate(35.791 425.974) rotate(-69.161)" style="
        fill: #f62d00;
      "/>
      <path d="M378.929,206.344a75.928,75.928,0,0,0,3.984-40.59c-2.249-12.011-7.889-23.576-17.011-31.854a47.148,47.148,0,0,0-31.908-12.142c-11.789.079-23.235,4.385-32.794,11.15A74.651,74.651,0,0,0,276.767,163a77.246,77.246,0,0,0-6.655,40.648c1.426,12.223,6.185,24.24,14.567,33.373a47.1,47.1,0,0,0,30.871,15.121c11.656.911,23.325-2.453,33.235-8.523a73.066,73.066,0,0,0,25.871-27.9,81.751,81.751,0,0,0,4.273-9.374c.21-.55-1.695-.326-1.924.271a75.41,75.41,0,0,1-22.29,31.462c-8.906,7.286-19.87,12.373-31.448,13.12A45.717,45.717,0,0,1,291.43,240.98c-9.157-7.509-15.13-18.25-17.92-29.665a73.58,73.58,0,0,1,1.554-39.061,76.718,76.718,0,0,1,20.514-33.268c8.531-7.975,19.218-13.928,30.854-15.686a45.81,45.81,0,0,1,32.437,7.213c9.782,6.62,16.6,16.809,20.157,27.976a71.7,71.7,0,0,1,1.018,38.3,81.886,81.886,0,0,1-3.039,9.827C376.8,207.168,378.7,206.942,378.929,206.344Z"/>
    </g>
    <g>
      <path d="M335.5,51.63A147.353,147.353,0,0,1,225.929,295.163a145.116,145.116,0,0,1-19.718-1.064A147.363,147.363,0,0,1,199.989,2.4,145.338,145.338,0,0,1,219.644.528,147.079,147.079,0,0,1,335.5,51.63Z" style="
        fill: #fff;
      "/>
      <path d="M334.6,51.983a147.342,147.342,0,0,1,23.892,153.8A146.035,146.035,0,0,1,337.117,241.1a148.274,148.274,0,0,1-34.32,30.607,144.66,144.66,0,0,1-46.215,19.41,146.461,146.461,0,0,1-135.608-39.056,148.185,148.185,0,0,1-26.329-35.424,146.926,146.926,0,0,1,40.63-185.894A144.588,144.588,0,0,1,232.225,1.2,146.484,146.484,0,0,1,317.8,35.363a150.107,150.107,0,0,1,16.8,16.62c.369.427,2.207-.244,1.807-.706A147.118,147.118,0,0,0,255.3,3.263,148.978,148.978,0,0,0,117.651,44.8a146.991,146.991,0,0,0-38.925,72.771A148.841,148.841,0,0,0,75.9,158.242,147.467,147.467,0,0,0,181.5,289.613,148.99,148.99,0,0,0,322.919,257.7,147.44,147.44,0,0,0,348.86,67.95a150.975,150.975,0,0,0-12.455-16.673C336.037,50.849,334.2,51.518,334.6,51.983Z"/>
    </g>
    <path d="M293.17,107.235a7.153,7.153,0,0,1,1.843.768,47.953,47.953,0,0,0,4.765,2.059,34.3,34.3,0,0,0,7.083,1.682c2.652.334,5.513.276,8.477.441.745.083,1.491.122,2.234.244a18.363,18.363,0,0,1,2.212.477,17.376,17.376,0,0,1,4.079,1.724,28.216,28.216,0,0,1,6.027,4.913c3.086,3.3,4.891,5.732,5.032,5.86s1.926,2.588,4.707,5.955a44.457,44.457,0,0,0,5.12,5.261,23.494,23.494,0,0,0,7.055,4.19c2.644.961,5.51,1.461,8.16,2.216a18.547,18.547,0,0,1,6.832,3.248,9.932,9.932,0,0,1,3.252,4.24,3.891,3.891,0,0,1,.348,1.988c-.1.018-.217-.705-.764-1.807a10.2,10.2,0,0,0-3.361-3.721,18.262,18.262,0,0,0-6.623-2.73c-2.6-.623-5.5-1.006-8.36-1.93a24.823,24.823,0,0,1-7.721-4.251,45.482,45.482,0,0,1-5.508-5.349c-2.947-3.389-4.768-5.782-4.9-5.915s-1.9-2.6-4.786-5.844a26.681,26.681,0,0,0-5.461-4.72,17.335,17.335,0,0,0-7.7-2.464c-2.832-.259-5.793-.316-8.524-.781a32.7,32.7,0,0,1-7.225-2.112,33.484,33.484,0,0,1-4.664-2.477A6.942,6.942,0,0,1,293.17,107.235Z"/>
    <path d="M298.89,195.694c-.01-.228,2.5.26,5.713-1.23a20.562,20.562,0,0,0,4.91-3.44c1.648-1.5,3.286-3.247,4.965-5a58.98,58.98,0,0,1,5.235-4.984,22.81,22.81,0,0,1,5.536-3.442c.452-.186.887-.366,1.319-.5l1.156-.379c.688-.21,1.284-.445,1.781-.645.992-.4,1.58-.691,1.651-.711.149-.048,2.363-1.066,5.713-2.7a33.136,33.136,0,0,1,6.012-2.294,14.04,14.04,0,0,1,7.482,0A70.6,70.6,0,0,1,357,173.08a16.022,16.022,0,0,0,2.994.93,10.308,10.308,0,0,0,2.767.141,6.915,6.915,0,0,0,3.829-1.444c.772-.65,1.069-1.19,1.155-1.14.05.019-.106.644-.844,1.469a6.926,6.926,0,0,1-4.027,1.983,10.776,10.776,0,0,1-3.042.051,16.452,16.452,0,0,1-3.27-.811c-2.186-.745-4.367-1.8-6.607-2.35a12.433,12.433,0,0,0-6.585.267,32.144,32.144,0,0,0-5.587,2.354c-3.228,1.7-5.556,2.844-5.706,2.891-.079.023-.7.313-1.775.713-.539.2-1.188.435-1.955.646l-1.14.338a12.026,12.026,0,0,0-1.175.4,21.157,21.157,0,0,0-5.163,2.987,60.6,60.6,0,0,0-5.264,4.643c-1.742,1.671-3.487,3.376-5.272,4.83a20.189,20.189,0,0,1-5.388,3.292,10.973,10.973,0,0,1-4.4.734A3.7,3.7,0,0,1,298.89,195.694Z"/>
    <path d="M316.2,217.473c-.1.058-.83-1.534-.445-4.032a19.473,19.473,0,0,1,3.79-8.129,42.089,42.089,0,0,0,4.687-7.247,11.758,11.758,0,0,0,.983-3.713,23.845,23.845,0,0,0,.123-4.016c-.032-1.206-.112-2.638-.039-4.213.018-.393.051-.794.1-1.2a5.513,5.513,0,0,1,.363-1.355,10.464,10.464,0,0,1,1.3-2.251,21.855,21.855,0,0,1,6.8-5.867,8.315,8.315,0,0,1,2.8-1.005,2.413,2.413,0,0,1,.843-.011c.193.026.29.058.288.1s-.1.083-.281.133a4.414,4.414,0,0,0-.747.222,10.346,10.346,0,0,0-2.45,1.314,23.26,23.26,0,0,0-5.945,6.025,9.049,9.049,0,0,0-.973,1.939,3.714,3.714,0,0,0-.2.915c-.018.366-.029.729-.026,1.089.01,1.443.153,2.832.244,4.06a24.265,24.265,0,0,1,.042,4.382c-.015.055-.057.529-.237,1.313a14.354,14.354,0,0,1-1.1,3.021,40.359,40.359,0,0,1-5.3,7.333,20.288,20.288,0,0,0-4.2,7.341C316,215.852,316.392,217.441,316.2,217.473Z"/>
    <path d="M295.657,178.481c.059-.144.741.01,1.758.337.494.19,1.058.45,1.667.731.572.335,1.224.656,1.8,1.07A35.929,35.929,0,0,1,304,182.981c.809.673,1.351,1.083,1.383,1.112a8.844,8.844,0,0,0,4.356,2.456,10.926,10.926,0,0,0,1.87.168c.612-.054,1.2-.063,1.7-.115,1-.143,1.7-.187,1.753-.04s-.567.476-1.551.892c-.5.189-1.11.334-1.767.513a10.237,10.237,0,0,1-2.173.164,8.265,8.265,0,0,1-4.036-1.214,13.7,13.7,0,0,1-1.6-1.1c-.034-.03-.6-.543-1.332-1.3-.745-.746-1.675-1.748-2.682-2.627-.486-.47-1.029-.852-1.507-1.269l-1.4-1.017C296.16,179.05,295.6,178.624,295.657,178.481Z"/>
    <path d="M345.437,116.326c.123-.126.794.466,1.993.787a9.453,9.453,0,0,0,4.51-.043c1.621-.375,3.284-1.038,4.625-1.427a16.2,16.2,0,0,1,2.412-.559c.03-.006.3-.03.745-.045a6.5,6.5,0,0,1,1.979.207,12.458,12.458,0,0,1,4.372,3,15.037,15.037,0,0,1,3.011,4.044,4.643,4.643,0,0,1,.475,1.632c0,.43-.084.657-.154.65s-.162-.223-.288-.551a7.305,7.305,0,0,0-.788-1.288,18.443,18.443,0,0,0-3.312-3.3,11.8,11.8,0,0,0-3.868-2.191,5.1,5.1,0,0,0-1.3-.006c-.363.04-.582.074-.608.079a17.043,17.043,0,0,0-2.163.334c-1.285.252-3,.77-4.886.989a9.246,9.246,0,0,1-5.084-.714C345.815,117.269,345.331,116.4,345.437,116.326Z"/>
    <path d="M338.513,104.3c0-.145.833-.273,2.094-.278a23.677,23.677,0,0,1,4.611.518,28.545,28.545,0,0,1,4.507,1.388c1.21.486,2,.9,2.058.915.041.039.82.479,1.884,1.232a28.476,28.476,0,0,1,3.609,3.031,23.8,23.8,0,0,1,2.935,3.59c.679,1.061,1.021,1.827.9,1.909-.136.094-.718-.5-1.58-1.356a41.322,41.322,0,0,0-3.314-2.955,33.4,33.4,0,0,0-3.672-2.476c-1.052-.609-1.8-.962-1.839-1-.051-.012-.755-.449-1.838-1a33.225,33.225,0,0,0-4.075-1.743,41.037,41.037,0,0,0-4.283-1.181C339.32,104.632,338.507,104.464,338.513,104.3Z"/>
    <path d="M333.018,225.407c-.261-.167,2.427-4.881,5.2-9.59l3.874-6.491,1.863-3.07c.055-.073.818-1.25,2.043-2.982a20.876,20.876,0,0,1,5.493-5.6,8.929,8.929,0,0,1,4.129-1.255,11.294,11.294,0,0,1,3.622.369c2.077.566,3.113,1.635,3.019,1.721-.1.152-1.244-.605-3.2-.865a11.616,11.616,0,0,0-3.3.026,7.825,7.825,0,0,0-3.369,1.318,20.209,20.209,0,0,0-4.674,5.445l-1.865,3.034-2.012,2.974-4.28,6.23C336.442,221.164,333.28,225.575,333.018,225.407Z"/>
    <path d="M331.131,204.531c-.108-.089.239-.777,1.046-1.61a10.447,10.447,0,0,1,3.57-2.33,11.632,11.632,0,0,1,4.315-.841,10.706,10.706,0,0,1,2.129.195,10.909,10.909,0,0,1,1.572.549,18.368,18.368,0,0,0,2.912,1.168c.025.055.388-.018.709-.17a7.786,7.786,0,0,0,1-.528,20.414,20.414,0,0,0,1.792-1.251c1.065-.8,1.648-1.457,1.794-1.4.077.031.048.3-.142.689a7.835,7.835,0,0,1-.969,1.412,14.012,14.012,0,0,1-1.655,1.675,8.27,8.27,0,0,1-1.09.8,2.752,2.752,0,0,1-1.653.5,16.468,16.468,0,0,1-3.445-.918,10.374,10.374,0,0,0-1.331-.336,10.093,10.093,0,0,0-1.713-.316,10.824,10.824,0,0,0-3.731.281,12.212,12.212,0,0,0-3.515,1.5C331.825,204.164,331.259,204.641,331.131,204.531Z"/>
    <path d="M267.989,233.6c.2-.056.624,2.612,2.668,5.937a20.858,20.858,0,0,0,4.281,4.988,19.042,19.042,0,0,0,6.511,3.63,19.918,19.918,0,0,0,13.721-.639,23.258,23.258,0,0,0,4.094-2.349L300.921,244c.073-.046.673-.465,1.734-1.132a18.019,18.019,0,0,1,4.76-2.191,10.83,10.83,0,0,1,3.551-.323,17.831,17.831,0,0,1,3.737.724l3.679,1.129a23.623,23.623,0,0,0,3.741.749,23.109,23.109,0,0,0,7.49-.476,24.173,24.173,0,0,0,6.158-2.362c3.415-1.892,5.166-3.926,5.311-3.777a5.2,5.2,0,0,1-1.117,1.453,20.316,20.316,0,0,1-3.744,3.075,23.6,23.6,0,0,1-14.237,3.671,24.763,24.763,0,0,1-4.051-.656l-3.717-1a11.354,11.354,0,0,0-6.252-.2,16.208,16.208,0,0,0-4.122,2.05c-.984.652-1.577,1.085-1.647,1.129l-1.7,1.138a24.883,24.883,0,0,1-4.536,2.436,21.48,21.48,0,0,1-15.023.228,20.027,20.027,0,0,1-6.831-4.2,20.67,20.67,0,0,1-4.206-5.494,18.208,18.208,0,0,1-1.7-4.548A4.8,4.8,0,0,1,267.989,233.6Z"/>
    <path d="M265.947,214c-.061-.1,1.489-1.119,4.2-1.622a16.347,16.347,0,0,1,9.925,1.348,16.738,16.738,0,0,1,7.358,7.179,16.4,16.4,0,0,1,1.668,4.707,18.852,18.852,0,0,1,.1,4.936c-.207,2.794-1.035,6.28-.667,9.656a9.765,9.765,0,0,0,1.573,4.559,6.792,6.792,0,0,0,3.324,2.46,5.575,5.575,0,0,0,2.979.184c.721-.172,1.113-.393,1.164-.313.036.046-.274.405-1.021.744a5.5,5.5,0,0,1-3.355.229,7.532,7.532,0,0,1-4.092-2.544,10.877,10.877,0,0,1-2.148-5.1,23.357,23.357,0,0,1-.162-5.436c.118-1.706.282-3.26.337-4.579a17.4,17.4,0,0,0-.251-4.411,14.853,14.853,0,0,0-1.3-4.157,15.257,15.257,0,0,0-6.24-6.7,16.182,16.182,0,0,0-9.079-1.893C267.665,213.456,266.017,214.176,265.947,214Z"/>
    <path d="M299.33,149.45c-.04-.045.235-.41.879-.871a7.193,7.193,0,0,1,3.049-1.228c2.748-.531,6.473.4,9.633,2.159,1.58.834,3.085,1.8,4.5,2.4a9.9,9.9,0,0,0,4.06.754,10.543,10.543,0,0,0,4.121-.778,17.239,17.239,0,0,0,3.86-2c2.169-1.382,4.746-3.826,7.772-5.839a21.005,21.005,0,0,1,2.361-1.349c.789-.38,1.567-.737,2.34-1.063a18.212,18.212,0,0,1,4.41-1.335,6.475,6.475,0,0,1,3.286.235c.756.3,1.068.656,1.037.694-.052.09-.44-.128-1.161-.258a6.951,6.951,0,0,0-3,.188,19.409,19.409,0,0,0-4.048,1.618c-.719.366-1.463.77-2.208,1.19a20.624,20.624,0,0,0-2.114,1.386c-2.733,2.047-5.2,4.618-7.5,6.236a18.7,18.7,0,0,1-4.253,2.4,12.933,12.933,0,0,1-1.4.421,12.464,12.464,0,0,1-3.543.323,11.747,11.747,0,0,1-4.79-1.126c-1.613-.787-3.033-1.824-4.522-2.718-2.882-1.827-6.219-2.894-8.733-2.67C300.827,148.381,299.443,149.639,299.33,149.45Z"/>
    <path d="M304.51,133.881c.146-.081.628.5,1.349,1.313a23.225,23.225,0,0,0,2.912,2.7c1.138.9,2.378,1.742,3.3,2.477s1.53,1.282,1.56,1.321a17.07,17.07,0,0,1,1.313,1.611,17.578,17.578,0,0,1,2.091,3.793c1.161,2.9,1.487,5.9,1.217,5.957-.331.083-1.217-2.762-2.65-5.267a18.348,18.348,0,0,0-2.276-3.187c-.692-.813-1.28-1.272-1.29-1.32-.029-.037-.526-.572-1.323-1.342s-1.932-1.752-3.006-2.864a15.848,15.848,0,0,1-2.558-3.372C304.609,134.678,304.384,133.948,304.51,133.881Z"/>
    <path d="M317.9,71.51c.175-.119.978,1.56,3.217,2.853,2.195,1.333,5.67,2.007,9.137,1.941,3.477-.105,7.105-.539,9.944-.31a16.581,16.581,0,0,1,4.884.982,12.323,12.323,0,0,1,1.346.639,13.415,13.415,0,0,1,2.887,2.125c2.153,1.991,4.051,5.181,5.835,8.236,3.633,6.142,7.169,12.278,6.906,12.443s-4.274-5.669-8.251-11.594c-1.973-2.986-3.941-5.916-5.889-7.555a11.379,11.379,0,0,0-3.652-2.2,14.918,14.918,0,0,0-4.247-1.012c-2.591-.327-6.131-.073-9.788-.166-3.651-.135-7.347-1.106-9.593-2.8a8.089,8.089,0,0,1-2.269-2.424C317.966,71.98,317.845,71.537,317.9,71.51Z"/>
    <path d="M308.944,53.609c.051-.173,1.259.13,3.059.159a21.526,21.526,0,0,0,3.077-.253,27.915,27.915,0,0,1,3.717-.393,11.686,11.686,0,0,1,3.881.648l.861.34.222.09a2.523,2.523,0,0,1,.319.185,1.887,1.887,0,0,1,.532.54,4.864,4.864,0,0,1,.655,1.829,25.841,25.841,0,0,1,.285,3.408c.011.075-.049,1.405-.042,3.225a11.649,11.649,0,0,0,.09,1.383,2.787,2.787,0,0,0,.126.539c.017.023,0,.016.035.071l.115.166.233.339a16.7,16.7,0,0,0,2.273,2.626c.867.828,1.836,1.591,2.718,2.4a9.955,9.955,0,0,1,2.1,2.568c.936,1.748.885,3.072.785,3.081-.195.058-.465-1.2-1.523-2.609a10.166,10.166,0,0,0-2.172-2.074c-.9-.675-1.953-1.359-2.957-2.168a17.42,17.42,0,0,1-2.718-2.7l-.286-.361-.141-.178a3.239,3.239,0,0,1-.184-.294,4.267,4.267,0,0,1-.353-1.042,13.092,13.092,0,0,1-.215-1.646c-.126-1.965-.126-3.221-.138-3.3a28.787,28.787,0,0,0-.084-3.111,3.511,3.511,0,0,0-.257-1.058.12.12,0,0,0-.025-.049c-.014-.01,0-.008-.037-.027l-.165-.079-.724-.346a10.315,10.315,0,0,0-3.263-.8,32.039,32.039,0,0,0-3.556.055,17.651,17.651,0,0,1-3.258-.126C310.028,54.33,308.9,53.729,308.944,53.609Z"/>
    <path d="M311.227,93.786c-.078-.131,1.175-.766,3.157-.68a11.185,11.185,0,0,1,6.763,2.528,13.69,13.69,0,0,1,4.162,6.12,24.067,24.067,0,0,1,.706,2.385c.081.325.136.453.176.593s.061.2.066.218a5.515,5.515,0,0,0,.288.777,16.477,16.477,0,0,0,1.051,1.933,54.169,54.169,0,0,1,3.624,6.1,15.925,15.925,0,0,1,1.606,6.967c-.026.484-.049.928-.07,1.321-.054.39-.126.726-.182,1-.117.55-.218.853-.3.843s-.127-.333-.157-.88c-.009-.272-.021-.6-.034-.979-.041-.374-.087-.8-.137-1.255a16.786,16.786,0,0,0-2.148-6.294,63.845,63.845,0,0,0-3.934-5.682,12.319,12.319,0,0,1-1.752-3.162c-.007-.023-.036-.136-.086-.327s-.128-.5-.176-.739c-.139-.527-.224-1.31-.513-2.169a12.329,12.329,0,0,0-3.243-5.578,10.917,10.917,0,0,0-5.8-2.853C312.488,93.639,311.284,93.938,311.227,93.786Z"/>
    <path d="M267.563,274.936c.082-.19,1.789.832,4.586.789a18.265,18.265,0,0,0,9.526-3.237c3.152-2.045,6.11-4.564,8.67-6.169a24.43,24.43,0,0,1,3.25-1.788c.831-.393,1.337-.614,1.4-.625a39.25,39.25,0,0,1,4.98-1.444c2.909-.684,6.757-1.208,10.5-1.872a36.954,36.954,0,0,0,9.9-2.931c2.524-1.244,3.949-2.534,4.085-2.381a11.114,11.114,0,0,1-3.662,3.147,33.742,33.742,0,0,1-10,3.722c-3.78.877-7.561,1.559-10.33,2.327A40.282,40.282,0,0,0,295.812,266c-.062.009-.533.2-1.308.536a23.1,23.1,0,0,0-3.075,1.547c-2.473,1.412-5.521,3.793-8.933,5.764-3.4,2.011-7.4,3.06-10.382,2.75a9.516,9.516,0,0,1-3.442-.9C267.9,275.321,267.532,274.987,267.563,274.936Z"/>
    <path d="M259.306,271.18c-.063-.133.578-.6,1.63-1.157A24.693,24.693,0,0,1,265,268.394a30.179,30.179,0,0,1,4.344-.943c1.217-.171,2.059-.214,2.11-.227.051.011.893,0,2.118.1a30.085,30.085,0,0,1,4.388.686,24.687,24.687,0,0,1,4.148,1.387c1.082.494,1.749.923,1.694,1.059-.06.152-.83,0-1.96-.225s-2.639-.485-4.152-.653a36.761,36.761,0,0,0-4.19-.182c-1.151.016-1.932.085-1.981.075-.047.012-.831-.009-1.982.041a36.867,36.867,0,0,0-4.175.428c-1.5.257-2.992.6-4.109.9S259.374,271.328,259.306,271.18Z"/>
    <path d="M299.07,42.651c-.067-.122.783-.757,2.292-1.217a20.654,20.654,0,0,1,5.65-.707l5.618-.018,2.665.019,2.67.209a36.668,36.668,0,0,1,5.661.9,15.371,15.371,0,0,1,5.254,2.3c1.277.925,1.884,1.784,1.788,1.877-.119.127-.917-.492-2.236-1.126a17.588,17.588,0,0,0-5.123-1.5,42.186,42.186,0,0,0-5.459-.386l-2.647-.029-2.657-.2-5.584-.463a26.326,26.326,0,0,0-5.416-.027A14.18,14.18,0,0,1,299.07,42.651Z"/>
    <path d="M292.306,29.177c.182-.573,13.6,2.927,13.845,3.119.052.022.921.346,2.168.915a25.384,25.384,0,0,1,4.34,2.483,14,14,0,0,1,3.5,3.533c.734,1.148.992,2.013.873,2.074-.154.085-.668-.62-1.553-1.522A16.757,16.757,0,0,0,311.8,37.03a28.026,28.026,0,0,0-4.262-1.9c-1.222-.435-2.078-.689-2.129-.71l-2.121-.8-4.546-1.648C295.452,30.757,292.215,29.475,292.306,29.177Z"/>
    <path d="M108.765,397.827a2.63,2.63,0,0,1,.578-.253l1.724-.635,6.584-2.31L122.36,393l5.623-1.683,6.4-1.9c2.248-.7,4.668-1.226,7.163-1.888l7.815-1.974,8.437-1.814,4.405-.936,4.544-.813c3.067-.526,6.189-1.157,9.39-1.627,12.785-2.048,26.547-3.485,40.357-4.489,27.632-2,55.444-2.038,76.424-3.542a137.526,137.526,0,0,0,14.261-1.493c4.226-.737,7.916-1.526,10.964-2.309,1.52-.4,2.9-.745,4.1-1.087l3.084-.923c1.72-.5,2.714-.863,2.924-.926l2.911-.964c.854-.268,1.856-.668,3.031-1.088s2.509-.9,3.964-1.5a191,191,0,0,0,23.083-10.987,196.273,196.273,0,0,0,29.3-20.1A152.981,152.981,0,0,0,405,317.262,98.932,98.932,0,0,0,417.4,301.014a51.33,51.33,0,0,0,7.109-18.882,40.563,40.563,0,0,0,.313-9.888,42.139,42.139,0,0,0-2.05-9.441,44.082,44.082,0,0,0-3.923-8.507,54.317,54.317,0,0,0-5.179-7.358A74.255,74.255,0,0,0,401.7,235.564a105.772,105.772,0,0,0-21.41-12.43c-1.37-.606-2.6-1.133-3.685-1.558s-2-.814-2.75-1.089l-1.709-.666a2.7,2.7,0,0,1-.575-.264,2.562,2.562,0,0,1,.612.155l1.75.558c.769.241,1.7.58,2.8.987,1.1.391,2.349.885,3.739,1.46a101.95,101.95,0,0,1,21.759,12.148,74.484,74.484,0,0,1,12.26,11.384,55.173,55.173,0,0,1,5.361,7.452,45.15,45.15,0,0,1,4.108,8.691,43.292,43.292,0,0,1,2.2,9.721,41.842,41.842,0,0,1-.236,10.226,52.719,52.719,0,0,1-7.156,19.484,100.322,100.322,0,0,1-12.483,16.612,154.235,154.235,0,0,1-14.546,13.949,197.362,197.362,0,0,1-29.482,20.475,192.083,192.083,0,0,1-23.288,11.23c-1.47.618-2.825,1.1-4.009,1.54s-2.2.84-3.066,1.116l-2.947.989c-.214.064-1.223.431-2.97.928l-3.134.923c-1.219.34-2.617.681-4.163,1.084-3.1.779-6.852,1.564-11.154,2.291a139.219,139.219,0,0,1-14.471,1.441c-21.087,1.395-48.878,1.265-76.45,3.06-13.782.9-27.511,2.222-40.275,4.145-3.2.44-6.312,1.038-9.376,1.532l-4.539.765-4.4.887-8.434,1.715-7.818,1.871c-2.5.629-4.92,1.124-7.173,1.785l-6.418,1.8-5.645,1.578-4.735,1.52-6.649,2.1-1.76.527A2.7,2.7,0,0,1,108.765,397.827Z"/>
    <path d="M381.413,194.859a8.908,8.908,0,0,1,1.464.708c.932.5,2.31,1.221,4.025,2.207,3.447,1.939,8.318,4.819,13.99,8.571a159.526,159.526,0,0,1,18.47,14.151,93.367,93.367,0,0,1,17.315,20.444A66.8,66.8,0,0,1,445.77,266.3a70.065,70.065,0,0,1,.682,12.511c0,2-.231,3.934-.345,5.814-.249,1.865-.392,3.687-.708,5.409-.289,1.727-.544,3.39-.9,4.951-.324,1.568-.629,3.06-1.059,4.455a62.724,62.724,0,0,1-2.425,7.175c-.9,1.924-1.612,3.47-2.15,4.55l-1.02,1.8-1.03,1.79c-.615,1.036-1.6,2.416-2.775,4.179a90.69,90.69,0,0,1-11.368,12.778,124.575,124.575,0,0,1-18.853,14.318,165.838,165.838,0,0,1-23.9,12.287,182.4,182.4,0,0,1-48.148,12.973,111.186,111.186,0,0,1-16.39.786c-1.98-.025-3.529-.179-4.583-.277a8.843,8.843,0,0,1-1.611-.208,8.847,8.847,0,0,1,1.625-.022c1.057.023,2.6.1,4.575.054a123.747,123.747,0,0,0,16.274-1.2,186.538,186.538,0,0,0,47.634-13.567,165.9,165.9,0,0,0,23.529-12.4,123.326,123.326,0,0,0,18.427-14.249,88.994,88.994,0,0,0,10.995-12.548c1.121-1.718,2.073-3.061,2.66-4.066s.914-1.612.985-1.736l1-1.731c.524-1.038,1.222-2.522,2.1-4.369a60.941,60.941,0,0,0,2.379-6.877c.423-1.324.734-2.788,1.065-4.325.367-1.53.628-3.156.926-4.844.325-1.686.477-3.463.737-5.286.125-1.834.37-3.724.385-5.673a68.233,68.233,0,0,0-.553-12.192,65.333,65.333,0,0,0-8.61-24.8,92.9,92.9,0,0,0-16.8-20.331A164.721,164.721,0,0,0,400.4,207.07c-5.573-3.848-10.36-6.844-13.729-8.906l-3.908-2.4A8.9,8.9,0,0,1,381.413,194.859Z"/>
    <path d="M382.21,165.439a3.9,3.9,0,0,1,.706.288l2.011.944c1.752.844,4.315,2.1,7.523,3.812a175,175,0,0,1,25.307,16.363,125.75,125.75,0,0,1,28.97,31.27,100.06,100.06,0,0,1,10.335,21.889,95.932,95.932,0,0,1,4.47,24.64c1.034,16.8-2.5,33.983-10.048,48.027a97.022,97.022,0,0,1-13.007,18.881,121.58,121.58,0,0,1-14.848,14.334,178.091,178.091,0,0,1-25.924,17.478c-6.723,3.76-10.911,5.749-11.384,6s-4.592,2.341-11.762,5.289c-1.789.731-3.822,1.358-5.986,2.134-2.155.816-4.556,1.421-7.089,2.138-1.273.333-2.564.766-3.928,1.047l-4.19.925c-2.853.7-5.895,1.142-9.048,1.692-12.636,2.1-27.451,2.948-43.214,3.158s-32.509-.269-49.2-.313c-8.352-.072-16.661.141-24.837.648l-6.092.5-3.023.254-3,.342-5.936.686-5.828.843c-1.931.257-3.833.585-5.716.922s-3.752.638-5.592.988c-3.666.769-7.275,1.422-10.738,2.279-6.966,1.543-13.448,3.409-19.412,5.174a244.253,244.253,0,0,0-28.123,10.533l-4.392,2.03c-1.27.606-2.331,1.162-3.2,1.587l-1.993.973a3.8,3.8,0,0,1-.7.3,3.934,3.934,0,0,1,.648-.4l1.942-1.075c.856-.459,1.9-1.049,3.158-1.69l4.354-2.134a228.759,228.759,0,0,1,28.051-10.957c5.963-1.836,12.452-3.772,19.429-5.383,3.469-.892,7.084-1.578,10.76-2.38,1.844-.367,3.719-.687,5.606-1.038s3.8-.7,5.733-.97l5.847-.891,5.958-.732,3.008-.365,3.036-.277,6.118-.547c8.2-.564,16.585-.832,24.938-.811,16.718-.057,33.454.334,49.172.039s30.424-1.206,42.91-3.34c3.114-.558,6.123-1.011,8.932-1.71l4.13-.931c1.346-.282,2.613-.714,3.865-1.048,2.491-.716,4.854-1.32,6.966-2.132,2.123-.771,4.119-1.394,5.871-2.118,6.993-2.908,11.1-5.018,11.574-5.256s4.633-2.211,11.306-5.91a176.456,176.456,0,0,0,25.686-17.157,119.707,119.707,0,0,0,14.672-14.033A95.169,95.169,0,0,0,449.833,311.8c7.462-13.715,11.025-30.511,10.11-47.078a94.683,94.683,0,0,0-4.244-24.282,99.086,99.086,0,0,0-10.038-21.658,125.77,125.77,0,0,0-28.448-31.251,183.394,183.394,0,0,0-24.98-16.652c-3.166-1.771-5.693-3.094-7.41-4l-1.958-1.045A3.879,3.879,0,0,1,382.21,165.439Z"/>
    <path d="M31.864,458.059a21.085,21.085,0,0,1,2.194-2.707l1.209-1.386,1.507-1.554c1.082-1.1,2.281-2.379,3.7-3.653a157.926,157.926,0,0,1,22.14-17.135,266.023,266.023,0,0,1,24.51-14.056c6.938-3.532,11.781-5.714,12.073-5.861s5.125-2.344,12.3-5.322c7.168-3,16.7-6.723,26.244-10.275s19.075-7,26.148-9.732c3.537-1.367,6.455-2.566,8.486-3.432a24.052,24.052,0,0,1,3.218-1.315c.018.035-.247.208-.762.5s-1.27.733-2.265,1.221c-1.976,1-4.851,2.338-8.346,3.833-6.991,2.994-16.448,6.662-25.908,10.406s-18.909,7.6-26,10.7c-7.106,3.072-11.879,5.328-12.177,5.46s-5.135,2.26-12.082,5.67a277.392,277.392,0,0,0-24.581,13.542,170.279,170.279,0,0,0-22.406,16.441c-1.454,1.217-2.692,2.432-3.817,3.481l-1.575,1.471-1.281,1.3A21.245,21.245,0,0,1,31.864,458.059Z"/>
    <path d="M74.8,425.252c.262.174-.812,2.279-1.539,4.488-.375,1.1-.7,2.216-.909,3.076s-.333,1.448-.351,1.481-.194.611-.464,1.454c-.251.851-.573,1.981-.86,3.124-.588,2.281-1.062,4.6-1.378,4.577s-.389-2.417-.192-4.836c.091-1.209.262-2.42.412-3.339.17-.915.3-1.541.313-1.578s.2-.647.547-1.519a26.088,26.088,0,0,1,1.427-3.084C72.968,426.916,74.548,425.078,74.8,425.252Z"/>
    <path d="M60.169,434.14c.131.117-1.511,2.187-3.887,5.346-2.318,3.207-5.371,7.513-8.107,12.055-1.432,2.227-2.713,4.557-3.989,6.7l-3.317,6c-1.874,3.579-3.149,6.02-3.21,6.18s-1.4,2.568-3.225,6.171c-1.859,3.586-4.179,8.379-6.451,13.175-2.249,4.807-4.414,9.634-6.045,13.248s-2.736,6.013-2.884,5.953.694-2.562,2.074-6.285,3.331-8.655,5.4-13.564c2.094-4.9,4.277-9.785,6.045-13.445,1.734-3.675,3.027-6.133,3.089-6.293s1.4-2.594,3.391-6.144c1.031-1.756,2.218-3.794,3.525-5.945,1.357-2.122,2.727-4.421,4.258-6.614A133.546,133.546,0,0,1,55.6,438.943C58.2,435.926,60.069,434.049,60.169,434.14Z"/>
    <path d="M368.878,375.594a11.349,11.349,0,0,1-2.248,1.208c-1.462.7-3.566,1.682-6.1,2.84-2.554,1.117-5.6,2.273-8.841,3.577-3.264,1.249-6.815,2.4-10.346,3.644-3.587,1.056-7.156,2.222-10.567,3.119l-4.931,1.285-2.294.594-2.167.486c-2.784.616-5.123,1.159-6.805,1.5l-2.82.533c-.241.015-4.059.787-9.711,1.528-5.64.825-13.111,1.606-20.564,2.118s-14.89.732-20.454.76c-2.782.022-5.1,0-6.718-.018a11.483,11.483,0,0,1-2.548-.152,11.323,11.323,0,0,1,2.535-.3c1.617-.123,3.928-.248,6.7-.4,5.55-.3,12.951-.746,20.352-1.47s14.806-1.652,20.388-2.583c5.6-.849,9.37-1.676,9.609-1.69l2.806-.484c1.675-.312,4-.808,6.779-1.364l2.16-.438,2.288-.542,4.922-1.166c3.407-.812,6.974-1.882,10.569-2.835,3.537-1.135,7.1-2.177,10.389-3.307,3.266-1.185,6.342-2.216,8.937-3.2,2.578-1.03,4.732-1.874,6.25-2.444A11.492,11.492,0,0,1,368.878,375.594Z"/>
  </g>
</svg>