<svg height="593.274" viewBox="0 0 676.812 593.274" width="676.812" xmlns="http://www.w3.org/2000/svg"><path d="m1.055 73.292v-.01a73.438 73.438 0 0 1 73.593-73.282l528.879 1.073a73.436 73.436 0 0 1 73.285 73.59l-.659 325.053a73.436 73.436 0 0 1 -73.583 73.292l-374.153-.758-228.417 121.024z" fill="#f94f46"/><path d="m339.538 394.589c23.113-11.632 192.688-101.434 176.532-224.355-14.734-112.234-153.489-118.017-176.522-20.591a.857.857 0 0 1 -1.659 0c-22.654-97.519-161.415-92.3-176.6 19.869-16.636 122.857 155.188 213.351 178.249 225.077z" fill="#fff"/><path d="m335.769 401.985c-33.484-17.027-199.669-108.323-182.715-233.585 6.2-45.785 38.368-93.215 96.254-95.923a92.766 92.766 0 0 1 89.463 54.074 92.751 92.751 0 0 1 89.682-53.711c57.9 2.943 89.869 50.492 95.858 96.313 16.956 129.196-160.727 222.62-181.045 232.847l-3.747 1.889zm11.892-250.434a9.151 9.151 0 0 1 -17.837-.037 77.24 77.24 0 0 0 -79.737-62.471c-32.283 1.5-72.763 23.786-80.588 81.583-6.6 48.737 17.494 98.167 71.582 146.938a505.047 505.047 0 0 0 98.47 67.7c31.149-16.264 183.019-101.734 168.317-213.951-7.59-57.829-47.98-80.268-80.256-81.91q-1.857-.092-3.732-.1a77.185 77.185 0 0 0 -76.219 62.248z" fill="#fff"/><path d="m337.052 336.852a12.051 12.051 0 0 1 -11.15-7.4l-75.571-179.362a2.1 2.1 0 0 0 -3.932.148l-32.285 96.2a12.087 12.087 0 0 1 -11.473 8.253h-.026l-140.93-.431a5 5 0 0 1 .015-10h.016l140.925.431a2.1 2.1 0 0 0 1.989-1.434l32.285-96.2a12.1 12.1 0 0 1 22.628-.849l75.571 179.359a2.1 2.1 0 0 0 3.9-.057l41.815-107.863a12.025 12.025 0 0 1 11.286-7.729h.014a12.023 12.023 0 0 1 11.28 7.754l27.285 70.828a2.1 2.1 0 0 0 3.992-.2l11.958-44.06a12.124 12.124 0 0 1 11.681-8.933h.024l130.961.406a5 5 0 0 1 -.015 10h-.016l-130.955-.413a2.106 2.106 0 0 0 -2.025 1.552l-11.958 44.06a12.1 12.1 0 0 1 -22.975 1.18l-27.281-70.826a2 2 0 0 0 -1.96-1.348 2 2 0 0 0 -1.962 1.343l-41.822 107.863a12.052 12.052 0 0 1 -11.111 7.727z" fill="#9b3c82"/></svg>